<svg width="756" height="1329" viewBox="0 0 756 1329" fill="none" xmlns="http://www.w3.org/2000/svg">
<rect x="149" y="283" width="462" height="998" fill="#4B2DA0"/>
<circle cx="535" cy="641" r="45" fill="url(#paint0_linear)" fill-opacity="0.8"/>
<circle cx="467.5" cy="698.5" r="22.5" fill="url(#paint1_linear)" fill-opacity="0.8"/>
<path d="M215.492 274.935C111.031 321.916 46.9087 421.734 90.6807 454.543C119.862 476.416 191.396 511.959 270.776 461.536C350.156 411.113 381.796 441.642 387.694 463.21C397.71 499.838 541.265 547.212 605.724 467.63C670.183 388.048 624.13 366.065 594.539 350.213L529.888 328.81C498.444 313.719 456.889 246.422 508.373 213.255C572.727 171.797 587.907 153.421 590.531 102.829C593.155 52.2367 497.608 52.7532 473.076 86.3225C448.543 119.892 413.315 131.574 376.22 119.066C339.125 106.558 288.27 124.256 285.198 162.487C282.126 200.719 346.068 216.208 215.492 274.935Z" fill="url(#paint2_linear)" fill-opacity="0.7"/>
<path d="M471.738 359.872C426.09 310.813 301.458 352.221 263.295 368.375C241.741 377.499 260.721 405.529 292.297 429.98C317.557 449.541 256.655 477.401 223.046 488.887C179.132 503.894 174.872 562.406 190.339 624.306C209.672 701.682 276.565 656.997 263.186 637.232C252.483 621.42 260.585 603.829 265.973 597.01C277.896 586.648 315.683 571.616 371.454 594.387C441.167 622.85 448.997 559.345 436.501 541.696C426.503 527.577 388.768 549.12 375.398 537.462C362.029 525.804 344.068 498.575 379.178 482.924C414.287 467.272 449.561 480.266 462.809 488.719C490.884 502.652 548.28 512.52 553.269 440.53C559.505 350.541 517.386 408.93 471.738 359.872Z" fill="url(#paint3_linear)" fill-opacity="0.8"/>
<g clip-path="url(#clip0)">
<path d="M386.766 985.589L320.26 996.874L253.716 985.589L253.165 1309.55H268.482L319.67 1019.8L324.316 1309.55H339.673C339.673 1309.55 366.369 1187.62 367.511 1176.53C368.653 1165.44 363.574 1131.11 363.574 1131.11L386.766 985.589Z" fill="#393762"/>
<path d="M268.049 750.137C268.049 750.137 272.577 706.298 278.562 684.003C284.547 661.709 308.133 653.817 322.584 655.001C337.035 656.185 364.44 662.38 364.716 696.196C364.728 714.976 366.335 733.721 369.519 752.228L268.049 750.137Z" fill="#393762"/>
<path d="M273.522 832.567L281.751 887.454C259.937 919.574 248.321 967.99 242.375 1005.16H401.216C387.238 921.547 355.856 887.81 355.856 887.81L368.377 831.936C379.757 821.163 380.426 803.999 380.426 796.422V767.815C380.426 767.815 329.71 743.074 318.331 743.074C306.951 743.074 260.213 765.486 260.213 765.486V795.949C256.393 817.967 273.522 832.567 273.522 832.567Z" fill="#ECE0D3"/>
<path d="M280.648 979.512L284.98 754.201C284.98 754.201 259.74 760.554 252.022 767.814C244.305 775.075 226.861 906.276 225.089 945.735C224.853 950.47 230.051 961.519 230.051 961.519C229.736 966.924 229.421 972.962 229.027 979.472L280.648 979.512Z" fill="#DE6879"/>
<path d="M368.102 831.738C367.896 831.797 367.678 831.797 367.472 831.738C367.204 831.568 367.013 831.299 366.94 830.99C366.866 830.68 366.916 830.354 367.078 830.081C370.929 823.824 373.238 816.739 373.813 809.41C374.388 802.082 373.213 794.722 370.386 787.939C370.299 787.782 370.254 787.605 370.254 787.426C370.254 787.246 370.299 787.07 370.386 786.913C371.291 785.137 372.118 783.243 372.984 781.349C373.851 779.455 374.756 777.403 375.701 775.628C375.768 775.487 375.863 775.362 375.979 775.26C376.095 775.158 376.232 775.08 376.379 775.032C376.526 774.984 376.682 774.967 376.836 774.981C376.99 774.995 377.14 775.041 377.276 775.115C377.417 775.185 377.543 775.284 377.646 775.404C377.748 775.525 377.825 775.664 377.873 775.815C377.921 775.966 377.938 776.125 377.923 776.282C377.909 776.44 377.863 776.593 377.788 776.732C376.883 778.508 376.016 780.442 375.15 782.336C374.284 784.23 373.575 785.847 372.748 787.505C375.607 794.589 376.766 802.247 376.13 809.861C375.494 817.476 373.081 824.835 369.086 831.344C368.962 831.479 368.809 831.585 368.639 831.654C368.469 831.722 368.285 831.751 368.102 831.738Z" fill="#393762"/>
<path d="M308.29 726.58V754.477C308.29 754.477 322.426 778.389 335.381 755.069L334.239 726.58H308.29Z" fill="#E48868"/>
<path d="M314 660.367C289.941 663.524 286.082 691.343 291.871 713.361C296.202 729.736 306.006 746.309 321.402 745.914C336.798 745.52 346.13 724.409 348.965 711.427C353.336 690.514 352.627 655.277 314 660.367Z" fill="#E48868"/>
<path d="M294.745 707.244C294.745 707.244 293.8 698.05 286.398 701.128C278.995 704.206 288.012 724.803 296.281 722.594C304.55 720.384 294.745 707.244 294.745 707.244Z" fill="#E48868"/>
<path d="M344.122 706.81C344.122 706.81 344.397 697.537 351.997 700.062C359.596 702.588 351.997 723.975 343.688 722.199C335.38 720.423 344.122 706.81 344.122 706.81Z" fill="#E48868"/>
<path d="M346.642 667.233C344.716 666.441 342.66 666.013 340.578 665.971C340.36 665.227 339.997 664.534 339.511 663.931C339.024 663.328 338.423 662.828 337.743 662.459C329.356 657.882 309.432 658.513 300.73 662.459C292.028 666.405 281.751 682.622 279.546 691.698C277.341 700.774 279.546 711.941 281.987 721.805C282.151 723.258 282.609 724.662 283.334 725.931C284.058 727.199 285.034 728.307 286.2 729.184C288.517 730.093 291.09 730.093 293.406 729.184C306.907 725.683 319.174 718.498 328.844 708.429C330.25 706.986 331.565 705.457 332.782 703.851C336.157 713.116 341.966 721.296 349.595 727.527C350.376 728.33 351.43 728.809 352.548 728.868C354.281 728.868 355.344 726.974 356.092 725.357C359.198 719.588 361.126 713.256 361.762 706.732C361.998 700.379 352.627 669.917 346.642 667.233Z" fill="#393762"/>
<path d="M321.52 747.099C317.841 747.125 314.223 746.157 311.046 744.297C310.782 744.133 310.591 743.875 310.51 743.574C310.43 743.274 310.467 742.954 310.613 742.68C310.777 742.405 311.042 742.205 311.352 742.124C311.661 742.043 311.99 742.086 312.267 742.245C315.292 743.956 318.728 744.801 322.199 744.69C325.671 744.578 329.045 743.515 331.955 741.614C332.218 741.444 332.537 741.382 332.845 741.441C333.153 741.499 333.426 741.674 333.609 741.93C333.778 742.194 333.84 742.513 333.782 742.822C333.723 743.13 333.548 743.404 333.294 743.587C329.807 745.908 325.706 747.131 321.52 747.099Z" fill="#BA745D"/>
<path d="M403.579 979.513C403.264 974.264 402.988 969.372 402.713 964.834C404.351 958.362 405.431 951.761 405.942 945.104C404.13 905.645 388.301 775.075 380.584 767.775C372.866 760.475 350.737 754.083 350.737 754.083L353.336 979.473L403.579 979.513Z" fill="#DE6879"/>
<path d="M380.584 767.814C388.459 773.26 393.578 788.136 397.161 800.368C400.744 812.6 433.82 846.338 429.646 858.294C425.472 870.25 424.33 871.197 429.095 886.152C433.859 901.107 405.469 904.303 394.169 901.225C382.868 898.148 357.904 882.719 357.904 882.719L356.88 859.044L369.204 860.78L380.584 767.814Z" fill="#DE6879"/>
<path d="M252.023 767.814C244.147 773.26 239.422 788.136 235.839 800.368C232.256 812.6 199.062 846.338 203.354 858.294C207.646 870.25 208.67 871.197 203.906 886.152C199.141 901.107 227.531 904.303 238.832 901.225C250.133 898.148 275.136 882.719 275.136 882.719L276.12 859.044L263.796 860.78L252.023 767.814Z" fill="#DE6879"/>
<path d="M268.481 1309.55L263.717 1329H236.981L250.368 1319.29L253.164 1309.55H268.481Z" fill="#ECE0D3"/>
<path d="M324.238 1309.55V1329H350.974L337.625 1319.29L339.594 1309.55H324.238Z" fill="#ECE0D3"/>
<path d="M249.069 863.108L253.164 798.237H368.102L371.96 874.117H249.069V863.108Z" fill="#393762"/>
<path d="M311.873 844.918C310.193 844.934 308.535 844.536 307.045 843.758C305.555 842.981 304.278 841.848 303.329 840.459C301.957 838.392 301.396 835.891 301.754 833.435C302.001 831.724 302.676 830.104 303.715 828.724C304.754 827.344 306.125 826.25 307.699 825.543C308.942 825.012 310.286 824.756 311.637 824.794C313.863 824.73 316.046 825.413 317.841 826.734C319.636 828.055 320.94 829.938 321.546 832.086C322.151 834.233 322.025 836.522 321.186 838.589C320.346 840.656 318.843 842.383 316.913 843.497C315.393 844.42 313.65 844.911 311.873 844.918ZM311.479 827.319C310.503 827.309 309.536 827.511 308.644 827.911C307.625 828.366 306.717 829.039 305.983 829.883C305.25 830.726 304.709 831.719 304.398 832.794C304.086 833.868 304.013 834.997 304.182 836.103C304.351 837.209 304.758 838.264 305.376 839.196C306.115 840.251 307.101 841.108 308.248 841.693C309.394 842.277 310.666 842.572 311.952 842.55C313.233 842.551 314.493 842.225 315.614 841.603C317.079 840.756 318.222 839.445 318.864 837.876C319.505 836.307 319.609 834.569 319.158 832.935C318.708 831.301 317.729 829.862 316.375 828.846C315.02 827.83 313.368 827.293 311.676 827.319H311.479Z" fill="#49478A"/>
<path d="M392.003 858.925C392.003 858.925 385.939 847.087 382.238 847.087L377.552 857.939C377.552 857.939 357.667 854.308 357.352 855.532C357.037 856.755 355.58 862.279 355.58 862.279L363.81 862.713C363.81 862.713 361.841 866.383 362.55 867.567C363.19 868.467 363.975 869.253 364.873 869.895C364.809 872.165 365.047 874.435 365.582 876.642C366.409 879.878 365.582 882.679 367.747 885.165C369.913 887.651 388.301 884.495 390.821 883.784L391.57 883.469C393.838 882.346 395.754 880.62 397.109 878.479C398.463 876.337 399.203 873.864 399.248 871.329C399.293 868.794 398.64 866.296 397.362 864.108C396.084 861.92 394.23 860.127 392.003 858.925Z" fill="#E48868"/>
<path d="M234.501 864.133C234.501 864.133 240.604 852.295 244.266 852.295L248.952 863.186C248.952 863.186 268.876 859.516 269.191 860.74L270.963 867.487L262.851 868.079C262.851 868.079 264.781 871.749 264.111 872.893C263.484 873.803 262.697 874.592 261.788 875.221C261.853 877.492 261.615 879.761 261.079 881.969C260.213 885.244 261.079 888.006 258.914 890.531C256.748 893.057 238.438 889.624 235.84 888.913C235.579 888.838 235.328 888.732 235.092 888.598C232.824 887.493 230.903 885.784 229.54 883.658C228.176 881.533 227.423 879.072 227.362 876.546C227.301 874.019 227.935 871.525 229.194 869.336C230.453 867.147 232.289 865.347 234.501 864.133Z" fill="#E48868"/>
<path d="M231.39 863.778C231.214 863.74 231.049 863.664 230.906 863.555C230.763 863.446 230.646 863.306 230.563 863.147C228.331 859.32 225.691 855.747 222.688 852.493C222.575 852.382 222.485 852.25 222.423 852.105C222.362 851.959 222.33 851.802 222.33 851.644C222.33 851.486 222.362 851.33 222.423 851.184C222.485 851.038 222.575 850.906 222.688 850.796C222.909 850.579 223.205 850.458 223.515 850.458C223.824 850.458 224.121 850.579 224.342 850.796C227.447 854.189 230.179 857.906 232.492 861.884C232.648 862.167 232.685 862.5 232.597 862.81C232.508 863.121 232.301 863.383 232.02 863.541C231.831 863.668 231.615 863.749 231.39 863.778Z" fill="#C55469"/>
<path d="M391.767 854.467H391.412C391.261 854.422 391.121 854.347 390.999 854.247C390.877 854.147 390.777 854.023 390.703 853.883C390.63 853.744 390.585 853.591 390.572 853.433C390.558 853.276 390.576 853.118 390.625 852.967C391.875 849.128 394.442 845.857 397.87 843.734C398.137 843.628 398.432 843.62 398.705 843.71C398.977 843.801 399.209 843.985 399.359 844.23C399.509 844.475 399.569 844.765 399.527 845.05C399.485 845.334 399.345 845.595 399.13 845.786C396.187 847.592 393.981 850.39 392.909 853.678C392.826 853.913 392.671 854.116 392.465 854.258C392.26 854.4 392.016 854.473 391.767 854.467Z" fill="#C55469"/>
<path d="M271.041 966.728C259.229 966.215 247.101 965.465 235.17 964.558C235.015 964.543 234.864 964.497 234.726 964.424C234.588 964.35 234.466 964.25 234.368 964.129C234.269 964.008 234.195 963.868 234.15 963.718C234.105 963.568 234.091 963.411 234.107 963.255C234.105 963.096 234.138 962.938 234.203 962.793C234.268 962.647 234.364 962.517 234.483 962.413C234.603 962.308 234.744 962.23 234.897 962.185C235.049 962.139 235.21 962.128 235.367 962.15C247.18 963.098 259.307 963.808 271.159 964.321C271.473 964.35 271.764 964.496 271.975 964.73C272.186 964.964 272.303 965.268 272.301 965.583C272.281 965.901 272.138 966.198 271.903 966.412C271.668 966.625 271.359 966.739 271.041 966.728Z" fill="#C55469"/>
<path d="M359.361 966.017C359.056 966.019 358.762 965.906 358.537 965.702C358.311 965.498 358.169 965.216 358.14 964.913C358.129 964.754 358.151 964.595 358.203 964.444C358.255 964.294 358.337 964.156 358.443 964.038C358.55 963.92 358.679 963.825 358.823 963.759C358.967 963.692 359.123 963.655 359.282 963.65C371.143 962.828 383.044 962.736 394.917 963.374C395.075 963.379 395.231 963.416 395.375 963.482C395.519 963.549 395.649 963.644 395.755 963.762C395.862 963.88 395.944 964.018 395.996 964.168C396.048 964.318 396.069 964.478 396.059 964.636C396.059 964.797 396.026 964.956 395.962 965.103C395.897 965.251 395.802 965.382 395.683 965.49C395.565 965.598 395.424 965.68 395.272 965.73C395.119 965.78 394.958 965.797 394.798 965.781C382.992 965.146 371.158 965.225 359.361 966.017Z" fill="#C55469"/>
<path d="M232.217 901.659C231.913 901.649 231.624 901.527 231.405 901.315C231.187 901.104 231.055 900.818 231.036 900.514C231.03 900.359 231.056 900.204 231.11 900.058C231.165 899.913 231.247 899.779 231.354 899.666C231.46 899.552 231.587 899.46 231.728 899.396C231.87 899.332 232.022 899.296 232.177 899.291C234.016 899.189 235.804 898.649 237.393 897.716C238.982 896.783 240.326 895.483 241.313 893.925C241.389 893.789 241.493 893.671 241.617 893.577C241.742 893.483 241.884 893.415 242.035 893.378C242.186 893.341 242.343 893.336 242.497 893.362C242.65 893.388 242.796 893.445 242.927 893.53C243.064 893.611 243.183 893.719 243.277 893.847C243.371 893.975 243.438 894.12 243.475 894.275C243.512 894.43 243.517 894.59 243.491 894.747C243.464 894.904 243.406 895.053 243.321 895.187C242.148 897.085 240.531 898.666 238.61 899.794C236.688 900.922 234.52 901.562 232.296 901.659H232.217Z" fill="#C55469"/>
<path d="M399.405 899.292C399.212 899.346 399.008 899.346 398.815 899.292C393.723 896.376 389.297 892.424 385.821 887.691C385.73 887.564 385.666 887.421 385.631 887.269C385.596 887.117 385.591 886.959 385.616 886.805C385.642 886.651 385.697 886.504 385.78 886.372C385.862 886.239 385.97 886.124 386.097 886.034C386.223 885.943 386.367 885.878 386.518 885.843C386.67 885.808 386.827 885.803 386.981 885.829C387.134 885.854 387.281 885.91 387.413 885.993C387.545 886.075 387.66 886.183 387.75 886.31C391.019 890.691 395.146 894.356 399.878 897.082C400.142 897.246 400.334 897.505 400.414 897.805C400.495 898.106 400.458 898.426 400.311 898.7C400.221 898.866 400.091 899.007 399.933 899.11C399.775 899.214 399.593 899.276 399.405 899.292Z" fill="#C55469"/>
<path d="M403.107 881.772H402.674C402.38 881.657 402.142 881.432 402.01 881.145C401.878 880.858 401.862 880.531 401.965 880.233C403.042 877.118 403.336 873.786 402.821 870.53C402.306 867.275 400.997 864.197 399.012 861.569C398.795 861.347 398.674 861.05 398.674 860.74C398.674 860.43 398.795 860.133 399.012 859.911C399.122 859.798 399.253 859.708 399.399 859.646C399.544 859.585 399.7 859.553 399.858 859.553C400.016 859.553 400.172 859.585 400.318 859.646C400.463 859.708 400.595 859.798 400.705 859.911C402.93 862.856 404.396 866.305 404.973 869.953C405.55 873.601 405.22 877.335 404.012 880.825C403.977 881.057 403.87 881.272 403.708 881.441C403.546 881.611 403.336 881.726 403.107 881.772Z" fill="#C55469"/>
<path d="M225.129 884.969C224.926 884.969 224.726 884.919 224.547 884.823C224.369 884.726 224.217 884.587 224.105 884.416C222.416 881.433 221.624 878.024 221.827 874.599C222.029 871.175 223.217 867.883 225.247 865.121C225.435 864.87 225.715 864.704 226.025 864.659C226.335 864.615 226.65 864.696 226.901 864.884C227.152 865.073 227.317 865.353 227.362 865.664C227.406 865.975 227.325 866.29 227.137 866.542C225.395 868.93 224.379 871.773 224.211 874.728C224.043 877.682 224.731 880.622 226.192 883.193C226.339 883.468 226.376 883.788 226.295 884.088C226.215 884.389 226.023 884.647 225.759 884.811C225.569 884.924 225.35 884.978 225.129 884.969Z" fill="#C55469"/>
<path d="M331.876 965.267C331.703 965.263 331.533 965.222 331.377 965.147C331.22 965.073 331.082 964.965 330.97 964.833C313.529 943.848 302.11 918.506 297.934 891.518C297.889 891.209 297.967 890.895 298.151 890.644C298.336 890.393 298.611 890.225 298.919 890.176C299.231 890.13 299.549 890.207 299.806 890.391C300.063 890.575 300.239 890.852 300.297 891.163C304.435 917.732 315.72 942.669 332.939 963.294C333.149 963.526 333.266 963.829 333.266 964.142C333.266 964.456 333.149 964.758 332.939 964.991C332.634 965.218 332.253 965.317 331.876 965.267Z" fill="#CFB199"/>
</g>
<defs>
<linearGradient id="paint0_linear" x1="535" y1="596" x2="535" y2="686" gradientUnits="userSpaceOnUse">
<stop stop-color="#5525C6"/>
<stop offset="1" stop-color="#E9AEE7"/>
</linearGradient>
<linearGradient id="paint1_linear" x1="467.5" y1="676" x2="467.5" y2="721" gradientUnits="userSpaceOnUse">
<stop stop-color="#4B2DA0"/>
<stop offset="1" stop-color="#C08BD7"/>
</linearGradient>
<linearGradient id="paint2_linear" x1="270.081" y1="147.541" x2="485.825" y2="542.471" gradientUnits="userSpaceOnUse">
<stop stop-color="#3114E3"/>
<stop offset="1" stop-color="#DC48C5" stop-opacity="0.58"/>
</linearGradient>
<linearGradient id="paint3_linear" x1="390.675" y1="445.702" x2="179.32" y2="608.756" gradientUnits="userSpaceOnUse">
<stop stop-color="#8343EC"/>
<stop offset="1" stop-color="#324CD5"/>
</linearGradient>
<clipPath id="clip0">
<rect width="227" height="674" fill="white" transform="translate(203 655)"/>
</clipPath>
</defs>
</svg>
