<svg width="386" height="368" viewBox="0 0 386 368" fill="none" xmlns="http://www.w3.org/2000/svg">
<path d="M297.738 37.8717C252.09 -11.1869 127.458 30.2211 89.2955 46.375C67.7406 55.4988 86.7208 83.5293 118.297 107.98C143.557 127.541 82.6549 155.401 49.0461 166.887C5.1321 181.894 0.871665 240.406 16.3385 302.306C35.6721 379.682 102.565 334.997 89.1861 315.232C78.4829 299.42 86.5846 281.829 91.9734 275.01C103.896 264.648 141.683 249.616 197.454 272.387C267.167 300.85 274.997 237.345 262.501 219.696C252.503 205.577 214.768 227.12 201.398 215.462C188.029 203.804 170.068 176.575 205.178 160.924C240.287 145.272 275.561 158.266 288.809 166.719C316.884 180.652 374.28 190.52 379.269 118.53C385.505 28.541 343.386 86.9304 297.738 37.8717Z" fill="url(#paint0_linear)" fill-opacity="0.8"/>
<defs>
<linearGradient id="paint0_linear" x1="216.675" y1="123.702" x2="5.32034" y2="286.756" gradientUnits="userSpaceOnUse">
<stop stop-color="#8343EC"/>
<stop offset="1" stop-color="#324CD5"/>
</linearGradient>
</defs>
</svg>
