<svg width="756" height="691" viewBox="0 0 756 691" fill="none" xmlns="http://www.w3.org/2000/svg">
<path d="M215.492 274.935C111.031 321.916 46.9087 421.734 90.6807 454.543C119.862 476.416 191.396 511.959 270.776 461.536C350.156 411.113 381.796 441.642 387.694 463.21C397.71 499.838 541.265 547.212 605.724 467.63C670.183 388.048 624.13 366.065 594.539 350.213L529.888 328.81C498.444 313.719 456.889 246.422 508.373 213.255C572.727 171.797 587.907 153.421 590.531 102.829C593.155 52.2367 497.608 52.7532 473.076 86.3225C448.543 119.892 413.315 131.574 376.22 119.066C339.125 106.558 288.27 124.256 285.198 162.487C282.126 200.719 346.068 216.208 215.492 274.935Z" fill="url(#paint0_linear)" fill-opacity="0.7"/>
<defs>
<linearGradient id="paint0_linear" x1="270.081" y1="147.541" x2="485.825" y2="542.471" gradientUnits="userSpaceOnUse">
<stop stop-color="#3114E3"/>
<stop offset="1" stop-color="#DC48C5" stop-opacity="0.58"/>
</linearGradient>
</defs>
</svg>
