<svg width="227" height="674" viewBox="0 0 227 674" fill="none" xmlns="http://www.w3.org/2000/svg">
<g clip-path="url(#clip0)">
<path d="M183.766 330.589L117.26 341.874L50.7158 330.589L50.1646 654.548H65.4816L116.67 364.8L121.316 654.548H136.673C136.673 654.548 163.369 532.619 164.511 521.531C165.653 510.443 160.574 476.114 160.574 476.114L183.766 330.589Z" fill="#393762"/>
<path d="M65.0486 95.1369C65.0486 95.1369 69.5768 51.2978 75.5619 29.0035C81.5469 6.70912 105.133 -1.18269 119.584 0.00108571C134.035 1.18486 161.44 7.37993 161.716 41.1963C161.728 59.9763 163.335 78.7212 166.519 97.2282L65.0486 95.1369Z" fill="#393762"/>
<path d="M70.5215 177.567L78.751 232.454C56.937 264.574 45.3212 312.99 39.3755 350.161H198.216C184.238 266.547 152.856 232.81 152.856 232.81L165.377 176.936C176.757 166.163 177.426 148.999 177.426 141.422V112.815C177.426 112.815 126.71 88.0737 115.331 88.0737C103.951 88.0737 57.2126 110.486 57.2126 110.486V140.949C53.3932 162.967 70.5215 177.567 70.5215 177.567Z" fill="#ECE0D3"/>
<path d="M77.6482 324.512L81.9796 99.2007C81.9796 99.2007 56.7398 105.554 49.0222 112.814C41.3046 120.075 23.8613 251.276 22.0894 290.735C21.8531 295.47 27.0507 306.519 27.0507 306.519C26.7357 311.924 26.4207 317.962 26.0269 324.472L77.6482 324.512Z" fill="#DE6879"/>
<path d="M165.102 176.738C164.896 176.797 164.678 176.797 164.472 176.738C164.204 176.568 164.013 176.299 163.94 175.99C163.866 175.68 163.916 175.354 164.078 175.081C167.929 168.824 170.238 161.739 170.813 154.41C171.388 147.082 170.213 139.722 167.386 132.939C167.299 132.782 167.254 132.605 167.254 132.426C167.254 132.246 167.299 132.07 167.386 131.913C168.291 130.137 169.118 128.243 169.984 126.349C170.851 124.455 171.756 122.403 172.701 120.628C172.768 120.487 172.863 120.362 172.979 120.26C173.095 120.158 173.232 120.08 173.379 120.032C173.526 119.984 173.682 119.967 173.836 119.981C173.99 119.995 174.14 120.041 174.276 120.115C174.417 120.185 174.543 120.284 174.646 120.404C174.748 120.525 174.825 120.664 174.873 120.815C174.921 120.966 174.938 121.125 174.923 121.282C174.909 121.44 174.863 121.593 174.788 121.732C173.883 123.508 173.016 125.442 172.15 127.336C171.284 129.23 170.575 130.847 169.748 132.505C172.607 139.589 173.766 147.247 173.13 154.861C172.494 162.476 170.081 169.835 166.086 176.344C165.962 176.479 165.809 176.585 165.639 176.654C165.469 176.722 165.285 176.751 165.102 176.738Z" fill="#393762"/>
<path d="M105.29 71.5796V99.4771C105.29 99.4771 119.426 123.389 132.381 100.069L131.239 71.5796H105.29Z" fill="#E48868"/>
<path d="M111 5.36719C86.9413 8.52391 83.0825 36.3425 88.8707 58.3607C93.202 74.7362 103.006 91.309 118.402 90.9144C133.798 90.5198 143.13 69.4092 145.965 56.4272C150.336 35.5139 149.627 0.276968 111 5.36719Z" fill="#E48868"/>
<path d="M91.7451 52.244C91.7451 52.244 90.8001 43.0501 83.3975 46.1279C75.9949 49.2057 85.0119 69.8033 93.2808 67.5936C101.55 65.3839 91.7451 52.244 91.7451 52.244Z" fill="#E48868"/>
<path d="M141.122 51.8098C141.122 51.8098 141.397 42.5369 148.997 45.0623C156.596 47.5877 148.997 68.9745 140.688 67.1989C132.38 65.4232 141.122 51.8098 141.122 51.8098Z" fill="#E48868"/>
<path d="M143.642 12.2334C141.716 11.4407 139.66 11.0126 137.578 10.9707C137.36 10.2269 136.997 9.53376 136.511 8.93105C136.024 8.32834 135.423 7.82801 134.743 7.45886C126.356 2.88161 106.432 3.51295 97.73 7.45886C89.028 11.4048 78.751 27.6224 76.5459 36.698C74.3409 45.7736 76.5459 56.9405 78.9872 66.8053C79.151 68.2579 79.6092 69.6617 80.3337 70.9305C81.0582 72.1994 82.0337 73.3065 83.2004 74.1841C85.5167 75.0928 88.0898 75.0928 90.4061 74.1841C103.907 70.6827 116.174 63.498 125.844 53.4287C127.25 51.9861 128.565 50.4574 129.782 48.8514C133.157 58.1164 138.966 66.2961 146.595 72.5268C147.376 73.3303 148.43 73.8094 149.548 73.8684C151.281 73.8684 152.344 71.9744 153.092 70.3566C156.198 64.5876 158.126 58.256 158.762 51.7319C158.998 45.379 149.627 14.9166 143.642 12.2334Z" fill="#393762"/>
<path d="M118.52 92.0989C114.841 92.125 111.223 91.1573 108.046 89.2973C107.782 89.1335 107.591 88.875 107.51 88.5744C107.43 88.2738 107.467 87.9538 107.613 87.6795C107.777 87.4046 108.042 87.2051 108.352 87.1239C108.661 87.0428 108.99 87.0864 109.267 87.2455C112.292 88.9556 115.728 89.8011 119.199 89.6898C122.671 89.5784 126.045 88.5146 128.955 86.6141C129.218 86.4439 129.537 86.3818 129.845 86.4406C130.153 86.4993 130.426 86.6745 130.609 86.9298C130.778 87.1938 130.84 87.5131 130.782 87.8216C130.723 88.1301 130.548 88.4042 130.294 88.5871C126.807 90.9082 122.706 92.1312 118.52 92.0989Z" fill="#BA745D"/>
<path d="M200.579 324.513C200.264 319.264 199.988 314.372 199.713 309.834C201.351 303.362 202.431 296.761 202.942 290.104C201.13 250.645 185.301 120.075 177.584 112.775C169.866 105.475 147.737 99.083 147.737 99.083L150.336 324.473L200.579 324.513Z" fill="#DE6879"/>
<path d="M177.584 112.814C185.459 118.26 190.578 133.136 194.161 145.368C197.744 157.6 230.82 191.338 226.646 203.294C222.472 215.25 221.33 216.197 226.095 231.152C230.859 246.107 202.469 249.303 191.169 246.225C179.868 243.148 154.904 227.719 154.904 227.719L153.88 204.044L166.204 205.78L177.584 112.814Z" fill="#DE6879"/>
<path d="M49.0226 112.814C41.1475 118.26 36.4224 133.136 32.8392 145.368C29.256 157.6 -3.93754 191.338 0.354393 203.294C4.64633 215.25 5.67009 216.197 0.905651 231.152C-3.85879 246.107 24.531 249.303 35.8318 246.225C47.1325 243.148 72.136 227.719 72.136 227.719L73.1204 204.044L60.7958 205.78L49.0226 112.814Z" fill="#DE6879"/>
<path d="M65.4811 654.548L60.7167 674.001H33.9807L47.3684 664.294L50.1641 654.548H65.4811Z" fill="#ECE0D3"/>
<path d="M121.238 654.548V674.001H147.974L134.625 664.294L136.594 654.548H121.238Z" fill="#ECE0D3"/>
<path d="M46.0693 208.108L50.1644 143.237H165.102L168.96 219.117H46.0693V208.108Z" fill="#393762"/>
<path d="M108.873 189.918C107.193 189.934 105.535 189.536 104.045 188.758C102.555 187.981 101.278 186.848 100.329 185.459C98.9572 183.392 98.3962 180.891 98.7535 178.435C99.0008 176.724 99.6755 175.104 100.715 173.724C101.754 172.344 103.125 171.25 104.699 170.543C105.942 170.012 107.286 169.756 108.637 169.794C110.863 169.73 113.046 170.413 114.841 171.734C116.636 173.055 117.94 174.938 118.546 177.086C119.151 179.233 119.025 181.522 118.186 183.589C117.346 185.656 115.843 187.383 113.913 188.497C112.393 189.42 110.65 189.911 108.873 189.918ZM108.479 172.319C107.503 172.309 106.536 172.511 105.644 172.911C104.625 173.366 103.717 174.039 102.983 174.883C102.25 175.726 101.709 176.719 101.398 177.794C101.086 178.868 101.013 179.997 101.182 181.103C101.351 182.209 101.758 183.264 102.376 184.196C103.115 185.251 104.101 186.108 105.248 186.693C106.394 187.277 107.666 187.572 108.952 187.55C110.233 187.551 111.493 187.225 112.614 186.603C114.079 185.756 115.222 184.445 115.864 182.876C116.505 181.307 116.609 179.569 116.158 177.935C115.708 176.301 114.729 174.862 113.375 173.846C112.02 172.83 110.368 172.293 108.676 172.319H108.479Z" fill="#49478A"/>
<path d="M189.003 203.925C189.003 203.925 182.939 192.087 179.238 192.087L174.552 202.939C174.552 202.939 154.667 199.308 154.352 200.532C154.037 201.755 152.58 207.279 152.58 207.279L160.81 207.713C160.81 207.713 158.841 211.383 159.55 212.567C160.19 213.467 160.975 214.253 161.873 214.895C161.809 217.165 162.047 219.435 162.582 221.642C163.409 224.878 162.582 227.679 164.747 230.165C166.913 232.651 185.301 229.495 187.821 228.784L188.57 228.469C190.838 227.346 192.754 225.62 194.109 223.479C195.463 221.337 196.203 218.864 196.248 216.329C196.293 213.794 195.64 211.296 194.362 209.108C193.084 206.92 191.23 205.127 189.003 203.925Z" fill="#E48868"/>
<path d="M31.5009 209.133C31.5009 209.133 37.6041 197.295 41.266 197.295L45.9517 208.186C45.9517 208.186 65.8758 204.516 66.1908 205.74L67.9627 212.487L59.8513 213.079C59.8513 213.079 61.7807 216.749 61.1113 217.893C60.4837 218.803 59.6966 219.592 58.7882 220.221C58.8535 222.492 58.6151 224.761 58.0794 226.969C57.2131 230.244 58.0794 233.006 55.9137 235.531C53.7481 238.057 35.4385 234.624 32.8397 233.913C32.5787 233.838 32.3276 233.732 32.0915 233.598C29.8238 232.493 27.903 230.784 26.5397 228.658C25.1763 226.533 24.4229 224.072 24.3619 221.546C24.3009 219.019 24.9347 216.525 26.1939 214.336C27.4531 212.147 29.2891 210.347 31.5009 209.133Z" fill="#E48868"/>
<path d="M28.3897 208.778C28.214 208.74 28.0488 208.664 27.9059 208.555C27.7629 208.446 27.6458 208.306 27.5629 208.147C25.3311 204.32 22.6905 200.747 19.6878 197.493C19.5746 197.382 19.4847 197.25 19.4233 197.105C19.362 196.959 19.3303 196.802 19.3303 196.644C19.3303 196.486 19.362 196.33 19.4233 196.184C19.4847 196.038 19.5746 195.906 19.6878 195.796C19.9086 195.579 20.2054 195.458 20.5146 195.458C20.8238 195.458 21.1207 195.579 21.3415 195.796C24.4468 199.189 27.1794 202.906 29.4923 206.884C29.6477 207.167 29.6853 207.5 29.5968 207.81C29.5082 208.121 29.3008 208.383 29.0198 208.541C28.8311 208.668 28.6153 208.749 28.3897 208.778Z" fill="#C55469"/>
<path d="M188.767 199.467H188.412C188.261 199.422 188.121 199.347 187.999 199.247C187.877 199.147 187.777 199.023 187.703 198.883C187.63 198.744 187.585 198.591 187.572 198.433C187.558 198.276 187.576 198.118 187.625 197.967C188.875 194.128 191.442 190.857 194.87 188.734C195.137 188.628 195.432 188.62 195.705 188.71C195.977 188.801 196.209 188.985 196.359 189.23C196.509 189.475 196.569 189.765 196.527 190.05C196.485 190.334 196.345 190.595 196.13 190.786C193.187 192.592 190.981 195.39 189.909 198.678C189.826 198.913 189.671 199.116 189.465 199.258C189.26 199.4 189.016 199.473 188.767 199.467Z" fill="#C55469"/>
<path d="M68.0413 311.728C56.2286 311.215 44.101 310.465 32.1702 309.558C32.0148 309.543 31.8638 309.497 31.7261 309.424C31.5883 309.35 31.4665 309.25 31.3676 309.129C31.2687 309.008 31.1948 308.868 31.1501 308.718C31.1054 308.568 31.0907 308.411 31.1071 308.255C31.1054 308.096 31.1382 307.938 31.2032 307.793C31.2682 307.647 31.3638 307.517 31.4835 307.413C31.6032 307.308 31.7441 307.23 31.8967 307.185C32.0492 307.139 32.2096 307.128 32.3671 307.15C44.1797 308.098 56.3074 308.808 68.1594 309.321C68.4727 309.35 68.7637 309.496 68.975 309.73C69.1863 309.964 69.3027 310.268 69.3013 310.583C69.281 310.901 69.1381 311.198 68.9029 311.412C68.6676 311.625 68.3586 311.739 68.0413 311.728Z" fill="#C55469"/>
<path d="M156.361 311.017C156.056 311.019 155.762 310.906 155.537 310.702C155.311 310.498 155.169 310.216 155.14 309.913C155.129 309.754 155.151 309.595 155.203 309.444C155.255 309.294 155.337 309.156 155.443 309.038C155.55 308.92 155.679 308.825 155.823 308.759C155.967 308.692 156.123 308.655 156.282 308.65C168.143 307.828 180.044 307.736 191.917 308.374C192.075 308.379 192.231 308.416 192.375 308.482C192.519 308.549 192.649 308.644 192.755 308.762C192.862 308.88 192.944 309.018 192.996 309.168C193.048 309.318 193.069 309.478 193.059 309.636C193.059 309.797 193.026 309.956 192.962 310.103C192.897 310.251 192.802 310.382 192.683 310.49C192.565 310.598 192.424 310.68 192.272 310.73C192.119 310.78 191.958 310.797 191.798 310.781C179.992 310.146 168.158 310.225 156.361 311.017Z" fill="#C55469"/>
<path d="M29.2169 246.659C28.9132 246.649 28.6238 246.527 28.4054 246.315C28.1869 246.104 28.0551 245.818 28.0356 245.514C28.0303 245.359 28.0557 245.204 28.1103 245.058C28.1648 244.913 28.2475 244.779 28.3535 244.666C28.4596 244.552 28.5869 244.46 28.7283 244.396C28.8697 244.332 29.0223 244.296 29.1775 244.291C31.0163 244.189 32.8044 243.649 34.3932 242.716C35.982 241.783 37.3257 240.483 38.3126 238.925C38.3895 238.789 38.4932 238.671 38.6174 238.577C38.7416 238.483 38.8837 238.415 39.0348 238.378C39.186 238.341 39.3431 238.336 39.4966 238.362C39.65 238.388 39.7965 238.445 39.927 238.53C40.0636 238.611 40.1825 238.719 40.2767 238.847C40.3708 238.975 40.4383 239.12 40.475 239.275C40.5118 239.43 40.5171 239.59 40.4906 239.747C40.4641 239.904 40.4063 240.053 40.3208 240.187C39.1484 242.085 37.5311 243.666 35.6095 244.794C33.688 245.922 31.5204 246.562 29.2956 246.659H29.2169Z" fill="#C55469"/>
<path d="M196.405 244.292C196.212 244.346 196.008 244.346 195.815 244.292C190.723 241.376 186.297 237.424 182.821 232.691C182.73 232.564 182.666 232.421 182.631 232.269C182.596 232.117 182.591 231.959 182.616 231.805C182.642 231.651 182.697 231.504 182.78 231.372C182.862 231.239 182.97 231.124 183.097 231.034C183.223 230.943 183.367 230.878 183.518 230.843C183.67 230.808 183.827 230.803 183.981 230.829C184.134 230.854 184.281 230.91 184.413 230.993C184.545 231.075 184.66 231.183 184.75 231.31C188.019 235.691 192.146 239.356 196.878 242.082C197.142 242.246 197.334 242.505 197.414 242.805C197.495 243.106 197.458 243.426 197.311 243.7C197.221 243.866 197.091 244.007 196.933 244.11C196.775 244.214 196.593 244.276 196.405 244.292Z" fill="#C55469"/>
<path d="M200.107 226.772H199.674C199.38 226.657 199.142 226.432 199.01 226.145C198.878 225.858 198.862 225.531 198.965 225.233C200.042 222.118 200.336 218.786 199.821 215.53C199.306 212.275 197.997 209.197 196.012 206.569C195.795 206.347 195.674 206.05 195.674 205.74C195.674 205.43 195.795 205.133 196.012 204.911C196.122 204.798 196.253 204.708 196.399 204.646C196.544 204.585 196.7 204.553 196.858 204.553C197.016 204.553 197.172 204.585 197.318 204.646C197.463 204.708 197.595 204.798 197.705 204.911C199.93 207.856 201.396 211.305 201.973 214.953C202.55 218.601 202.22 222.335 201.012 225.825C200.977 226.057 200.87 226.272 200.708 226.441C200.546 226.611 200.336 226.726 200.107 226.772Z" fill="#C55469"/>
<path d="M22.1291 229.969C21.9261 229.969 21.7261 229.919 21.5474 229.823C21.3686 229.726 21.2167 229.587 21.1053 229.416C19.4155 226.433 18.6241 223.024 18.8267 219.599C19.0294 216.175 20.2174 212.883 22.2472 210.121C22.4352 209.87 22.7151 209.704 23.0252 209.659C23.3353 209.615 23.6504 209.696 23.901 209.884C24.1516 210.073 24.3173 210.353 24.3616 210.664C24.406 210.975 24.3252 211.29 24.1373 211.542C22.3949 213.93 21.3786 216.773 21.211 219.728C21.0433 222.682 21.7314 225.622 23.1922 228.193C23.339 228.468 23.3758 228.788 23.2954 229.088C23.2149 229.389 23.0231 229.647 22.7591 229.811C22.5688 229.924 22.3499 229.978 22.1291 229.969Z" fill="#C55469"/>
<path d="M128.876 310.267C128.703 310.263 128.533 310.222 128.377 310.147C128.22 310.073 128.082 309.965 127.97 309.833C110.529 288.848 99.1097 263.506 94.9342 236.518C94.8889 236.209 94.9669 235.895 95.1512 235.644C95.3355 235.393 95.6113 235.225 95.9186 235.176C96.231 235.13 96.5492 235.207 96.8062 235.391C97.0632 235.575 97.239 235.852 97.2967 236.163C101.435 262.732 112.72 287.669 129.939 308.294C130.149 308.526 130.266 308.829 130.266 309.142C130.266 309.456 130.149 309.758 129.939 309.991C129.634 310.218 129.253 310.317 128.876 310.267Z" fill="#CFB199"/>
</g>
<defs>
<clipPath id="clip0">
<rect width="227" height="674" fill="white" transform="translate(0 0.000488281)"/>
</clipPath>
</defs>
</svg>
