<svg width="146" height="355" viewBox="0 0 146 355" fill="none" xmlns="http://www.w3.org/2000/svg">
<path d="M91.6167 59.3325L97.6481 45.4945C97.6481 45.4945 102.795 46.8986 105.047 44.7008C105.911 43.8665 106.756 39.4302 107.198 33.9153L107.318 31.8803C107.318 31.1681 110.193 33.081 110.214 32.3484C110.214 30.8628 107.479 26.6911 107.459 25.1852C107.339 18.2051 106.333 11.4489 103.76 8.90512C97.8693 3.10536 77.262 2.18961 74.387 12.3646C72.928 17.5408 72.9067 23.0238 74.3254 28.2114C75.7441 33.3991 78.5479 38.0905 82.4289 41.7704L76.8599 56.1376L91.6167 59.3325Z" fill="#E48868"/>
<path d="M106.655 6.46481C111.52 11.0435 113.973 15.5816 112.526 22.1546L99.9804 22.8668C96.2689 29.5131 93.9232 36.8504 93.0845 44.4377C91.8392 37.4693 92.0584 30.3135 93.7279 23.4366C93.1682 23.0458 92.5324 22.7808 91.8632 22.6594C91.1939 22.5379 90.5068 22.5629 89.8479 22.7325C89.1889 22.9021 88.5735 23.2125 88.0429 23.6428C87.5123 24.0732 87.0789 24.6134 86.7717 25.2274C86.5339 25.871 86.4348 26.5585 86.4809 27.244C86.527 27.9295 86.7173 28.5971 87.039 29.2022C87.3607 29.8072 87.8064 30.3356 88.3463 30.7522C88.8862 31.1687 89.5077 31.4636 90.1693 31.6172C87.797 35.3006 84.138 42.6469 81.7254 46.3505C81.1625 47.2052 82.7105 46.1063 81.7254 46.3505C80.7403 46.5947 79.4536 44.6412 78.569 43.9493C63.0281 32.187 66.6268 3.73793 87.7568 0.481951C92.8031 -0.291343 98.8345 -0.148895 106.655 6.46481Z" fill="#EFC33B"/>
<path d="M123.121 340.488L122.397 347.244C122.397 347.244 137.637 352.88 137.657 354.183H112.747L115.119 340.488H123.121Z" fill="#4E587F"/>
<path d="M15.9229 315.334L10.4745 319.648C10.4745 319.648 14.6764 336.03 13.7315 336.966L0 316.86L11.52 308.883L15.9229 315.334Z" fill="#4E587F"/>
<path d="M90.7123 235.298C90.7123 235.298 82.6705 269.425 81.6854 270.727C80.7002 272.03 15.521 317.613 15.521 317.613L8.72559 310.043L58.7259 253.308L59.3491 185.299L90.7123 235.298Z" fill="#96C4A8"/>
<path d="M112.968 148.486L109.068 169.263C109.068 169.263 117.27 229.356 117.592 234.158C117.914 238.961 124.991 341.809 124.991 341.809H113.069L88.762 244.13C88.762 244.13 47.9295 188.493 52.2721 169.059C54.7038 157.668 61.043 147.517 70.1652 140.407L112.968 148.486Z" fill="#96C4A8"/>
<path d="M52.5535 155.425L114.154 161.021L105.972 133.508C105.972 133.508 112.988 110.554 114.596 103.553C117.25 92.0353 117.25 92.0353 109.671 77.9125C102.091 63.7898 102.896 64.6038 102.896 64.6038L105.288 57.6441L78.5689 43.9487L76.1966 53.4724C76.1966 53.4724 65.521 68.1243 62.7264 73.4152C59.9319 78.7061 58.8261 130.964 59.2081 135.401L52.5535 155.425Z" fill="#ECE0D3"/>
<path d="M64.5359 105.447C66.2247 120.688 68.0743 135.259 68.8182 136.541C70.2255 138.983 88.5409 141.404 99.7995 142.768C120.085 145.719 131.625 149.3 133.977 149.015C139.285 148.364 142.18 147.774 140.632 143.867C139.084 139.96 145.196 139.614 143.326 136.602C141.456 133.59 148.292 132.166 145.075 129.887C141.858 127.607 134.761 131.535 134.761 131.535C134.761 131.535 129.273 126.427 123.925 135.177C122.618 137.212 116.466 135.177 114.757 134.791C105.167 132.43 96.1605 128.096 87.033 124.29L87.3145 106.566C87.3145 106.566 63.4704 95.9839 64.5359 105.447Z" fill="#E48868"/>
<path d="M75.5131 65.0717C73.6564 64.9654 71.7989 65.2645 70.0665 65.9488C68.334 66.6331 66.7673 67.6865 65.4725 69.0376C64.1777 70.3887 63.1852 72.0059 62.5622 73.7795C61.9393 75.5531 61.7005 77.4415 61.862 79.3167C62.4853 86.256 63.4704 95.963 64.5359 105.426C72.1355 105.609 79.735 105.995 87.3145 106.545L87.7568 78.462C87.8247 75.0601 86.5869 71.7641 84.3035 69.2669C82.0202 66.7697 78.8692 65.2659 75.5131 65.0717Z" fill="#ECE0D3"/>
<path d="M117.893 145.494L123.905 158.864L120.889 158.457L115.903 145.494H117.893Z" fill="#EFC33B"/>
<path d="M146 159.292L74.7893 147.693L57.3184 239.45L137.275 254.041L146 159.292Z" fill="#393762"/>
<path d="M114.798 134.791C109.731 133.346 96.8643 151.294 96.8643 151.294L94.0295 150.745C94.0295 150.745 106.695 134.363 112.124 133C112.71 132.906 113.31 133.037 113.805 133.369C114.3 133.7 114.654 134.208 114.798 134.791Z" fill="#EFC33B"/>
<path d="M44.7932 28.89C44.9907 32.2364 45.475 35.5591 46.2407 38.8206C47.005 42.0713 46.8305 45.4759 45.7381 48.6291C45.1561 50.1858 44.0958 51.5123 42.7133 52.4135C41.3308 53.3146 39.699 53.7429 38.0581 53.6351C41.878 60.5133 51.6488 62.3855 58.5849 58.7836C65.5211 55.1817 69.6626 47.4692 70.7885 39.6753C71.3514 35.8699 71.2911 31.9831 72.0149 28.2185C72.2682 26.2995 72.8943 24.4502 73.857 22.7773C74.8197 21.1044 76.1 19.6408 77.6241 18.471C75.384 15.3624 72.2529 13.027 68.6561 11.7819C65.0593 10.5368 61.1711 10.4423 57.5194 11.5114C53.887 12.727 50.7146 15.0492 48.4364 18.1602C46.1583 21.2711 44.8858 25.0188 44.7932 28.89Z" fill="#EFC33B"/>
<path d="M85.3645 102.251C85.5085 102.253 85.6484 102.203 85.759 102.11C85.8697 102.017 85.9436 101.886 85.9676 101.743C87.0332 95.882 88.2194 89.248 87.1136 82.8989C85.847 75.8375 81.4843 70.0989 75.9555 68.2471C75.7982 68.1959 75.6273 68.21 75.4802 68.2863C75.3332 68.3626 75.2221 68.4949 75.1714 68.6541C75.1466 68.7316 75.1374 68.8133 75.1443 68.8944C75.1512 68.9755 75.174 69.0544 75.2115 69.1265C75.249 69.1986 75.3003 69.2623 75.3625 69.314C75.4246 69.3657 75.4964 69.4042 75.5735 69.4274C80.66 71.1368 84.7211 76.5091 85.8872 83.1227C86.9729 89.2276 85.8872 95.475 84.7614 101.437C84.747 101.518 84.7487 101.6 84.7663 101.68C84.784 101.759 84.8172 101.835 84.8641 101.901C84.9109 101.967 84.9704 102.024 85.0391 102.066C85.1078 102.109 85.1843 102.137 85.264 102.15L85.3645 102.251Z" fill="#CFB199"/>
</svg>
