<svg width="409" height="507" viewBox="0 0 409 507" fill="none" xmlns="http://www.w3.org/2000/svg">
<path d="M121.132 314.28C116.153 326.199 113.728 360.41 114.376 363.993C115.024 367.576 154.394 452.425 154.394 452.425L160.706 448.219L138.939 373.008L146.343 314.28H121.132Z" fill="#E48868"/>
<path d="M146.065 300.399C144.418 302.285 133.423 375.403 131.554 381.494C129.684 387.586 132.627 430.416 126.149 457.271H136.125C136.125 457.271 151.803 408.237 148.694 388.887L167.592 323.521L146.065 300.399Z" fill="#E48868"/>
<path d="M109.453 304.492L124.39 270.696L136.366 283.596L111.785 312.941L109.453 304.492Z" fill="#E48868"/>
<path d="M124.39 270.696L126.871 264.359C126.871 264.359 123.779 256.137 124.372 253.817C124.964 251.497 133.201 246.876 133.201 246.876L138.273 262.304L130.684 277.561L124.39 270.696Z" fill="#ECE0D3"/>
<path d="M119.762 316.94L167.592 323.522C169.675 316.708 172.198 310.043 175.144 303.568C180.937 292.252 174.699 266.169 174.699 266.169L133.978 260.285C133.978 260.285 128.721 276.599 119.762 316.94Z" fill="#464473"/>
<path d="M116.431 149.071C116.431 149.071 124.187 127.195 143.196 133.475C160.836 139.302 155.561 156.86 155.561 156.86L116.431 149.071Z" fill="#EFC33B"/>
<path d="M104.418 144.979C107.972 136.53 170.923 146.865 171.053 158.765C171.183 170.665 99.9755 155.615 104.418 144.979Z" fill="#EFC33B"/>
<path d="M115.154 156.351C115.27 159.288 115.755 162.197 116.597 165.007C117.43 168.006 118.559 170.477 117.652 173.701C116.737 175.827 115.946 178.006 115.283 180.227C115.115 181.287 115.167 182.372 115.435 183.411C115.703 184.451 116.181 185.421 116.838 186.262C116.915 185.168 117.323 184.125 118.005 183.277C118.688 182.429 119.613 181.818 120.651 181.528C122.747 180.987 124.937 180.936 127.055 181.377C129.169 181.828 131.345 181.886 133.478 181.547C135.661 180.943 137.528 179.497 138.682 177.515C139.836 175.533 140.187 173.171 139.661 170.929C138.622 168.126 136.848 165.667 134.533 163.819C131.885 161.122 128.867 158.829 125.575 157.011C123.966 156.206 122.217 155.734 120.429 155.62C118.64 155.507 116.847 155.755 115.154 156.351Z" fill="#393762"/>
<path d="M155.561 159.689L116.431 151.938C117.042 154.05 119.744 156.69 122.78 161.028C123.65 162.254 122.65 168.817 123.132 170.156C123.613 171.495 124.835 167.346 125.242 168.364C126.908 172.438 127.093 174.248 128.5 176.172C130.61 178.925 136.2 176.587 138.846 177.228C142.919 178.209 141.012 196.559 141.012 196.559L157.356 177.096L151.229 169.25C153.599 165.309 155.005 163.951 155.561 159.689Z" fill="#E48868"/>
<path d="M155.56 156.86L116.431 149.071C115.378 151.339 114.937 153.852 115.154 156.351L134.404 157.614C133.729 159.034 133.466 160.621 133.646 162.188C133.827 163.755 134.443 165.237 135.422 166.459C136.605 167.509 137.639 168.721 138.495 170.062C139.587 172.513 138.143 175.305 136.847 177.606C135.551 179.906 133.997 184.867 135.459 187.13C136.125 185.64 138.198 183.113 139.827 183.263C141.476 183.657 143.169 183.828 144.862 183.773C146.995 183.217 148.849 181.872 150.063 180.001C151.303 178.146 152.85 176.526 154.635 175.21C155.53 174.591 156.607 174.303 157.685 174.396C158.763 174.488 159.778 174.956 160.558 175.72C162.15 170.062 158.929 161.443 155.56 156.86Z" fill="#393762"/>
<path d="M174.7 266.245C174.7 266.245 181.456 234.938 181.863 233.165C183.381 226.583 180.937 208.648 180.493 204.367C180.049 200.086 169.591 183.98 166.926 183.075C163.573 181.395 160.371 179.42 157.356 177.172L141.382 191.316C141.382 191.316 136.44 198.709 130.443 206.856C124.446 215.004 118.208 222.283 128.425 233.26L133.534 261.775L174.7 266.245Z" fill="#ECE0D3"/>
<path d="M138.328 230.411L136.477 245.743C136.477 245.743 110.73 232.693 108.712 231.825C103.875 229.703 99.2864 227.033 95.0337 223.867C93.8861 222.886 90.7209 213.193 90.4803 212.269C90.2396 211.344 97.4399 211.326 97.4399 211.326L95.8111 203.273C95.8111 203.273 98.6986 202.839 99.1058 203.48C99.513 204.121 102.974 211.665 104.381 213.136C105.788 214.607 106.399 221.981 106.399 221.981L138.328 230.411Z" fill="#E48868"/>
<path d="M97.4397 211.327L95.8109 203.273L92.9048 189.468L87.9998 190.995L93.2195 211.496L97.4397 211.327Z" fill="#393762"/>
<path d="M144.473 232.298L140.456 231.411C140.383 231.398 140.313 231.37 140.252 231.328C140.19 231.286 140.137 231.231 140.097 231.167C140.057 231.103 140.031 231.032 140.019 230.957C140.008 230.882 140.012 230.806 140.031 230.732C140.062 230.583 140.149 230.453 140.274 230.368C140.398 230.283 140.55 230.252 140.697 230.28L143.788 230.959C143.838 230.303 144.06 229.674 144.432 229.136C144.803 228.598 145.31 228.173 145.898 227.903C147.251 227.413 148.729 227.413 150.081 227.903C151.1 228.167 153.783 228.564 155.449 228.752C154.837 219.737 154.948 210.686 155.782 201.689C156.067 198.812 156.779 195.995 157.893 193.334C159.053 190.548 161.191 188.302 163.89 187.035C163.958 187.007 164.031 186.992 164.104 186.993C164.178 186.993 164.251 187.008 164.319 187.037C164.386 187.066 164.448 187.108 164.5 187.161C164.552 187.214 164.593 187.277 164.621 187.347C164.649 187.416 164.663 187.49 164.663 187.565C164.663 187.64 164.648 187.714 164.62 187.784C164.591 187.853 164.55 187.916 164.498 187.968C164.445 188.021 164.384 188.063 164.315 188.092C161.894 189.233 159.975 191.249 158.929 193.749C157.854 196.305 157.174 199.015 156.912 201.783C156.052 210.918 155.959 220.111 156.634 229.261V229.94H155.949C153.86 229.749 151.783 229.434 149.73 228.997C148.615 228.602 147.402 228.602 146.287 228.997C145.38 229.431 144.584 230.581 144.917 231.487C144.928 231.53 144.928 231.575 144.917 231.619L143.844 231.958C143.874 232.021 143.918 232.076 143.973 232.118C144.027 232.161 144.091 232.19 144.158 232.203C144.238 232.225 144.322 232.219 144.398 232.189C144.475 232.158 144.54 232.104 144.584 232.034L144.473 232.298Z" fill="#CFB199"/>
<path d="M156.653 254.363C151.445 254.363 146.279 253.411 141.401 251.553H141.234L141.142 251.421C140.488 250.458 140.04 249.366 139.827 248.215L137.384 247.385C137.242 247.334 137.125 247.229 137.056 247.092C136.987 246.955 136.972 246.797 137.014 246.65C137.064 246.505 137.168 246.387 137.303 246.32C137.438 246.253 137.593 246.243 137.736 246.291L140.845 247.347V247.743C141.002 248.742 141.382 249.691 141.956 250.516C149.947 253.572 158.673 254.02 166.926 251.798C166.997 251.779 167.072 251.774 167.146 251.784C167.219 251.794 167.29 251.82 167.354 251.858C167.418 251.897 167.474 251.948 167.518 252.009C167.562 252.07 167.593 252.14 167.61 252.213C167.633 252.285 167.64 252.361 167.633 252.436C167.625 252.511 167.602 252.583 167.566 252.649C167.529 252.714 167.48 252.771 167.421 252.816C167.361 252.862 167.294 252.894 167.222 252.911C163.78 253.881 160.224 254.37 156.653 254.363Z" fill="#CFB199"/>
<path d="M130.739 401.184C130.59 401.184 130.447 401.125 130.34 401.019C130.233 400.914 130.17 400.77 130.165 400.618C129.943 390.226 130.536 367.614 131.035 362.899C131.683 356.789 138.273 323.162 138.55 321.748C138.582 321.599 138.669 321.468 138.793 321.383C138.918 321.299 139.07 321.267 139.217 321.295C139.292 321.306 139.363 321.333 139.427 321.374C139.491 321.415 139.546 321.469 139.588 321.533C139.63 321.597 139.658 321.67 139.671 321.746C139.683 321.822 139.68 321.899 139.661 321.974C139.661 322.313 132.812 356.958 132.165 363.012C131.665 367.765 131.091 390.302 131.313 400.637C131.313 400.791 131.256 400.939 131.153 401.051C131.05 401.163 130.908 401.231 130.758 401.24L130.739 401.184Z" fill="#BA745D"/>
<path d="M144.195 427.889H144.103C143.953 427.861 143.82 427.774 143.734 427.647C143.647 427.52 143.613 427.363 143.64 427.21C144.121 424.475 144.825 421.118 145.491 417.78C146.158 414.442 146.842 411.161 147.342 408.445C147.374 408.295 147.46 408.162 147.584 408.075C147.707 407.987 147.859 407.951 148.009 407.973C148.155 408.005 148.283 408.094 148.366 408.221C148.449 408.348 148.48 408.502 148.453 408.652C147.972 411.387 147.287 414.744 146.602 418.082C145.917 421.42 145.232 424.702 144.751 427.512C144.714 427.629 144.638 427.731 144.538 427.799C144.437 427.868 144.316 427.899 144.195 427.889Z" fill="#BA745D"/>
<path d="M154.394 452.424L156.19 458.61L153.247 469.002L149.508 473H156.19L162.076 464.608L164.038 467.606L166.796 465.4L160.706 448.219L154.394 452.424Z" fill="#ECE0D3"/>
<path d="M136.107 457.178L133.812 473H129.499V467.814L122.817 473H113.007L122.04 467.003L126.149 457.178H136.107Z" fill="#ECE0D3"/>
<path d="M154.635 149.506H154.487C143.785 146.588 132.918 144.339 121.947 142.773C121.873 142.763 121.803 142.739 121.739 142.702C121.675 142.665 121.619 142.615 121.574 142.555C121.529 142.495 121.496 142.427 121.478 142.354C121.459 142.282 121.455 142.206 121.465 142.131C121.471 142.054 121.494 141.979 121.531 141.91C121.568 141.842 121.619 141.783 121.68 141.737C121.742 141.69 121.812 141.658 121.887 141.641C121.961 141.625 122.038 141.625 122.113 141.641C133.076 143.211 143.936 145.453 154.635 148.355C154.78 148.399 154.902 148.498 154.978 148.631C155.054 148.764 155.077 148.922 155.042 149.072C155.019 149.175 154.969 149.27 154.897 149.346C154.825 149.422 154.735 149.478 154.635 149.506Z" fill="#E8A12B"/>
<path d="M111.378 314.204C111.378 314.204 113.414 308.112 113.044 306.453C112.673 304.793 109.453 304.567 109.453 304.567C107.613 304.866 105.739 304.866 103.9 304.567C102.697 303.982 98.7355 304.152 98.6244 304.963C98.5133 305.774 101.493 306.849 101.493 306.849L91.9424 319.372C90.4246 321.257 92.2385 321.257 92.9419 321.446C93.6453 321.635 98.1987 317.448 98.1987 317.448C98.1987 317.448 99.2537 319.598 99.8275 319.598H101.679C101.679 319.598 103.048 321.936 103.659 321.804C104.27 321.672 105.51 318.787 105.51 318.787C106.101 319.033 106.725 319.185 107.361 319.24C107.676 319.051 111.378 314.204 111.378 314.204Z" fill="#E48868"/>
<path d="M133.423 261.267C133.293 261.269 133.166 261.225 133.064 261.143C132.963 261.06 132.893 260.944 132.867 260.814L130.776 249.611C130.746 249.532 130.734 249.447 130.741 249.362C130.747 249.278 130.771 249.196 130.811 249.122C130.852 249.047 130.907 248.983 130.974 248.933C131.042 248.883 131.119 248.849 131.2 248.832C131.282 248.816 131.366 248.817 131.447 248.837C131.528 248.857 131.603 248.894 131.669 248.947C131.734 248.999 131.787 249.066 131.825 249.141C131.862 249.217 131.883 249.3 131.886 249.385L133.978 260.588C134.005 260.737 133.974 260.892 133.891 261.019C133.808 261.146 133.68 261.235 133.534 261.267H133.423Z" fill="#CFB199"/>
<path opacity="0.2" d="M348.03 359.675C402.984 330.181 365.608 252.974 340.052 218.057C318.22 188.23 304.712 116.355 305.516 76.6471C306.52 27.0117 209.54 10.5149 184.748 32.4751C159.955 54.4354 151.284 74.1328 124.5 80.6742C97.7153 87.2156 102.516 45.8614 59.8823 96.4553C17.2484 147.049 47.1935 191.219 63.9337 236.52C80.6738 281.822 74.3635 334.428 72.8937 366.179C71.4239 397.929 124.936 479.036 145.45 446.82C165.964 414.604 208.972 458.513 247.174 466.762C277.735 473.362 284.661 451.747 284.303 440.115C282.648 425.591 293.076 389.168 348.03 359.675Z" fill="url(#paint0_linear)"/>
<defs>
<linearGradient id="paint0_linear" x1="151.633" y1="37.0325" x2="257.169" y2="469.159" gradientUnits="userSpaceOnUse">
<stop stop-color="#2F69C2"/>
<stop offset="1" stop-color="#CB44B5"/>
</linearGradient>
</defs>
</svg>
