<svg width="95" height="341" viewBox="0 0 95 341" fill="none" xmlns="http://www.w3.org/2000/svg">
<path d="M33.1323 182.28C28.1532 194.199 25.7284 228.41 26.3763 231.993C27.0241 235.576 66.3944 320.425 66.3944 320.425L72.7062 316.219L50.9387 241.008L58.3426 182.28H33.1323Z" fill="#E48868"/>
<path d="M58.065 168.399C56.4176 170.285 45.4228 243.403 43.5533 249.494C41.6838 255.586 44.6269 298.416 38.1484 325.271H48.1252C48.1252 325.271 63.803 276.237 60.6934 256.887L79.5919 191.521L58.065 168.399Z" fill="#E48868"/>
<path d="M21.4526 172.492L36.39 138.696L48.3658 151.596L23.7849 180.941L21.4526 172.492Z" fill="#E48868"/>
<path d="M36.3903 138.696L38.8706 132.359C38.8706 132.359 35.7795 124.137 36.3718 121.817C36.9641 119.497 45.201 114.876 45.201 114.876L50.2727 130.304L42.6836 145.561L36.3903 138.696Z" fill="#ECE0D3"/>
<path d="M31.7625 184.94L79.5917 191.522C81.6754 184.708 84.1982 178.043 87.1437 171.568C92.9372 160.252 86.6994 134.169 86.6994 134.169L45.9779 128.285C45.9779 128.285 40.7212 144.599 31.7625 184.94Z" fill="#464473"/>
<path d="M28.4309 17.0714C28.4309 17.0714 36.1865 -4.80543 55.1961 1.47474C72.8359 7.30228 67.5606 24.8603 67.5606 24.8603L28.4309 17.0714Z" fill="#EFC33B"/>
<path d="M16.4178 12.9787C19.9717 4.52984 82.9234 14.8646 83.053 26.7647C83.1826 38.6648 11.9755 23.6153 16.4178 12.9787Z" fill="#EFC33B"/>
<path d="M27.1536 24.3511C27.2697 27.2875 27.7549 30.1967 28.5973 33.0074C29.4303 36.006 30.5594 38.4765 29.6524 41.7014C28.7373 43.8271 27.9462 46.006 27.2831 48.2267C27.1155 49.2875 27.1672 50.3722 27.4349 51.4115C27.7027 52.4507 28.1805 53.4215 28.838 54.2616C28.9146 53.1675 29.3225 52.1247 30.0055 51.2768C30.6884 50.429 31.6128 49.8179 32.651 49.528C34.7474 48.9871 36.9366 48.9355 39.0554 49.3771C41.1687 49.8283 43.3448 49.8858 45.4783 49.5468C47.6613 48.9432 49.5278 47.497 50.682 45.5149C51.8361 43.5328 52.1871 41.1705 51.6606 38.9291C50.6215 36.1262 48.8482 33.6671 46.5333 31.8193C43.8846 29.1221 40.8671 26.829 37.5746 25.0111C35.9661 24.2064 34.2173 23.7337 32.4288 23.6204C30.6403 23.5071 28.8475 23.7555 27.1536 24.3511Z" fill="#393762"/>
<path d="M67.5605 27.6887L28.4309 19.9375C29.0417 22.0498 31.7442 24.6901 34.7798 29.0278C35.6497 30.2536 34.6502 36.8167 35.1314 38.1558C35.6127 39.4948 36.8343 35.3457 37.2416 36.3641C38.9074 40.4377 39.0925 42.2483 40.4993 44.1719C42.6094 46.9254 48.1993 44.5868 50.8462 45.2281C54.9184 46.2087 53.0119 64.559 53.0119 64.559L69.356 45.096L63.2293 37.2505C65.5985 33.3089 67.0052 31.951 67.5605 27.6887Z" fill="#E48868"/>
<path d="M67.5605 24.8599L28.4309 17.0708C27.3782 19.3388 26.9374 21.8515 27.1537 24.3506L46.4038 25.6143C45.7287 27.0342 45.4659 28.6211 45.6462 30.1882C45.8266 31.7553 46.4427 33.2372 47.4219 34.4595C48.6052 35.509 49.6394 36.7214 50.4945 38.0617C51.5866 40.5134 50.1428 43.3047 48.8471 45.6055C47.5515 47.9064 45.9966 52.8665 47.4589 55.1297C48.1253 53.6398 50.1983 51.1126 51.8272 51.2635C53.4764 51.6566 55.169 51.8278 56.8619 51.7727C58.9951 51.217 60.8492 49.8725 62.0631 48.0007C63.3035 46.1464 64.8504 44.5255 66.635 43.2104C67.53 42.5906 68.6068 42.3029 69.6851 42.3956C70.7634 42.4883 71.7777 42.9557 72.5581 43.7196C74.15 38.0617 70.9293 29.4428 67.5605 24.8599Z" fill="#393762"/>
<path d="M86.6996 134.245C86.6996 134.245 93.4557 102.938 93.8629 101.165C95.3807 94.5834 92.9374 76.6481 92.4932 72.3671C92.049 68.086 81.5909 51.9801 78.9255 51.0749C75.5729 49.3952 72.3708 47.42 69.356 45.1719L53.382 59.3164C53.382 59.3164 48.4399 66.7093 42.4428 74.8565C36.4456 83.0037 30.2078 90.2834 40.4252 101.26L45.5339 129.775L86.6996 134.245Z" fill="#ECE0D3"/>
<path d="M50.3278 98.411L48.4768 113.743C48.4768 113.743 22.7297 100.693 20.7122 99.8255C15.8745 97.7028 11.2862 95.0332 7.03343 91.8669C5.88582 90.8862 2.72065 81.1927 2.48002 80.2686C2.23939 79.3445 9.4397 79.3256 9.4397 79.3256L7.81084 71.2728C7.81084 71.2728 10.6984 70.839 11.1056 71.4803C11.5128 72.1215 14.9741 79.6651 16.3809 81.1361C17.7876 82.6071 18.3984 89.981 18.3984 89.981L50.3278 98.411Z" fill="#E48868"/>
<path d="M9.43972 79.3267L7.81086 71.2734L4.90484 57.4678L-0.000244141 58.9954L5.2195 79.4964L9.43972 79.3267Z" fill="#393762"/>
<path d="M56.473 100.298L52.4564 99.4113C52.3832 99.3981 52.3134 99.3696 52.2516 99.3276C52.1898 99.2856 52.1372 99.2309 52.0971 99.1671C52.0571 99.1033 52.0305 99.0317 52.0191 98.9568C52.0076 98.882 52.0116 98.8055 52.0307 98.7323C52.0619 98.5833 52.149 98.4525 52.2735 98.368C52.398 98.2834 52.5499 98.2518 52.697 98.2797L55.7881 98.9586C55.838 98.3032 56.0603 97.6736 56.4316 97.136C56.803 96.5983 57.3096 96.1726 57.8983 95.9034C59.2511 95.4129 60.7286 95.4129 62.0815 95.9034C63.0995 96.1675 65.7834 96.5635 67.4493 96.7521C66.837 87.7369 66.9485 78.6858 67.7825 69.6891C68.0671 66.8115 68.7785 63.9946 69.8926 61.3345C71.0528 58.5476 73.1911 56.3017 75.8898 55.0355C75.9578 55.007 76.0307 54.9925 76.1043 54.9927C76.1779 54.9929 76.2507 55.0079 76.3186 55.0368C76.3865 55.0657 76.4481 55.1079 76.5 55.1611C76.5519 55.2143 76.593 55.2773 76.6209 55.3467C76.6489 55.416 76.6631 55.4903 76.6629 55.5652C76.6627 55.6402 76.648 55.7144 76.6196 55.7836C76.5913 55.8527 76.5498 55.9156 76.4976 55.9684C76.4454 56.0213 76.3836 56.0631 76.3155 56.0916C73.8944 57.233 71.9751 59.249 70.9291 61.7494C69.8541 64.3054 69.1736 67.0154 68.9116 69.7834C68.0519 78.918 67.959 88.1106 68.6339 97.2613V97.9402H67.9491C65.8598 97.7485 63.7833 97.4337 61.7298 96.9973C60.615 96.6021 59.4018 96.6021 58.287 96.9973C57.38 97.431 56.5841 98.5815 56.9172 99.4867C56.9282 99.53 56.9282 99.5754 56.9172 99.6187L55.8437 99.9582C55.8739 100.021 55.9181 100.076 55.9727 100.118C56.0273 100.161 56.0908 100.19 56.1583 100.203C56.2378 100.225 56.3218 100.219 56.3983 100.189C56.4748 100.158 56.5398 100.104 56.5841 100.034L56.473 100.298Z" fill="#CFB199"/>
<path d="M68.6525 122.363C63.4445 122.363 58.2788 121.411 53.4004 119.553H53.2339L53.1413 119.421C52.4876 118.458 52.0398 117.366 51.8271 116.215L49.3838 115.385C49.2419 115.334 49.1245 115.229 49.0557 115.092C48.987 114.955 48.9719 114.797 49.0136 114.65C49.064 114.505 49.1679 114.387 49.3028 114.32C49.4378 114.253 49.5931 114.243 49.7355 114.291L52.8451 115.347V115.743C53.0014 116.742 53.3814 117.691 53.9557 118.516C61.9469 121.572 70.6731 122.02 78.9254 119.798C78.9971 119.779 79.072 119.774 79.1456 119.784C79.2192 119.794 79.2901 119.82 79.3539 119.858C79.4178 119.897 79.4734 119.948 79.5174 120.009C79.5614 120.07 79.593 120.14 79.6102 120.213C79.6326 120.285 79.6402 120.361 79.6325 120.436C79.6248 120.511 79.6019 120.583 79.5654 120.649C79.5289 120.714 79.4796 120.771 79.4204 120.816C79.3612 120.862 79.2935 120.894 79.2215 120.911C75.7794 121.881 72.2238 122.37 68.6525 122.363Z" fill="#CFB199"/>
<path d="M42.739 269.184C42.59 269.184 42.4468 269.125 42.3397 269.019C42.2326 268.914 42.17 268.77 42.1652 268.618C41.9431 258.226 42.5354 235.614 43.0352 230.899C43.683 224.789 50.2725 191.162 50.5502 189.748C50.5814 189.599 50.6686 189.468 50.793 189.383C50.9175 189.299 51.0695 189.267 51.2165 189.295C51.2914 189.306 51.3632 189.333 51.4272 189.374C51.4911 189.415 51.5459 189.469 51.5878 189.533C51.6298 189.597 51.658 189.67 51.6705 189.746C51.6831 189.822 51.6798 189.899 51.6608 189.974C51.6608 190.313 44.8121 224.958 44.1643 231.012C43.6645 235.765 43.0907 258.302 43.3128 268.637C43.3131 268.791 43.2558 268.939 43.1526 269.051C43.0494 269.163 42.9081 269.231 42.7575 269.24L42.739 269.184Z" fill="#BA745D"/>
<path d="M56.1955 295.889H56.1029C55.9532 295.861 55.8204 295.774 55.7336 295.647C55.6468 295.52 55.6132 295.363 55.6402 295.21C56.1214 292.475 56.8248 289.118 57.4912 285.78C58.1575 282.442 58.8424 279.161 59.3422 276.445C59.3735 276.295 59.4599 276.162 59.5837 276.075C59.7075 275.987 59.8594 275.951 60.0085 275.973C60.1548 276.005 60.2831 276.094 60.3661 276.221C60.4491 276.348 60.4802 276.502 60.4528 276.652C59.9715 279.387 59.2866 282.744 58.6018 286.082C57.9169 289.42 57.232 292.702 56.7508 295.512C56.7136 295.629 56.6385 295.731 56.5377 295.799C56.4368 295.868 56.3162 295.899 56.1955 295.889Z" fill="#BA745D"/>
<path d="M66.3941 320.424L68.1896 326.61L65.2465 337.002L61.5076 341H68.1896L74.0757 332.608L76.0377 335.606L78.7956 333.4L72.7059 316.219L66.3941 320.424Z" fill="#ECE0D3"/>
<path d="M48.1067 325.178L45.8115 341H41.4988V335.814L34.8167 341H25.0066L34.0393 335.003L38.1485 325.178H48.1067Z" fill="#ECE0D3"/>
<path d="M66.6345 17.5056H66.4864C55.7845 14.5879 44.9175 12.3394 33.9463 10.7727C33.8731 10.7634 33.8024 10.7394 33.7385 10.702C33.6745 10.6646 33.6185 10.6146 33.5737 10.5549C33.5289 10.4952 33.4962 10.427 33.4775 10.3543C33.4589 10.2816 33.4546 10.2059 33.465 10.1315C33.4712 10.0539 33.4936 9.97855 33.5307 9.91049C33.5677 9.84243 33.6186 9.78321 33.6799 9.73679C33.7413 9.69037 33.8116 9.65783 33.8863 9.64133C33.9609 9.62483 34.0382 9.62476 34.1129 9.64112C45.076 11.2112 55.9362 13.4533 66.6345 16.3551C66.7793 16.3991 66.9021 16.4979 66.9778 16.6311C67.0535 16.7643 67.0764 16.922 67.0417 17.0718C67.0187 17.1749 66.9686 17.2696 66.8969 17.346C66.8252 17.4224 66.7345 17.4775 66.6345 17.5056Z" fill="#E8A12B"/>
<path d="M23.3774 182.204C23.3774 182.204 25.4135 176.112 25.0433 174.453C24.6731 172.793 21.4524 172.567 21.4524 172.567C19.6131 172.866 17.7388 172.866 15.8995 172.567C14.6963 171.982 10.7352 172.152 10.6242 172.963C10.5131 173.774 13.4932 174.849 13.4932 174.849L3.94212 187.372C2.42431 189.257 4.23827 189.257 4.94165 189.446C5.64502 189.635 10.1984 185.448 10.1984 185.448C10.1984 185.448 11.2535 187.598 11.8273 187.598H13.6783C13.6783 187.598 15.048 189.936 15.6588 189.804C16.2697 189.672 17.5098 186.787 17.5098 186.787C18.1007 187.033 18.7249 187.185 19.3608 187.24C19.6755 187.051 23.3774 182.204 23.3774 182.204Z" fill="#E48868"/>
<path d="M45.4226 129.267C45.2926 129.269 45.1659 129.225 45.0645 129.143C44.963 129.06 44.8932 128.944 44.8673 128.814L42.7757 117.611C42.7464 117.532 42.7344 117.447 42.7406 117.362C42.7467 117.278 42.7708 117.196 42.8112 117.122C42.8516 117.047 42.9073 116.983 42.9745 116.933C43.0417 116.883 43.1187 116.849 43.2003 116.832C43.2818 116.816 43.366 116.817 43.4469 116.837C43.5277 116.857 43.6034 116.894 43.6687 116.947C43.7339 116.999 43.7872 117.066 43.8248 117.141C43.8623 117.217 43.8833 117.3 43.8863 117.385L45.9778 128.588C46.0053 128.737 45.9742 128.892 45.8912 129.019C45.8082 129.146 45.6799 129.235 45.5336 129.267H45.4226Z" fill="#CFB199"/>
</svg>
