<svg width="168" height="355" viewBox="0 0 168 355" fill="none" xmlns="http://www.w3.org/2000/svg">
<path d="M22.8078 64.6334L39.1492 43.1907C39.1492 43.1907 47.1597 44.7776 52.1262 40.9732C57.0927 37.1688 57.4532 27.8919 57.4532 27.8919C57.7135 26.3661 55.0901 30.1908 55.0901 30.1908C55.0901 30.1908 56.4519 25.3489 52.687 26.3661C48.922 27.3833 51.6856 20.7715 48.1811 22.0531C44.6765 23.3348 45.4174 18.9812 43.1745 19.4898C40.9316 19.9984 40.6111 23.5586 38.3482 26.122C36.3903 28.8945 34.7887 31.9094 33.5819 35.0937C33.5819 35.0937 1.8003 63.4738 0.298336 67.2985C-1.20363 71.1232 3.30227 79.7695 6.30621 80.7867C9.31014 81.8039 31.1387 79.2609 31.1387 79.2609L22.8078 64.6334Z" fill="#E48868"/>
<path d="M44.4761 25.8172L57.4731 19.4497L59.7761 34.1784L47.2197 40.9731L44.4761 25.8172Z" fill="#393762"/>
<path d="M116.15 94.8032C116.15 94.8032 119.895 118.748 120.896 122.817C121.897 126.886 131.169 173.372 131.169 173.372L122.158 175.162L105.075 125.869L103.333 99.7265L116.15 94.8032Z" fill="#E48868"/>
<path d="M103.033 240.609C103.033 240.609 103.033 261.706 99.0278 277.228C97.5058 283.189 84.3286 336.43 84.3286 336.43H75.6372L83.9681 237.456L103.033 240.609Z" fill="#E48868"/>
<path d="M59.7762 240.609C58.2387 253.438 56.0124 266.171 53.1075 278.754C51.5855 284.714 41.0918 336.591 41.0918 336.591H32.3804C32.3804 336.591 33.8223 292.364 35.4043 276.048C36.2655 266.974 40.7113 237.618 40.7113 237.618L59.7762 240.609Z" fill="#E48868"/>
<path d="M110.603 164.827C110.603 164.827 112.285 188.589 112.946 198.435C113.607 208.282 107.939 245.634 107.939 245.634H77.6796L75.677 199.615L63.1806 245.634H33.3816L42.7539 170.36C42.7539 170.36 83.8677 158.093 110.603 164.827Z" fill="#4E587F"/>
<path d="M110.603 164.826L42.7537 170.319V87.7226L27.714 89.757L22.8076 64.6321C22.8076 64.6321 53.1073 50.493 57.1125 49.4554C61.1178 48.4179 73.1335 47.7669 78.841 47.421C84.5485 47.0752 113.286 60.665 115.289 63.1063C117.291 65.5476 127.645 93.3375 127.645 93.3375L105.916 102.492L110.603 164.826Z" fill="#EFC33B"/>
<path d="M97.7657 144.077C97.8754 144.072 97.9822 144.04 98.0766 143.983C98.171 143.927 98.25 143.847 98.3064 143.751C98.3444 143.679 98.3677 143.6 98.3752 143.519C98.3826 143.438 98.3739 143.356 98.3496 143.278C98.3254 143.2 98.286 143.128 98.2339 143.066C98.1817 143.004 98.1179 142.954 98.0461 142.917C79.0448 132.555 64.0899 115.921 55.6506 95.7598C55.5884 95.6069 55.4696 95.485 55.3197 95.4204C55.1699 95.3557 55.001 95.3534 54.8496 95.4139C54.7013 95.4849 54.5854 95.611 54.5258 95.7661C54.4662 95.9213 54.4674 96.0938 54.5291 96.248C63.0698 116.672 78.2168 133.524 97.4653 144.016C97.5606 144.055 97.6626 144.076 97.7657 144.077Z" fill="#E8A12B"/>
<path d="M77.1391 152.214C77.279 152.216 77.4147 152.165 77.5196 152.071C77.5772 152.015 77.6229 151.946 77.6541 151.871C77.6853 151.796 77.7014 151.716 77.7014 151.634C77.7014 151.552 77.6853 151.472 77.6541 151.397C77.6229 151.321 77.5772 151.253 77.5196 151.197C69.7294 140.903 64.082 132.277 60.3572 120.803C60.2985 120.65 60.1857 120.526 60.041 120.454C59.8963 120.383 59.7303 120.369 59.5761 120.416C59.4988 120.441 59.4272 120.482 59.3658 120.536C59.3044 120.59 59.2545 120.656 59.2189 120.73C59.1833 120.804 59.1629 120.885 59.1589 120.967C59.1549 121.05 59.1674 121.132 59.1956 121.21C62.9806 132.785 68.6881 141.554 76.6585 151.97C76.7145 152.045 76.787 152.107 76.8705 152.149C76.9539 152.192 77.0459 152.214 77.1391 152.214Z" fill="#E8A12B"/>
<path d="M105.236 97.6926C105.316 97.6875 105.395 97.6659 105.468 97.6291C105.54 97.5923 105.604 97.541 105.657 97.4782C105.709 97.4155 105.749 97.3427 105.773 97.2642C105.797 97.1857 105.805 97.103 105.796 97.0212C105.041 87.688 107.139 78.3453 111.804 70.2686C111.859 70.1978 111.899 70.1158 111.92 70.0282C111.941 69.9406 111.944 69.8494 111.927 69.7608C111.911 69.6721 111.876 69.5881 111.824 69.5144C111.773 69.4406 111.707 69.3789 111.63 69.3333C111.554 69.2878 111.468 69.2595 111.38 69.2503C111.292 69.2412 111.203 69.2514 111.118 69.2802C111.034 69.3091 110.957 69.356 110.892 69.4177C110.828 69.4794 110.777 69.5545 110.743 69.6379C105.924 77.9268 103.748 87.5278 104.515 97.1229C104.522 97.2098 104.547 97.2942 104.588 97.3709C104.628 97.4476 104.684 97.5148 104.752 97.5683C104.82 97.6218 104.898 97.6605 104.981 97.6819C105.064 97.7033 105.151 97.7069 105.236 97.6926Z" fill="#E8A12B"/>
<path d="M84.3082 336.51L82.646 347.943L91.6578 354.067H70.9106L75.6368 336.51H84.3082Z" fill="#ECE0D3"/>
<path d="M41.0516 336.51L39.4095 354.067H18.0215L31.0586 347.781L32.4003 336.51H41.0516Z" fill="#ECE0D3"/>
<path d="M83.9479 34.1777V48.7236C83.9479 48.7236 72.3727 61.1538 61.7588 49.0084L62.7 34.1777H83.9479Z" fill="#E48868"/>
<path d="M72.9735 0.407698C85.4098 0.794233 87.1922 14.8519 86.9919 26.692C86.7916 38.5322 81.6649 46.3443 73.7746 47.0359C65.8842 47.7276 60.1567 39.6308 57.7536 28.7264C55.3505 17.8221 53.0474 -0.182275 72.9735 0.407698Z" fill="#E48868"/>
<path d="M85.2295 23.6808C85.2295 23.6808 85.2295 18.8593 89.2348 20.0596C93.24 21.2599 89.6153 32.51 85.2295 31.6962C80.8437 30.8825 85.2295 23.6808 85.2295 23.6808Z" fill="#E48868"/>
<path d="M60.0766 27.0778C60.0766 27.0778 59.4558 22.2968 55.7109 24.0058C51.966 25.7147 56.8925 36.3754 61.098 35.0123C65.3035 33.6492 60.0766 27.0778 60.0766 27.0778Z" fill="#E48868"/>
<path d="M72.9536 47.5845H73.8147C75.5781 47.4506 77.2944 46.9434 78.8533 46.0955C80.4122 45.2476 81.7792 44.0778 82.8666 42.6612C82.9388 42.5304 82.9627 42.3777 82.9341 42.2306C82.9055 42.0834 82.8261 41.9515 82.7104 41.8584C82.5946 41.7653 82.45 41.7171 82.3025 41.7226C82.1549 41.728 82.0141 41.7867 81.9053 41.8882C80.9226 43.1665 79.6886 44.2229 78.2818 44.99C76.8751 45.7571 75.3264 46.218 73.7346 46.3435C72.0171 46.4363 70.3023 46.1162 68.7295 45.4092C67.1567 44.7022 65.7702 43.6283 64.6828 42.2747C64.6268 42.2163 64.5598 42.1698 64.4859 42.1381C64.4119 42.1064 64.3325 42.09 64.2522 42.09C64.1719 42.09 64.0925 42.1064 64.0185 42.1381C63.9446 42.1698 63.8776 42.2163 63.8216 42.2747C63.7615 42.33 63.7134 42.3975 63.6805 42.4728C63.6476 42.5482 63.6306 42.6297 63.6306 42.7121C63.6306 42.7945 63.6476 42.876 63.6805 42.9513C63.7134 43.0267 63.7615 43.0942 63.8216 43.1495C64.9493 44.5017 66.3461 45.5961 67.9201 46.3605C69.494 47.1249 71.2095 47.542 72.9536 47.5845Z" fill="#BA745D"/>
<path d="M52.0662 40.9731C58.4947 38.0436 52.667 32.5914 52.0662 31.7369C51.4655 30.8824 49.623 40.9731 49.623 40.9731H52.0662Z" fill="#E48868"/>
<path d="M119.434 185.355C124.401 182.73 134.614 186.27 135.856 188.081C137.097 189.891 138.399 212.127 138.619 217.62H136.977C137.258 217.071 136.557 189.138 132.972 187.47C129.387 185.802 120.656 186.189 119.454 186.758C118.253 187.328 113.306 215.24 113.306 215.24L110.843 215.118C110.843 215.118 116.751 186.758 119.434 185.355Z" fill="#B77053"/>
<path d="M146.229 215.748L104.675 213.49L97.906 275.722L146.89 279.506L146.229 215.748Z" fill="#ECE0D3"/>
<path d="M119.054 187.409C123.059 183.483 133.893 184.032 135.576 185.375C137.258 186.718 141.904 200.389 143.586 205.577L142.024 206.126C142.144 205.516 136.517 186.189 132.672 185.639C128.827 185.09 120.476 187.857 119.474 188.732C118.473 189.606 118.693 210.541 118.693 210.541L116.29 211.11C116.29 211.11 116.871 189.505 119.054 187.409Z" fill="#ECE0D3"/>
<path d="M129.408 164.624C129.408 164.624 133.813 183.178 134.695 186.107C135.576 189.037 134.695 190.542 132.031 189.159C129.368 187.776 129.928 191.397 127.725 189.871C125.523 188.345 125.482 192.231 123.72 191.173C121.117 189.586 121.037 191.01 119.835 190.766C118.634 190.522 119.435 185.355 119.435 185.355C119.435 185.355 113.006 186.596 121.437 176.688C123.44 174.45 115.089 155.103 115.089 155.103L129.408 164.624Z" fill="#E48868"/>
<path d="M150.395 201.71L110.082 209.929L124.04 274.257L167.998 264.452L150.395 201.71Z" fill="#EFC33B"/>
<path d="M110.082 209.93L113.567 275.763L118.573 273.159L124.04 274.258L118.193 231.433L110.082 209.93Z" fill="#EFC33B"/>
<path d="M123.6 271.633H123.74C123.818 271.616 123.892 271.584 123.957 271.538C124.023 271.492 124.078 271.433 124.121 271.365C124.164 271.297 124.193 271.221 124.207 271.141C124.22 271.061 124.218 270.98 124.201 270.901L112.185 213.938L110.983 214.121L116.15 260.607C116.175 260.769 116.259 260.915 116.385 261.017C116.511 261.119 116.67 261.168 116.831 261.156C116.912 261.149 116.991 261.125 117.062 261.085C117.134 261.046 117.197 260.993 117.247 260.928C117.298 260.863 117.335 260.789 117.356 260.709C117.378 260.63 117.383 260.546 117.372 260.464L113.627 226.327L123.039 271.084C123.057 271.227 123.122 271.359 123.224 271.459C123.326 271.559 123.459 271.621 123.6 271.633Z" fill="#E8A12B"/>
<path d="M110.142 183.442C110.266 183.444 110.387 183.408 110.491 183.339C110.594 183.27 110.675 183.171 110.723 183.055C110.752 182.978 110.766 182.895 110.763 182.812C110.761 182.73 110.742 182.648 110.709 182.573C110.675 182.497 110.628 182.429 110.568 182.372C110.509 182.315 110.439 182.271 110.363 182.242C108.546 181.464 107.052 180.069 106.137 178.295C105.306 176.409 104.798 174.393 104.635 172.334L103.954 167.085C103.944 167.002 103.918 166.922 103.878 166.849C103.837 166.777 103.782 166.713 103.717 166.662C103.652 166.61 103.577 166.573 103.498 166.552C103.418 166.53 103.335 166.525 103.253 166.536C103.094 166.566 102.952 166.656 102.855 166.788C102.759 166.92 102.715 167.085 102.733 167.248L103.434 172.497C103.594 174.699 104.137 176.854 105.036 178.864C106.117 180.936 107.893 182.546 110.042 183.401L110.142 183.442Z" fill="#454F78"/>
<path d="M43.5151 187.877H43.6753C45.3316 187.359 46.8538 186.473 48.1319 185.284C49.4099 184.095 50.4117 182.632 51.065 181.001C52.3217 177.856 53.1049 174.537 53.388 171.155C53.4054 170.993 53.361 170.832 53.2641 170.703C53.1671 170.574 53.025 170.488 52.8673 170.463C52.7869 170.448 52.7043 170.451 52.6248 170.47C52.5452 170.489 52.4704 170.524 52.4047 170.574C52.3391 170.624 52.2842 170.686 52.2432 170.758C52.2022 170.83 52.1761 170.909 52.1664 170.992C51.8947 174.247 51.1454 177.442 49.9435 180.472C49.3595 181.919 48.4677 183.216 47.3321 184.271C46.1965 185.326 44.8451 186.113 43.3749 186.575C43.2161 186.614 43.0787 186.715 42.9925 186.856C42.9063 186.997 42.8782 187.166 42.9143 187.328C42.9371 187.476 43.0093 187.611 43.1187 187.711C43.2281 187.811 43.3681 187.87 43.5151 187.877Z" fill="#454F78"/>
<path d="M74.9961 194.408L76.0976 193.533C78.3205 191.763 78.6209 188.651 78.721 185.884L79.2817 170.809C79.2821 170.643 79.2201 170.484 79.1084 170.363C78.9968 170.242 78.8439 170.169 78.6809 170.158C78.5216 170.158 78.3688 170.223 78.2561 170.337C78.1435 170.451 78.0802 170.607 78.0802 170.769L77.5194 185.823C77.5773 187.655 77.2282 189.477 76.4981 191.153C76.8361 184.508 76.7424 177.848 76.2177 171.216C76.2154 171.132 76.1961 171.05 76.161 170.974C76.1259 170.898 76.0758 170.83 76.0137 170.775C75.9517 170.72 75.8792 170.678 75.8006 170.652C75.7219 170.627 75.639 170.618 75.5568 170.626C75.3957 170.642 75.2468 170.721 75.1421 170.846C75.0373 170.971 74.9849 171.133 74.9961 171.297C75.5793 178.512 75.6262 185.762 75.1363 192.984L74.9961 194.408Z" fill="#454F78"/>
<path d="M41.1717 243.151C47.6002 243.151 54.0686 242.886 60.457 242.378C60.6182 242.362 60.767 242.284 60.8718 242.158C60.9765 242.033 61.0289 241.871 61.0177 241.707C60.9978 241.545 60.9188 241.397 60.7965 241.291C60.6741 241.186 60.5172 241.131 60.3569 241.137C52.8671 241.747 45.2371 241.991 37.7472 241.89C37.6578 241.873 37.5658 241.877 37.4779 241.9C37.39 241.924 37.3082 241.967 37.2384 242.026C37.1686 242.085 37.1124 242.159 37.0739 242.243C37.0354 242.327 37.0154 242.418 37.0154 242.51C37.0154 242.603 37.0354 242.694 37.0739 242.777C37.1124 242.861 37.1686 242.935 37.2384 242.994C37.3082 243.053 37.39 243.096 37.4779 243.12C37.5658 243.143 37.6578 243.147 37.7472 243.131L41.1717 243.151Z" fill="#454F78"/>
<path d="M88.1135 243.091C92.1187 243.091 96.124 242.888 99.989 242.501C100.152 242.481 100.301 242.398 100.405 242.269C100.509 242.14 100.561 241.976 100.55 241.809C100.542 241.727 100.519 241.647 100.48 241.574C100.441 241.502 100.389 241.438 100.325 241.386C100.261 241.335 100.188 241.297 100.11 241.275C100.031 241.254 99.9494 241.248 99.8689 241.26C93.2862 241.911 86.662 242.013 80.0629 241.565C79.9834 241.557 79.9031 241.565 79.8269 241.589C79.7507 241.614 79.6803 241.654 79.6202 241.708C79.56 241.761 79.5114 241.827 79.4773 241.9C79.4432 241.974 79.4244 242.054 79.4221 242.135C79.4138 242.217 79.4219 242.299 79.4459 242.378C79.4699 242.456 79.5093 242.529 79.5616 242.592C79.614 242.655 79.6783 242.706 79.7507 242.743C79.8231 242.78 79.902 242.801 79.9828 242.806C82.6663 242.99 85.3899 243.091 88.1135 243.091Z" fill="#454F78"/>
<path d="M73.3139 0.0407036C83.4872 0.630699 86.8516 10.213 86.8516 20.1412C85.9814 21.8977 85.5743 23.8534 85.6701 25.8174L83.9478 26.3667L83.287 17.5168C83.287 17.5168 79.7223 16.703 80.6235 10.3554C80.6235 10.3554 70.0296 13.7734 62.5999 11.5965C62.5999 11.5965 63.7814 17.3744 59.616 18.9206L59.9564 26.3667H58.6147C58.6147 26.3667 58.2141 24.1491 56.8924 23.6405C54.5694 13.2037 55.7309 -0.854462 73.3139 0.0407036Z" fill="#BA745D"/>
</svg>
