<svg width="477" height="531" viewBox="0 0 477 531" fill="none" xmlns="http://www.w3.org/2000/svg">
<path d="M206.617 202.333L212.648 188.494C212.648 188.494 217.795 189.899 220.047 187.701C220.911 186.866 221.756 182.43 222.198 176.915L222.318 174.88C222.318 174.168 225.193 176.081 225.214 175.348C225.214 173.863 222.479 169.691 222.459 168.185C222.339 161.205 221.333 154.449 218.76 151.905C212.869 146.105 192.262 145.19 189.387 155.365C187.928 160.541 187.907 166.024 189.325 171.211C190.744 176.399 193.548 181.091 197.429 184.77L191.86 199.138L206.617 202.333Z" fill="#E48868"/>
<path d="M221.655 149.465C226.52 154.044 228.973 158.582 227.526 165.155L214.98 165.867C211.269 172.513 208.923 179.85 208.085 187.438C206.839 180.469 207.058 173.313 208.728 166.437C208.168 166.046 207.532 165.781 206.863 165.659C206.194 165.538 205.507 165.563 204.848 165.732C204.189 165.902 203.574 166.213 203.043 166.643C202.512 167.073 202.079 167.613 201.772 168.227C201.534 168.871 201.435 169.559 201.481 170.244C201.527 170.93 201.717 171.597 202.039 172.202C202.361 172.807 202.806 173.336 203.346 173.752C203.886 174.169 204.508 174.464 205.169 174.617C202.797 178.301 199.138 185.647 196.725 189.351C196.162 190.205 197.711 189.106 196.725 189.351C195.74 189.595 194.454 187.641 193.569 186.949C178.028 175.187 181.627 146.738 202.757 143.482C207.803 142.709 213.834 142.851 221.655 149.465Z" fill="#EFC33B"/>
<path d="M238.121 483.488L237.397 490.244C237.397 490.244 252.636 495.88 252.656 497.183H227.747L230.119 483.488H238.121Z" fill="#4E587F"/>
<path d="M130.923 458.334L125.475 462.648C125.475 462.648 129.676 479.03 128.731 479.966L115 459.86L126.52 451.883L130.923 458.334Z" fill="#4E587F"/>
<path d="M205.712 378.298C205.712 378.298 197.67 412.425 196.685 413.727C195.7 415.03 130.521 460.613 130.521 460.613L123.726 453.043L173.726 396.308L174.349 328.299L205.712 378.298Z" fill="#96C4A8"/>
<path d="M227.968 291.486L224.067 312.263C224.067 312.263 232.27 372.356 232.592 377.158C232.914 381.961 239.99 484.809 239.99 484.809H228.068L203.762 387.13C203.762 387.13 162.929 331.493 167.272 312.059C169.704 300.668 176.043 290.517 185.165 283.407L227.968 291.486Z" fill="#96C4A8"/>
<path d="M167.553 298.425L229.154 304.021L220.971 276.508C220.971 276.508 227.988 253.554 229.596 246.553C232.25 235.035 232.25 235.035 224.671 220.913C217.091 206.79 217.895 207.604 217.895 207.604L220.288 200.644L193.569 186.949L191.196 196.472C191.196 196.472 180.521 211.124 177.726 216.415C174.932 221.706 173.826 273.964 174.208 278.401L167.553 298.425Z" fill="#ECE0D3"/>
<path d="M179.536 248.447C181.225 263.688 183.074 278.259 183.818 279.541C185.226 281.983 203.541 284.404 214.799 285.768C235.085 288.719 246.625 292.3 248.977 292.015C254.285 291.364 257.18 290.774 255.632 286.867C254.084 282.96 260.196 282.614 258.326 279.602C256.456 276.59 263.292 275.166 260.075 272.887C256.858 270.607 249.761 274.535 249.761 274.535C249.761 274.535 244.273 269.427 238.925 278.177C237.618 280.212 231.466 278.177 229.757 277.791C220.167 275.43 211.161 271.096 202.033 267.29L202.314 249.566C202.314 249.566 178.47 238.984 179.536 248.447Z" fill="#E48868"/>
<path d="M190.513 208.072C188.656 207.965 186.799 208.265 185.066 208.949C183.334 209.633 181.767 210.686 180.473 212.038C179.178 213.389 178.185 215.006 177.562 216.779C176.939 218.553 176.7 220.441 176.862 222.317C177.485 229.256 178.47 238.963 179.536 248.426C187.135 248.609 194.735 248.995 202.315 249.545L202.757 221.462C202.825 218.06 201.587 214.764 199.304 212.267C197.02 209.77 193.869 208.266 190.513 208.072Z" fill="#ECE0D3"/>
<path d="M232.893 288.494L238.905 301.864L235.889 301.457L230.903 288.494H232.893Z" fill="#EFC33B"/>
<path d="M261 302.292L189.789 290.693L172.318 382.45L252.275 397.041L261 302.292Z" fill="#393762"/>
<path d="M229.797 277.791C224.731 276.346 211.864 294.294 211.864 294.294L209.029 293.745C209.029 293.745 221.695 277.363 227.124 276C227.71 275.906 228.31 276.037 228.805 276.369C229.3 276.7 229.654 277.208 229.797 277.791Z" fill="#EFC33B"/>
<path d="M159.793 171.89C159.99 175.236 160.475 178.559 161.24 181.821C162.005 185.071 161.83 188.476 160.738 191.629C160.156 193.186 159.096 194.512 157.713 195.413C156.331 196.315 154.699 196.743 153.058 196.635C156.878 203.513 166.649 205.385 173.585 201.784C180.521 198.182 184.662 190.469 185.788 182.675C186.351 178.87 186.291 174.983 187.015 171.218C187.268 169.299 187.894 167.45 188.857 165.777C189.819 164.104 191.1 162.641 192.624 161.471C190.384 158.362 187.253 156.027 183.656 154.782C180.059 153.537 176.171 153.442 172.519 154.511C168.887 155.727 165.714 158.049 163.436 161.16C161.158 164.271 159.886 168.019 159.793 171.89Z" fill="#EFC33B"/>
<path d="M200.364 245.251C200.508 245.253 200.648 245.203 200.759 245.11C200.87 245.017 200.944 244.886 200.968 244.743C202.033 238.882 203.219 232.248 202.114 225.899C200.847 218.838 196.484 213.099 190.956 211.247C190.798 211.196 190.627 211.21 190.48 211.286C190.333 211.363 190.222 211.495 190.171 211.654C190.147 211.732 190.137 211.813 190.144 211.894C190.151 211.976 190.174 212.054 190.212 212.127C190.249 212.199 190.3 212.262 190.362 212.314C190.425 212.366 190.496 212.404 190.574 212.427C195.66 214.137 199.721 219.509 200.887 226.123C201.973 232.228 200.887 238.475 199.761 244.437C199.747 244.518 199.749 244.6 199.766 244.68C199.784 244.759 199.817 244.835 199.864 244.901C199.911 244.967 199.97 245.024 200.039 245.066C200.108 245.109 200.184 245.137 200.264 245.15L200.364 245.251Z" fill="#CFB199"/>
<path opacity="0.2" d="M313.733 99.4948C422.706 34.0459 456.606 228.526 399.057 278.044C310.404 345.181 370.741 384.512 323.616 455.48C287.537 509.815 261.235 430.023 138.872 439.27C16.5092 448.517 125.934 364.682 109.394 346.473C73.2565 306.688 148.848 297.926 162.554 277.994C171.87 264.257 146.343 217.725 133.066 157.094C119.788 96.4619 158.294 82.6804 180.059 83.6539C254.032 86.9622 221.506 154.886 313.733 99.4948Z" fill="url(#paint0_linear)"/>
<defs>
<linearGradient id="paint0_linear" x1="332.207" y1="69.277" x2="144.671" y2="460.905" gradientUnits="userSpaceOnUse">
<stop stop-color="#8630DC"/>
<stop offset="1" stop-color="#4489D9"/>
</linearGradient>
</defs>
</svg>
