<svg width="310" height="442" viewBox="0 0 310 442" fill="none" xmlns="http://www.w3.org/2000/svg">
<path d="M54.8078 151.633L71.1492 130.191C71.1492 130.191 79.1597 131.778 84.1262 127.973C89.0927 124.169 89.4532 114.892 89.4532 114.892C89.7135 113.366 87.0901 117.191 87.0901 117.191C87.0901 117.191 88.4519 112.349 84.687 113.366C80.922 114.383 83.6856 107.771 80.1811 109.053C76.6765 110.335 77.4174 105.981 75.1745 106.49C72.9316 106.998 72.6111 110.559 70.3482 113.122C68.3903 115.894 66.7887 118.909 65.5819 122.094C65.5819 122.094 33.8003 150.474 32.2983 154.299C30.7964 158.123 35.3023 166.769 38.3062 167.787C41.3101 168.804 63.1387 166.261 63.1387 166.261L54.8078 151.633Z" fill="#E48868"/>
<path d="M76.4761 112.817L89.4731 106.45L91.7761 121.178L79.2197 127.973L76.4761 112.817Z" fill="#393762"/>
<path d="M148.15 181.803C148.15 181.803 151.895 205.748 152.896 209.817C153.897 213.886 163.169 260.372 163.169 260.372L154.158 262.162L137.075 212.869L135.333 186.726L148.15 181.803Z" fill="#E48868"/>
<path d="M135.033 327.609C135.033 327.609 135.033 348.706 131.028 364.228C129.506 370.189 116.329 423.43 116.329 423.43H107.637L115.968 324.456L135.033 327.609Z" fill="#E48868"/>
<path d="M91.7762 327.609C90.2387 340.438 88.0124 353.171 85.1075 365.754C83.5855 371.714 73.0918 423.591 73.0918 423.591H64.3804C64.3804 423.591 65.8223 379.364 67.4043 363.048C68.2655 353.974 72.7113 324.618 72.7113 324.618L91.7762 327.609Z" fill="#E48868"/>
<path d="M142.603 251.827C142.603 251.827 144.285 275.589 144.946 285.435C145.607 295.282 139.939 332.634 139.939 332.634H109.68L107.677 286.615L95.1806 332.634H65.3816L74.7539 257.36C74.7539 257.36 115.868 245.093 142.603 251.827Z" fill="#4E587F"/>
<path d="M142.603 251.826L74.7537 257.319V174.723L59.714 176.757L54.8076 151.632C54.8076 151.632 85.1073 137.493 89.1125 136.455C93.1178 135.418 105.134 134.767 110.841 134.421C116.548 134.075 145.286 147.665 147.289 150.106C149.291 152.548 159.645 180.338 159.645 180.338L137.916 189.492L142.603 251.826Z" fill="#EFC33B"/>
<path d="M129.766 231.077C129.875 231.072 129.982 231.04 130.077 230.983C130.171 230.927 130.25 230.847 130.306 230.751C130.344 230.679 130.368 230.6 130.375 230.519C130.383 230.438 130.374 230.356 130.35 230.278C130.325 230.2 130.286 230.128 130.234 230.066C130.182 230.004 130.118 229.954 130.046 229.917C111.045 219.555 96.0899 202.921 87.6506 182.76C87.5884 182.607 87.4696 182.485 87.3197 182.42C87.1699 182.356 87.001 182.353 86.8496 182.414C86.7013 182.485 86.5854 182.611 86.5258 182.766C86.4662 182.921 86.4674 183.094 86.5291 183.248C95.0698 203.672 110.217 220.524 129.465 231.016C129.561 231.055 129.663 231.076 129.766 231.077Z" fill="#E8A12B"/>
<path d="M109.139 239.214C109.279 239.216 109.415 239.165 109.52 239.071C109.577 239.015 109.623 238.946 109.654 238.871C109.685 238.796 109.701 238.716 109.701 238.634C109.701 238.552 109.685 238.472 109.654 238.397C109.623 238.321 109.577 238.253 109.52 238.197C101.729 227.903 96.082 219.277 92.3572 207.803C92.2985 207.65 92.1857 207.526 92.041 207.454C91.8963 207.383 91.7303 207.369 91.5761 207.416C91.4988 207.441 91.4272 207.482 91.3658 207.536C91.3044 207.59 91.2545 207.656 91.2189 207.73C91.1833 207.804 91.1629 207.885 91.1589 207.967C91.1549 208.05 91.1674 208.132 91.1956 208.21C94.9806 219.785 100.688 228.554 108.659 238.97C108.714 239.045 108.787 239.107 108.87 239.149C108.954 239.192 109.046 239.214 109.139 239.214Z" fill="#E8A12B"/>
<path d="M137.236 184.693C137.316 184.687 137.395 184.666 137.468 184.629C137.54 184.592 137.604 184.541 137.657 184.478C137.709 184.416 137.749 184.343 137.773 184.264C137.797 184.186 137.805 184.103 137.796 184.021C137.041 174.688 139.139 165.345 143.804 157.269C143.859 157.198 143.899 157.116 143.92 157.028C143.941 156.941 143.944 156.849 143.927 156.761C143.911 156.672 143.876 156.588 143.824 156.514C143.773 156.441 143.707 156.379 143.63 156.333C143.554 156.288 143.468 156.259 143.38 156.25C143.292 156.241 143.203 156.251 143.118 156.28C143.034 156.309 142.957 156.356 142.892 156.418C142.828 156.479 142.777 156.554 142.743 156.638C137.924 164.927 135.748 174.528 136.515 184.123C136.522 184.21 136.547 184.294 136.588 184.371C136.628 184.448 136.684 184.515 136.752 184.568C136.82 184.622 136.898 184.661 136.981 184.682C137.064 184.703 137.151 184.707 137.236 184.693Z" fill="#E8A12B"/>
<path d="M116.308 423.51L114.646 434.943L123.658 441.067H102.911L107.637 423.51H116.308Z" fill="#ECE0D3"/>
<path d="M73.0516 423.51L71.4095 441.067H50.0215L63.0586 434.781L64.4003 423.51H73.0516Z" fill="#ECE0D3"/>
<path d="M115.948 121.178V135.724C115.948 135.724 104.373 148.154 93.7588 136.008L94.7 121.178H115.948Z" fill="#E48868"/>
<path d="M104.974 87.4077C117.41 87.7942 119.192 101.852 118.992 113.692C118.792 125.532 113.665 133.344 105.775 134.036C97.8842 134.728 92.1567 126.631 89.7536 115.726C87.3505 104.822 85.0474 86.8177 104.974 87.4077Z" fill="#E48868"/>
<path d="M117.23 110.681C117.23 110.681 117.23 105.859 121.235 107.06C125.24 108.26 121.615 119.51 117.23 118.696C112.844 117.882 117.23 110.681 117.23 110.681Z" fill="#E48868"/>
<path d="M92.0766 114.078C92.0766 114.078 91.4558 109.297 87.7109 111.006C83.966 112.715 88.8925 123.375 93.098 122.012C97.3035 120.649 92.0766 114.078 92.0766 114.078Z" fill="#E48868"/>
<path d="M104.954 134.584H105.815C107.578 134.451 109.294 133.943 110.853 133.096C112.412 132.248 113.779 131.078 114.867 129.661C114.939 129.53 114.963 129.378 114.934 129.231C114.905 129.083 114.826 128.951 114.71 128.858C114.595 128.765 114.45 128.717 114.302 128.723C114.155 128.728 114.014 128.787 113.905 128.888C112.923 130.167 111.689 131.223 110.282 131.99C108.875 132.757 107.326 133.218 105.735 133.343C104.017 133.436 102.302 133.116 100.73 132.409C99.1567 131.702 97.7702 130.628 96.6828 129.275C96.6268 129.216 96.5598 129.17 96.4859 129.138C96.4119 129.106 96.3325 129.09 96.2522 129.09C96.1719 129.09 96.0925 129.106 96.0185 129.138C95.9446 129.17 95.8776 129.216 95.8216 129.275C95.7615 129.33 95.7134 129.397 95.6805 129.473C95.6476 129.548 95.6306 129.63 95.6306 129.712C95.6306 129.795 95.6476 129.876 95.6805 129.951C95.7134 130.027 95.7615 130.094 95.8216 130.149C96.9493 131.502 98.3461 132.596 99.9201 133.36C101.494 134.125 103.21 134.542 104.954 134.584Z" fill="#BA745D"/>
<path d="M84.0662 127.973C90.4947 125.044 84.667 119.591 84.0662 118.737C83.4655 117.882 81.623 127.973 81.623 127.973H84.0662Z" fill="#E48868"/>
<path d="M151.434 272.355C156.401 269.73 166.614 273.27 167.856 275.081C169.097 276.891 170.399 299.127 170.619 304.62H168.977C169.258 304.071 168.557 276.138 164.972 274.47C161.387 272.802 152.656 273.189 151.454 273.758C150.253 274.328 145.306 302.24 145.306 302.24L142.843 302.118C142.843 302.118 148.751 273.758 151.434 272.355Z" fill="#B77053"/>
<path d="M178.229 302.748L136.675 300.49L129.906 362.722L178.89 366.506L178.229 302.748Z" fill="#ECE0D3"/>
<path d="M151.054 274.409C155.059 270.483 165.893 271.032 167.576 272.375C169.258 273.718 173.904 287.389 175.586 292.577L174.024 293.126C174.144 292.516 168.517 273.189 164.672 272.639C160.827 272.09 152.476 274.857 151.474 275.732C150.473 276.606 150.693 297.541 150.693 297.541L148.29 298.11C148.29 298.11 148.871 276.505 151.054 274.409Z" fill="#ECE0D3"/>
<path d="M161.408 251.624C161.408 251.624 165.813 270.178 166.695 273.107C167.576 276.037 166.695 277.542 164.031 276.159C161.368 274.776 161.928 278.397 159.725 276.871C157.523 275.345 157.482 279.231 155.72 278.173C153.117 276.586 153.037 278.01 151.835 277.766C150.634 277.522 151.435 272.355 151.435 272.355C151.435 272.355 145.006 273.596 153.437 263.688C155.44 261.45 147.089 242.103 147.089 242.103L161.408 251.624Z" fill="#E48868"/>
<path d="M182.395 288.71L142.082 296.929L156.04 361.257L199.998 351.452L182.395 288.71Z" fill="#EFC33B"/>
<path d="M142.082 296.93L145.567 362.763L150.573 360.159L156.04 361.258L150.193 318.433L142.082 296.93Z" fill="#EFC33B"/>
<path d="M155.6 358.633H155.74C155.818 358.616 155.892 358.584 155.957 358.538C156.023 358.492 156.078 358.433 156.121 358.365C156.164 358.297 156.193 358.221 156.207 358.141C156.22 358.061 156.218 357.98 156.201 357.901L144.185 300.938L142.983 301.121L148.15 347.607C148.175 347.769 148.259 347.915 148.385 348.017C148.511 348.119 148.67 348.168 148.831 348.156C148.912 348.149 148.991 348.125 149.062 348.085C149.134 348.046 149.197 347.993 149.247 347.928C149.298 347.863 149.335 347.789 149.356 347.709C149.378 347.63 149.383 347.546 149.372 347.464L145.627 313.327L155.039 358.084C155.057 358.227 155.122 358.359 155.224 358.459C155.326 358.559 155.459 358.621 155.6 358.633Z" fill="#E8A12B"/>
<path d="M142.142 270.442C142.266 270.444 142.387 270.408 142.491 270.339C142.594 270.27 142.675 270.171 142.723 270.055C142.752 269.978 142.766 269.895 142.763 269.812C142.761 269.73 142.742 269.648 142.709 269.573C142.675 269.497 142.628 269.429 142.568 269.372C142.509 269.315 142.439 269.271 142.363 269.242C140.546 268.464 139.052 267.069 138.137 265.295C137.306 263.409 136.798 261.393 136.635 259.334L135.954 254.085C135.944 254.002 135.918 253.922 135.878 253.849C135.837 253.777 135.782 253.713 135.717 253.662C135.652 253.61 135.577 253.573 135.498 253.552C135.418 253.53 135.335 253.525 135.253 253.536C135.094 253.566 134.952 253.656 134.855 253.788C134.759 253.92 134.715 254.085 134.733 254.248L135.434 259.497C135.594 261.699 136.137 263.854 137.036 265.864C138.117 267.936 139.893 269.546 142.042 270.401L142.142 270.442Z" fill="#454F78"/>
<path d="M75.5151 274.877H75.6753C77.3316 274.359 78.8538 273.473 80.1319 272.284C81.4099 271.095 82.4117 269.632 83.065 268.001C84.3217 264.856 85.1049 261.537 85.388 258.155C85.4054 257.993 85.361 257.832 85.2641 257.703C85.1671 257.574 85.025 257.488 84.8673 257.463C84.7869 257.448 84.7043 257.451 84.6248 257.47C84.5452 257.489 84.4704 257.524 84.4047 257.574C84.3391 257.624 84.2842 257.686 84.2432 257.758C84.2022 257.83 84.1761 257.909 84.1664 257.992C83.8947 261.247 83.1454 264.442 81.9435 267.472C81.3595 268.919 80.4677 270.216 79.3321 271.271C78.1965 272.326 76.8451 273.113 75.3749 273.575C75.2161 273.614 75.0787 273.715 74.9925 273.856C74.9063 273.997 74.8782 274.166 74.9143 274.328C74.9371 274.476 75.0093 274.611 75.1187 274.711C75.2281 274.811 75.3681 274.87 75.5151 274.877Z" fill="#454F78"/>
<path d="M106.996 281.408L108.098 280.533C110.32 278.763 110.621 275.651 110.721 272.884L111.282 257.809C111.282 257.643 111.22 257.484 111.108 257.363C110.997 257.242 110.844 257.169 110.681 257.158C110.522 257.158 110.369 257.223 110.256 257.337C110.143 257.451 110.08 257.607 110.08 257.769L109.519 272.823C109.577 274.655 109.228 276.477 108.498 278.153C108.836 271.508 108.742 264.848 108.218 258.216C108.215 258.132 108.196 258.05 108.161 257.974C108.126 257.898 108.076 257.83 108.014 257.775C107.952 257.72 107.879 257.678 107.801 257.652C107.722 257.627 107.639 257.618 107.557 257.626C107.396 257.642 107.247 257.721 107.142 257.846C107.037 257.971 106.985 258.133 106.996 258.297C107.579 265.512 107.626 272.762 107.136 279.984L106.996 281.408Z" fill="#454F78"/>
<path d="M73.1717 330.151C79.6002 330.151 86.0686 329.886 92.457 329.378C92.6182 329.362 92.767 329.284 92.8718 329.158C92.9765 329.033 93.0289 328.871 93.0177 328.707C92.9978 328.545 92.9188 328.397 92.7965 328.291C92.6741 328.186 92.5172 328.131 92.3569 328.137C84.8671 328.747 77.2371 328.991 69.7472 328.89C69.6578 328.873 69.5658 328.877 69.4779 328.9C69.39 328.924 69.3082 328.967 69.2384 329.026C69.1686 329.085 69.1124 329.159 69.0739 329.243C69.0354 329.327 69.0154 329.418 69.0154 329.51C69.0154 329.603 69.0354 329.694 69.0739 329.777C69.1124 329.861 69.1686 329.935 69.2384 329.994C69.3082 330.053 69.39 330.096 69.4779 330.12C69.5658 330.143 69.6578 330.147 69.7472 330.131L73.1717 330.151Z" fill="#454F78"/>
<path d="M120.113 330.091C124.119 330.091 128.124 329.888 131.989 329.501C132.152 329.481 132.301 329.398 132.405 329.269C132.509 329.14 132.561 328.976 132.55 328.809C132.542 328.727 132.519 328.647 132.48 328.574C132.441 328.502 132.389 328.438 132.325 328.386C132.261 328.335 132.188 328.297 132.11 328.275C132.031 328.254 131.949 328.248 131.869 328.26C125.286 328.911 118.662 329.013 112.063 328.565C111.983 328.557 111.903 328.565 111.827 328.589C111.751 328.614 111.68 328.654 111.62 328.708C111.56 328.761 111.511 328.827 111.477 328.9C111.443 328.974 111.424 329.054 111.422 329.135C111.414 329.217 111.422 329.299 111.446 329.378C111.47 329.456 111.509 329.529 111.562 329.592C111.614 329.655 111.678 329.706 111.751 329.743C111.823 329.78 111.902 329.801 111.983 329.806C114.666 329.99 117.39 330.091 120.113 330.091Z" fill="#454F78"/>
<path d="M105.314 87.0407C115.487 87.6307 118.852 97.213 118.852 107.141C117.981 108.898 117.574 110.853 117.67 112.817L115.948 113.367L115.287 104.517C115.287 104.517 111.722 103.703 112.623 97.3554C112.623 97.3554 102.03 100.773 94.5999 98.5965C94.5999 98.5965 95.7814 104.374 91.616 105.921L91.9564 113.367H90.6147C90.6147 113.367 90.2141 111.149 88.8924 110.641C86.5694 100.204 87.7309 86.1455 105.314 87.0407Z" fill="#BA745D"/>
<path opacity="0.2" d="M309.754 131.229C305.822 63.4765 259.305 22.8464 217.563 40.3018C192.711 50.6944 167.23 -28.4105 74.9429 11.1766C-0.306885 43.4555 -8.27539 141.912 5.60278 178.069C12.3805 203.144 80.1781 246.308 63.9115 294.186C47.645 342.063 69.7488 418.962 128.918 382.749C175.727 354.101 256.814 464.673 293.995 407.153C340.47 335.254 264.637 292.495 275.872 242.228C284.933 201.686 312.906 185.548 309.754 131.229Z" fill="url(#paint0_linear)"/>
<defs>
<linearGradient id="paint0_linear" x1="328.271" y1="114.697" x2="20.3939" y2="354.29" gradientUnits="userSpaceOnUse">
<stop stop-color="#37CAD4"/>
<stop offset="1" stop-color="#9E34DF"/>
</linearGradient>
</defs>
</svg>
