<svg width="409" height="507" viewBox="0 0 409 507" fill="none" xmlns="http://www.w3.org/2000/svg">
<path opacity="0.2" d="M348.03 359.675C402.984 330.181 365.608 252.974 340.052 218.057C318.22 188.23 304.712 116.355 305.516 76.6471C306.52 27.0117 209.54 10.5149 184.748 32.4751C159.955 54.4354 151.284 74.1328 124.5 80.6742C97.7153 87.2156 102.516 45.8614 59.8823 96.4553C17.2484 147.049 47.1935 191.219 63.9337 236.52C80.6738 281.822 74.3635 334.428 72.8937 366.179C71.4239 397.929 124.936 479.036 145.45 446.82C165.964 414.604 208.972 458.513 247.174 466.762C277.735 473.362 284.661 451.747 284.303 440.115C282.648 425.591 293.076 389.168 348.03 359.675Z" fill="url(#paint0_linear)"/>
<defs>
<linearGradient id="paint0_linear" x1="151.633" y1="37.0325" x2="257.169" y2="469.159" gradientUnits="userSpaceOnUse">
<stop stop-color="#2F69C2"/>
<stop offset="1" stop-color="#CB44B5"/>
</linearGradient>
</defs>
</svg>
