<?xml version="1.0" encoding="iso-8859-1"?>
<!-- Generator: Adobe Illustrator 21.0.0, SVG Export Plug-In . SVG Version: 6.00 Build 0)  -->
<svg version="1.1" id="&#x421;&#x43B;&#x43E;&#x439;_1"
	 xmlns="http://www.w3.org/2000/svg" xmlns:xlink="http://www.w3.org/1999/xlink" x="0px" y="0px" viewBox="0 0 750 1496"
	 style="enable-background:new 0 0 750 1496;" xml:space="preserve">
<g>
	
		<linearGradient id="SVGID_1_" gradientUnits="userSpaceOnUse" x1="374.8568" y1="597.4955" x2="1107.9567" y2="1619.2986" gradientTransform="matrix(1 0 0 -1 0 1495.28)">
		<stop  offset="0" style="stop-color:#5237F7"/>
		<stop  offset="1" style="stop-color:#F167C2"/>
	</linearGradient>
	<path style="fill:url(#SVGID_1_);fill-opacity:0.8;" d="M1128.6,1121.71c320.8,141.76,382.13-138.022,372.69-295.631
		C609.025,138.714,1253.74,14.66,790.602-152.442c-463.144-167.103,64.255-634.905-606.083-202.471
		C-351.752-8.967-128.859,144.71,159.246,182.198c361.395,37.012,532.971,187.798,460.48,403.191
		C368.338,1332.34,727.616,944.505,1128.6,1121.71z"/>
</g>
<g>
	
		<linearGradient id="SVGID_2_" gradientUnits="userSpaceOnUse" x1="1052.2413" y1="727.0677" x2="461.4622" y2="1577.5348" gradientTransform="matrix(1 0 0 -1 0 1495.28)">
		<stop  offset="0" style="stop-color:#ED3E68"/>
		<stop  offset="1" style="stop-color:#4E25F2"/>
	</linearGradient>
	<path style="fill:url(#SVGID_2_);fill-opacity:0.7;" d="M752.233,1013.87c78.154,71.18,176.992,70.93,186.826-42.391
		c-10.477-125.487,33.346-348.359,168.921-433.565c135.58-85.206,316.01-399.977-144.9-311.688
		c-460.911,88.289-316.101-44.507-532.955-202.719C256.642-103.063,170.387,47.53,155.951,132.722
		C131.748,275.556,228.756,448.571,468.1,447.145c239.343-1.426,217.827,226.109,192.123,372.17
		C646.346,898.174,674.08,942.686,752.233,1013.87z"/>
</g>
<linearGradient id="SVGID_3_" gradientUnits="userSpaceOnUse" x1="563.2526" y1="676.3691" x2="1439.8995" y2="1074.1283" gradientTransform="matrix(1 0 0 -1 0 1495.28)">
	<stop  offset="0" style="stop-color:#5237F7"/>
	<stop  offset="1" style="stop-color:#F167C2"/>
</linearGradient>
<path style="fill:url(#SVGID_3_);fill-opacity:0.2;" d="M976.585,1252.91c158.645,216.58,306.205,54.42,360.155-53.73
	c-329.3-796.824,145.76-632.823-97.63-920.597C995.721-9.191,1524.28-118.034,914.414-87.258
	C426.523-62.636,480.352,180.636,692.466,259.38c117.009,38.625,307.854,177.188,135.166,422.438
	C416.466,1132.97,778.282,982.18,976.585,1252.91z"/>
</svg>
