<svg width="689" height="1162" viewBox="0 0 689 1162" fill="none" xmlns="http://www.w3.org/2000/svg">
<g filter="url(#filter0_i)">
<path d="M691.233 1013.87C769.387 1085.05 868.225 1084.8 878.059 971.479C867.582 845.992 911.405 623.12 1046.98 537.914C1182.56 452.708 1362.99 137.937 902.08 226.226C441.169 314.515 585.979 181.719 369.125 23.5068C195.642 -103.063 109.387 47.5301 94.9509 132.722C70.7479 275.556 167.756 448.571 407.1 447.145C646.443 445.719 624.927 673.254 599.223 819.315C585.346 898.174 613.08 942.686 691.233 1013.87Z" fill="url(#paint0_linear)" fill-opacity="0.7"/>
</g>
<defs>
<filter id="filter0_i" x="0.140762" y="-383.29" width="1442.61" height="1548.96" filterUnits="userSpaceOnUse" color-interpolation-filters="sRGB">
<feFlood flood-opacity="0" result="BackgroundImageFix"/>
<feBlend mode="normal" in="SourceGraphic" in2="BackgroundImageFix" result="shape"/>
<feColorMatrix in="SourceAlpha" type="matrix" values="0 0 0 0 0 0 0 0 0 0 0 0 0 0 0 0 0 0 127 0" result="hardAlpha"/>
<feOffset dy="4"/>
<feGaussianBlur stdDeviation="50"/>
<feComposite in2="hardAlpha" operator="arithmetic" k2="-1" k3="1"/>
<feColorMatrix type="matrix" values="0 0 0 0 0 0 0 0 0 0 0 0 0 0 0 0 0 0 0.17 0"/>
<feBlend mode="normal" in2="shape" result="effect1_innerShadow"/>
</filter>
<linearGradient id="paint0_linear" x1="869.093" y1="853.063" x2="278.314" y2="2.59589" gradientUnits="userSpaceOnUse">
<stop stop-color="#ED3E68"/>
<stop offset="1" stop-color="#4E25F2"/>
</linearGradient>
</defs>
</svg>
