<svg width="705" height="812" viewBox="0 0 705 812" fill="none" xmlns="http://www.w3.org/2000/svg">
<path d="M626.306 89.2876C639.104 126.499 637.39 167.169 621.505 203.171C613.427 220.93 601.464 236.649 586.498 249.167C571.533 261.685 553.946 270.683 535.038 275.498C512.76 280.934 489.308 278.811 468.369 269.463C458.019 264.685 448.79 257.783 441.283 249.205C433.775 240.628 428.157 230.566 424.793 219.676C421.641 208.723 421.335 197.148 423.904 186.045C426.472 174.941 431.83 164.676 439.471 156.219C451.222 143.875 468.004 136.743 478.155 123.028C495.53 99.5284 488.26 64.234 505.59 40.7349C521.411 19.0645 554.38 15.2699 578.294 27.4309C602.209 39.5919 617.801 64.0054 626.306 89.2876Z" fill="#393762"/>
<path d="M433.343 794.81C433.343 794.81 398.683 808.159 398.317 811.223H449.942L453.462 778.763L433.343 794.81Z" fill="#ECE0D3"/>
<path d="M665.859 720.29L678.25 730.485C678.25 730.485 676.467 764.545 678.571 766.786L705 723.902L678.525 704.975L665.859 720.29Z" fill="#ECE0D3"/>
<path d="M530.694 533.576C530.694 533.576 539.839 614.406 541.485 617.515C543.131 620.623 678.251 730.484 678.251 730.484L688.31 711.968L592.698 576.048L606.415 414.938L530.694 533.576Z" fill="#E48868"/>
<path d="M609.708 329.171C575.505 332.645 540.891 335.434 510.986 350.796L519.125 377.266C519.125 377.266 472.119 513.552 470.427 524.936C468.735 536.32 433.344 794.993 433.344 794.993L452 792.57L530.694 539.703C530.694 539.703 629.324 422.71 624.569 376.581C622.988 359.912 617.925 343.76 609.708 329.171Z" fill="#E48868"/>
<path d="M486.705 472.679C500.88 430.024 519.125 377.083 519.125 377.083L510.986 350.612C540.89 335.251 575.505 332.325 609.708 328.987C617.949 343.632 623.013 359.848 624.569 376.58C626.078 391.027 617.39 412.469 604.769 435.053L598.734 505.551C586.79 503.75 574.947 501.339 563.25 498.327C561.924 498.007 560.644 497.596 559.318 497.23L554.745 496.087C543.177 492.933 531.883 489.412 520.405 485.572C508.928 481.732 497.954 477.16 486.705 472.679Z" fill="#DE6879"/>
<path d="M535.311 166.231C535.311 166.231 539.518 128.97 532.705 122.981C528.132 119.095 513.546 125.221 509.43 119.004C508.196 117.175 510.482 103.185 511.397 93.8588C511.625 91.4814 504.355 94.3617 504.721 91.8015C505.087 89.2412 517.524 76.4402 516.929 73.1485C510.757 22.8585 593.977 21.6241 596.218 60.8046C596.961 73.3606 594.235 85.8789 588.34 96.9903C582.445 108.102 573.607 117.378 562.792 123.804L576.51 149.909L535.311 166.231Z" fill="#E48868"/>
<path d="M512.083 256.754L475.502 315.73C475.502 315.73 397.311 354.911 392.739 356.511C388.166 358.111 364.846 377.77 362.011 382.387C359.176 387.005 370.836 388.879 373.031 388.879C376.182 388.154 379.248 387.097 382.176 385.725C382.176 385.725 395.894 394.183 396.717 393.954C397.54 393.725 406.639 373.701 406.639 373.701C406.639 373.701 497.771 350.476 504.904 344.487C512.037 338.498 540.387 270.195 540.387 270.195L512.083 256.754Z" fill="#E48868"/>
<path d="M514.415 242.627L477.835 320.668C477.835 320.668 442.123 313.124 429.594 329.171C422.461 338.52 413.48 346.301 403.21 352.031L406.823 374.067C406.823 374.067 497.177 365.746 510.986 350.659C524.795 335.572 523.881 254.285 523.881 254.285L514.415 242.627Z" fill="#EFC33B"/>
<path d="M534.854 167.146L525.343 150.047L562.793 123.805L575.733 143.189L534.854 167.146Z" fill="#ECE0D3"/>
<path d="M603.443 164.036C603.443 164.036 579.986 131.074 554.516 142.549C548.206 145.383 498.457 209.8 497.496 220.681C496.536 231.562 517.25 269.234 517.25 269.234L495.896 396.605L642.219 356.19L609.845 277.92C609.845 277.92 620.042 235.174 603.443 164.036Z" fill="#EFC33B"/>
<path d="M573.355 483.881C573.579 483.88 573.8 483.825 573.998 483.722C574.197 483.618 574.368 483.469 574.498 483.287C584.375 469.572 593.246 456.953 601.34 443.832C601.436 443.679 601.501 443.509 601.531 443.331C601.561 443.152 601.556 442.97 601.515 442.794C601.475 442.618 601.4 442.451 601.296 442.304C601.191 442.156 601.058 442.031 600.905 441.935C600.752 441.839 600.581 441.774 600.403 441.744C600.225 441.714 600.043 441.719 599.866 441.759C599.69 441.8 599.524 441.874 599.376 441.979C599.229 442.084 599.104 442.216 599.008 442.369C590.914 455.445 582.089 467.88 572.258 481.687C572.152 481.834 572.077 482 572.035 482.176C571.994 482.353 571.988 482.535 572.018 482.714C572.048 482.892 572.113 483.063 572.209 483.216C572.305 483.37 572.43 483.502 572.578 483.607C572.798 483.785 573.072 483.882 573.355 483.881Z" fill="#C55469"/>
<path d="M183.223 147.076L174.993 115.393C174.993 115.393 163.058 118.593 157.845 113.564C155.651 111.416 153.639 102.181 152.77 87.5508C152.77 85.9964 146.871 89.1509 146.78 87.5508C146.78 84.4419 157.205 70.2236 156.291 64.6917C152.907 43.5242 154.69 37.8552 160.863 31.8661C174.581 18.2878 222.227 16.3676 228.72 39.5467C235.213 62.7258 233.293 73.9725 221.359 106.935L228.583 139.807L183.223 147.076Z" fill="#E48868"/>
<path d="M65.6164 752.385L53.4076 788.959C53.4076 788.959 15.7753 791.245 14.7236 793.805L68.863 808.664L83.1294 757.139L65.6164 752.385Z" fill="#ECE0D3"/>
<path d="M351.174 811.999H382.222L404.719 794.626L376.781 748.862L361.417 758.235L379.753 792.34L374.037 805.964L351.174 811.999Z" fill="#ECE0D3"/>
<path d="M274.721 573.898C283.816 572.647 292.837 570.907 301.745 568.687L389.812 770.212L373.717 781.093L268.548 619.571L252.315 580.619C260.226 579.247 266.536 575.453 274.721 573.898Z" fill="#E48868"/>
<path d="M119.436 559.36C137.726 566.127 141.796 573.533 160.589 578.745L157.662 592.232L75.859 783.105L56.6542 779.31L119.436 559.36Z" fill="#E48868"/>
<path d="M107.135 560.231L144.95 413.155H285.374L310.249 574.815C298.36 578.106 286.38 581.169 274.217 583.501C265.758 585.147 257.299 586.564 248.931 588.073L210.658 489.779L170.282 584.095C150.803 578.884 126.02 567.271 107.135 560.231Z" fill="#4E587F"/>
<path d="M229.452 113.336C229.452 113.336 200.645 122.48 186.195 138.984C171.746 155.488 148.38 203.675 147.877 209.07C147.374 214.464 155.102 273.852 155.102 273.852L129.221 431.123C129.221 431.123 240.152 448.313 295.617 431.123L266.581 301.192C266.581 301.192 270.605 255.428 275.178 250.033C279.75 244.638 271.519 199.286 267.907 178.164C263.744 159.534 254.9 142.273 242.209 128.011C237.506 123.53 233.235 118.617 229.452 113.336Z" fill="#7FBBF7"/>
<path d="M219.987 116.856C233.339 107.987 280.025 106.341 285.557 109.953C291.09 113.565 278.15 124.811 279.75 132.584C281.351 140.356 308.375 149.865 299.138 166.232C289.901 182.599 262.557 201.984 262.557 201.984L219.987 116.856Z" fill="#7FBBF7"/>
<path d="M206.589 476.108C206.844 476.173 207.111 476.173 207.366 476.108C207.67 475.903 207.882 475.588 207.959 475.23C208.035 474.872 207.97 474.499 207.778 474.187L192.231 450.048C192.132 449.895 192.004 449.763 191.854 449.66C191.703 449.556 191.534 449.483 191.356 449.445C191.178 449.407 190.994 449.404 190.814 449.437C190.635 449.47 190.464 449.538 190.311 449.637C190.157 449.736 190.025 449.864 189.922 450.014C189.818 450.164 189.745 450.333 189.707 450.512C189.669 450.69 189.666 450.874 189.699 451.053C189.732 451.233 189.8 451.404 189.899 451.557L205.446 475.696C205.592 475.848 205.771 475.964 205.969 476.035C206.168 476.107 206.38 476.131 206.589 476.108Z" fill="#454F78"/>
<path d="M151.718 2.60593C151.61 4.02564 151.835 5.45106 152.374 6.76864C152.914 8.08622 153.754 9.25955 154.828 10.1951C154.616 8.95126 154.677 7.67632 155.005 6.4581C155.334 5.23988 155.923 4.10732 156.731 3.13838C157.539 2.16945 158.548 1.38716 159.688 0.845374C160.827 0.30359 162.071 0.0151801 163.333 0C165.736 0.0874081 168.074 0.805009 170.113 2.08085C172.151 3.35669 173.818 5.14594 174.947 7.26919C174.559 6.7714 174.05 6.38116 173.468 6.13552C172.886 5.88988 172.251 5.79701 171.624 5.86572C170.996 5.93443 170.396 6.16245 169.882 6.52811C169.367 6.89378 168.954 7.38494 168.683 7.95496C168.267 9.17944 168.276 10.5081 168.707 11.7272C169.138 12.9462 169.967 13.9847 171.06 14.6755C173.307 16.0064 175.91 16.613 178.514 16.4128C184.586 16.0855 190.593 14.9949 196.392 13.1668C202.205 11.3354 208.23 10.2599 214.317 9.96656C220.472 9.73649 226.48 11.8807 231.098 15.9556C233.298 18.3024 234.757 21.2451 235.294 24.4161C235.83 27.5872 235.421 30.846 234.116 33.7857C249.343 40.0034 238.689 66.7028 234.116 78.4523C229.544 90.2019 221.359 106.935 221.359 106.935L205.721 91.4363C205.721 91.4363 217.655 77.7209 212.396 71.366C207.138 65.0112 201.697 74.8406 201.697 74.8406C201.697 74.8406 199.959 104.283 195.89 106.02C191.82 107.758 167.768 125.085 157.526 121.245C147.283 117.404 152.953 87.3674 152.953 87.3674L168.043 85.6301C174.705 84.8637 180.835 81.6145 185.208 76.5303C189.581 71.4461 191.877 64.9006 191.637 58.1992C191.637 58.1992 175.13 64.0054 172.158 50.29C160.864 48.4155 147.146 43.7066 142.573 33.0999C140.422 27.7323 140.156 21.7941 141.817 16.2553C143.478 10.7166 146.969 5.90474 151.718 2.60593Z" fill="#393762"/>
<path d="M175.953 16.275C175.953 16.275 201.651 74.9771 229.955 88.2354C229.955 88.2354 251.812 51.1123 251.354 34.5166C250.897 17.9209 238.871 7.08569 219.941 5.8513C201.01 4.61691 175.953 16.275 175.953 16.275Z" fill="#DC5955"/>
<path d="M357.027 371.734C359.542 367.757 354.054 358.522 350.031 353.447C353.231 348.144 353.231 336.394 355.975 330.862C373.031 360.762 384.919 373.106 386.52 377.129C389.583 386.273 391.092 391.073 383.593 391.622C376.094 392.17 380.438 402.137 374.448 401.451C368.458 400.765 371.339 412.743 365.303 409.36C359.267 405.977 359.953 391.713 359.953 391.713C359.953 391.713 347.424 386.913 357.027 371.734Z" fill="#E48868"/>
<path d="M250.257 139.121C269.05 148.95 375.546 351.344 375.546 351.344L348.11 368.854C348.11 368.854 324.058 329.537 310.889 319.753C297.72 309.969 293.514 305.718 292.279 286.516C291.044 267.314 230.869 219.859 221.267 198.6C211.664 177.341 237.271 132.263 250.257 139.121Z" fill="#7FBBF7"/>
<path d="M223.919 71.7303C224.096 71.7389 224.272 71.7109 224.437 71.648C224.603 71.585 224.753 71.4885 224.879 71.3645C225.13 71.1082 225.271 70.7635 225.271 70.4045C225.271 70.0455 225.13 69.7008 224.879 69.4444C213.127 56.5452 203.287 42.0265 195.66 26.3322C195.588 26.1597 195.48 26.0046 195.343 25.877C195.206 25.7493 195.044 25.6521 194.867 25.5916C194.69 25.5312 194.502 25.5089 194.315 25.5262C194.129 25.5435 193.949 25.6001 193.786 25.6921C193.458 25.8501 193.207 26.1313 193.087 26.4741C192.967 26.817 192.988 27.1934 193.145 27.5208C200.892 43.4497 210.886 58.184 222.821 71.2731C222.954 71.4324 223.123 71.5572 223.314 71.6368C223.505 71.7164 223.713 71.7485 223.919 71.7303Z" fill="#A34745"/>
<path d="M275.178 251.449C275.503 251.445 275.816 251.329 276.066 251.121C276.316 250.913 276.487 250.625 276.549 250.306C284.323 209.8 279.43 155.167 241.798 123.438C241.67 123.307 241.517 123.203 241.348 123.131C241.179 123.06 240.998 123.023 240.815 123.023C240.631 123.023 240.45 123.06 240.281 123.131C240.112 123.203 239.959 123.307 239.832 123.438C239.577 123.703 239.435 124.055 239.435 124.421C239.435 124.788 239.577 125.14 239.832 125.404C276.412 156.538 281.534 210.12 273.897 249.849C273.865 250.04 273.873 250.235 273.921 250.423C273.97 250.61 274.057 250.785 274.178 250.936C274.299 251.088 274.451 251.211 274.623 251.3C274.795 251.388 274.984 251.439 275.178 251.449Z" fill="#639BDA"/>
<path d="M136.995 252.5H153.319C153.319 252.5 192.734 161.063 206.361 149.542C219.987 138.021 223.599 245.55 201.056 277.553C178.514 309.556 173.255 309.876 129.953 292.823C86.6504 275.77 136.995 252.5 136.995 252.5Z" fill="#7FBBF7"/>
<path d="M8.09335 216.017C6.31005 211.903 7.36177 199.193 8.91644 200.382C10.4711 201.57 11.9343 208.657 11.9343 208.657L12.5287 212.086C12.5287 212.086 15.1351 211.126 15.2723 212.086C15.4095 213.046 16.3697 217.389 16.3697 217.389L16.7812 225.755L8.09335 216.017Z" fill="#E48868"/>
<path d="M28.1211 232.294L18.3815 196.359L10.3338 167.648L-0.000244141 171.534L19.1131 233.254L28.1211 232.294Z" fill="#ECE0D3"/>
<path d="M130.592 253.462L122.362 286.013C122.362 286.013 39.0494 253.462 34.7054 251.862C34.7054 251.862 21.948 241.804 19.3416 239.838C16.7352 237.872 8.73318 217.939 8.09302 216.019C7.45286 214.099 22.9082 213.093 22.9082 213.093C23.076 208.851 23.4882 204.623 24.1428 200.429C24.6001 198.783 28.1209 191.285 29.7213 196.36L33.1508 211.127L38.0434 216.019C40.5786 221.88 42.4201 228.017 43.5305 234.306L130.592 253.462Z" fill="#E48868"/>
<path d="M136.995 252.501C136.995 252.501 128.261 227.859 111.845 237.871C95.4299 247.883 93.5551 235.494 93.5551 235.494L49.2011 223.287L34.8432 251.861L130.09 293.007L136.995 252.501Z" fill="#7FBBF7"/>
<path d="M174.581 305.81C180.839 305.651 186.887 303.523 191.866 299.73C197.962 294.804 203.2 288.903 207.367 282.265C220.217 263.728 231.475 244.136 241.021 223.7C248.059 210.317 252.336 195.656 253.596 180.588C254.099 166.507 250.075 154.255 242.804 147.763C240.064 145.379 236.81 143.661 233.297 142.741C229.783 141.821 226.105 141.725 222.548 142.459C222.356 142.469 222.168 142.518 221.997 142.604C221.825 142.691 221.674 142.812 221.552 142.961C221.431 143.11 221.342 143.282 221.291 143.467C221.24 143.652 221.229 143.846 221.258 144.036C221.287 144.226 221.356 144.407 221.459 144.569C221.563 144.731 221.699 144.869 221.859 144.974C222.02 145.08 222.201 145.151 222.39 145.182C222.579 145.214 222.773 145.205 222.959 145.157C226.112 144.505 229.372 144.578 232.493 145.37C235.614 146.162 238.514 147.652 240.975 149.728C247.605 155.672 251.309 167.147 250.852 180.405C249.565 195.105 245.369 209.402 238.506 222.466C228.999 242.745 217.818 262.197 205.08 280.619C201.085 286.992 196.063 292.661 190.22 297.398C187.381 299.666 184.081 301.287 180.55 302.147C177.02 303.008 173.344 303.088 169.78 302.381C169.603 302.333 169.418 302.322 169.236 302.347C169.054 302.372 168.879 302.433 168.722 302.527C168.564 302.62 168.426 302.745 168.318 302.893C168.209 303.04 168.131 303.209 168.088 303.387C168.004 303.744 168.062 304.12 168.25 304.436C168.437 304.751 168.74 304.982 169.094 305.079C170.885 305.553 172.729 305.798 174.581 305.81Z" fill="#639BDA"/>
<path d="M163.79 244.547C164.15 244.512 164.483 244.341 164.721 244.069C164.959 243.798 165.084 243.445 165.07 243.084C164.156 231.151 163.927 217.756 172.387 209.893C174.059 208.437 175.848 207.122 177.736 205.961C179.473 204.881 181.138 203.69 182.721 202.395C187.659 197.537 191.523 191.696 194.061 185.25C197.536 178.027 200.828 171.169 207.321 167.466C207.628 167.276 207.85 166.977 207.944 166.628C208.037 166.28 207.994 165.909 207.824 165.592C207.641 165.265 207.337 165.024 206.977 164.922C206.617 164.819 206.231 164.863 205.904 165.043C198.725 169.158 195.067 176.747 191.591 184.062C189.184 190.141 185.558 195.665 180.937 200.292C179.48 201.508 177.954 202.637 176.365 203.675C174.341 204.908 172.428 206.315 170.649 207.881C161.504 216.522 161.504 230.74 162.464 243.267C162.496 243.603 162.647 243.917 162.891 244.152C163.134 244.387 163.453 244.527 163.79 244.547Z" fill="#639BDA"/>
<path d="M508.882 319.297L645.557 290.266L670.889 389.84L531.562 423.168C522.509 388.605 519.628 353.174 508.882 319.297Z" fill="#ECE0D3"/>
<path d="M596.219 396.971C599.465 393.588 595.944 383.256 593.018 377.678C597.179 373.106 599.557 361.631 603.352 356.739C614.098 389.428 623.517 403.92 624.066 408.172C625.3 417.316 625.575 422.711 618.304 421.888C611.034 421.065 613.137 431.58 607.239 429.705C601.34 427.831 601.935 440.129 596.676 435.603C591.418 431.077 594.893 417.316 594.893 417.316C594.893 417.316 583.827 409.955 596.219 396.971Z" fill="#E48868"/>
<path d="M603.443 164.037C616.43 180.77 620.911 388.605 620.911 388.605L588.583 393.176C588.583 393.176 583.004 347.458 575.139 333.011C567.274 318.564 565.171 313.033 571.984 295.065C578.797 277.098 552.139 229.505 552.231 206.144C552.322 182.782 594.435 152.379 603.443 164.037Z" fill="#EFC33B"/>
<path d="M505.087 345.859C505.414 345.863 505.733 345.751 505.984 345.541C506.236 345.331 506.404 345.039 506.459 344.716L518.622 269.464C518.692 269.209 518.692 268.941 518.622 268.687L513.363 256.023C513.299 255.848 513.199 255.69 513.069 255.557C512.94 255.423 512.784 255.319 512.612 255.25C512.439 255.181 512.254 255.149 512.069 255.156C511.883 255.163 511.701 255.209 511.534 255.291C511.202 255.432 510.939 255.699 510.802 256.033C510.666 256.366 510.666 256.74 510.803 257.074L515.832 269.235L503.807 344.259C503.764 344.62 503.858 344.984 504.069 345.279C504.281 345.575 504.594 345.782 504.95 345.859H505.087Z" fill="#E8A12B"/>
<path d="M571.618 289.029C571.798 289.012 571.974 288.96 572.134 288.874C572.294 288.789 572.435 288.673 572.55 288.533C572.665 288.392 572.751 288.231 572.803 288.057C572.855 287.883 572.872 287.701 572.853 287.521L565.491 212.634C564.325 205.458 564.325 198.14 565.491 190.964C566.085 187.517 567.495 184.263 569.603 181.471C571.711 178.68 574.455 176.433 577.608 174.917C577.944 174.766 578.211 174.494 578.355 174.155C578.499 173.816 578.51 173.435 578.385 173.088C578.316 172.918 578.212 172.764 578.082 172.635C577.951 172.505 577.796 172.404 577.626 172.335C577.455 172.267 577.273 172.234 577.089 172.238C576.905 172.241 576.724 172.282 576.556 172.357C573 174.037 569.898 176.545 567.511 179.672C565.124 182.798 563.522 186.451 562.839 190.324C561.552 197.791 561.475 205.417 562.61 212.909L570.246 288.024C570.328 288.321 570.508 288.582 570.757 288.765C571.006 288.947 571.309 289.041 571.618 289.029Z" fill="#E8A12B"/>
<path d="M534.9 535.998C535.122 535.99 535.34 535.932 535.538 535.829C535.736 535.727 535.908 535.581 536.043 535.404L558.906 503.401C559.122 503.097 559.209 502.721 559.149 502.353C559.089 501.985 558.887 501.655 558.586 501.435C558.285 501.233 557.919 501.154 557.562 501.214C557.205 501.273 556.884 501.467 556.665 501.755L533.802 533.758C533.6 534.059 533.521 534.425 533.58 534.782C533.64 535.139 533.834 535.46 534.122 535.678C534.345 535.859 534.615 535.97 534.9 535.998Z" fill="#BA745D"/>
<path d="M562.793 123.805C538.163 108.55 518.201 86.8193 505.087 60.9885L523.88 33.2833C523.88 33.2833 590.685 13.716 607.558 60.9885C624.431 108.261 562.793 123.805 562.793 123.805Z" fill="#393762"/>
</svg>
