<svg width="1489" height="1669" viewBox="0 0 1489 1669" fill="none" xmlns="http://www.w3.org/2000/svg">
<g filter="url(#filter0_i)">
<path d="M1548.46 1295C1869.26 1436.76 1930.59 1156.98 1921.15 999.368C1028.88 312.003 1673.6 187.95 1210.46 20.8475C747.318 -146.255 1274.72 -614.057 604.378 -181.624C68.1074 164.323 291 318 579.106 355.488C940.5 392.5 1112.08 543.286 1039.59 758.678C788.197 1505.63 1147.48 1117.79 1548.46 1295Z" fill="url(#paint0_linear)" fill-opacity="0.8"/>
</g>
<g filter="url(#filter1_i)">
<path d="M1172.09 1187.16C1250.25 1258.34 1349.08 1258.09 1358.92 1144.77C1348.44 1019.28 1392.26 796.41 1527.84 711.204C1663.42 625.998 1843.85 311.227 1382.94 399.517C922.029 487.806 1066.84 355.009 849.984 196.797C676.501 70.2273 590.246 220.82 575.81 306.012C551.607 448.846 648.616 621.862 887.959 620.435C1127.3 619.009 1105.79 846.544 1080.08 992.605C1066.2 1071.46 1093.94 1115.98 1172.09 1187.16Z" fill="url(#paint1_linear)" fill-opacity="0.7"/>
</g>
<path d="M1396.44 1426.2C1555.09 1642.78 1702.65 1480.62 1756.6 1372.47C1427.3 575.646 1902.36 739.647 1658.97 451.873C1415.58 164.099 1944.14 55.2555 1334.27 86.0321C846.382 110.653 900.211 353.926 1112.33 432.67C1229.33 471.295 1420.18 609.858 1247.49 855.107C836.325 1306.26 1198.14 1155.47 1396.44 1426.2Z" fill="url(#paint2_linear)" fill-opacity="0.2"/>
<g clip-path="url(#clip0)">
<path d="M877.18 560.553L829.027 802.844L1055.87 818.084L964.481 612.727L877.18 560.553Z" fill="#DE6879"/>
<path d="M884.43 631.611L800.468 1025.55L828.587 1034.33L895.853 824.891L948.664 731.303L996.071 878.558L1084.47 1032.36L1105.16 1014.53L1033.2 813.955L1009.95 631.611H884.43Z" fill="#393762"/>
<path d="M935.352 424.102L922.171 394.238C922.171 394.238 910.967 397.269 906.003 392.526C904.157 390.725 902.268 381.151 901.345 369.249C901.345 367.8 901.126 366.351 901.038 364.858C900.95 363.365 894.799 367.449 894.755 365.868C894.755 362.662 900.686 353.659 900.774 350.409C901.038 335.345 903.191 320.765 908.859 315.275C921.688 302.891 966.722 301.134 972.829 323.092C976.038 334.262 976.094 346.1 972.993 357.299C969.892 368.499 963.753 378.623 955.255 386.553L967.469 417.558L935.352 424.102Z" fill="#E48868"/>
<path d="M931.31 378.34C931.31 379.417 931.63 380.47 932.228 381.366C932.827 382.261 933.678 382.959 934.673 383.371C935.669 383.784 936.764 383.892 937.821 383.681C938.878 383.471 939.848 382.953 940.61 382.191C941.372 381.429 941.891 380.459 942.101 379.403C942.312 378.346 942.204 377.251 941.791 376.256C941.379 375.261 940.681 374.411 939.785 373.812C938.889 373.214 937.836 372.895 936.758 372.895C935.313 372.895 933.927 373.468 932.906 374.49C931.884 375.511 931.31 376.896 931.31 378.34Z" fill="#ECE0D3"/>
<path d="M843.306 516.328L822.481 535.52C822.481 535.52 782.675 449.267 780.83 447.115C778.984 444.963 775.865 426.21 775.689 424.453C775.513 422.697 788.87 424.761 788.87 424.761C789.832 421.075 791.021 417.453 792.429 413.913C793.132 412.552 797.569 406.799 797.965 411.454V424.629L801.26 429.767C802.289 435.311 802.687 440.954 802.446 446.588L843.306 516.328Z" fill="#E48868"/>
<path d="M789.792 442.064L788.298 409.302L786.804 383.083L777.226 384.445L781.884 441.142L789.792 442.064Z" fill="#393762"/>
<path d="M775.688 424.102C774.898 420.237 780.741 410.136 781.883 411.454C783.026 412.771 782.323 418.525 782.323 418.525L780.258 421.555C780.258 421.555 782.674 421.247 782.63 422.082C782.586 422.916 782.63 426.825 782.63 426.825L781.4 434.115L775.688 424.102Z" fill="#E48868"/>
<path d="M813.561 447.115L855.125 528.669C856.926 516.021 860.529 523.311 860.529 523.311C860.529 523.311 885.177 449.398 910.704 435.477C939.57 419.886 894.755 565.691 894.755 565.691C894.755 565.691 855.828 587.255 842.032 581.326C828.236 575.397 792.428 502.846 778.984 468.019C787.595 462.617 804.599 451.814 813.561 447.115Z" fill="#DE6879"/>
<path d="M1009.95 631.611L880.695 649.178L893.217 584.312C893.217 584.312 881.135 560.465 874.369 546.543C869.975 537.76 868.569 521.686 885.133 491.208C894.906 473.274 903.449 454.699 910.703 435.608L905.475 420.589L962.943 389.847L969.05 411.805C969.05 411.805 1004.77 456.82 1010.88 468.019C1016.98 479.218 1007.01 578.647 1006.13 588.221L1009.95 631.611Z" fill="#EFC33B"/>
<path d="M1020.1 337.673C1019.82 347.263 1017.58 356.694 1013.51 365.385C1006.22 381.371 992.996 399.772 973.971 398.63C964.218 398.015 957.979 392.13 950.773 386.553C942.006 380.121 933.857 372.888 926.433 364.946C922.347 360.554 919.227 355.24 915.493 350.497C906.442 339.034 886.934 342.109 879.861 328.538C872.436 314.177 883.112 299.201 893.041 288.573C918.92 261.125 958.638 259.456 987.987 279.79C1003.17 290.135 1014.1 305.626 1018.74 323.4C1019.8 328.08 1020.26 332.877 1020.1 337.673Z" fill="#393762"/>
<path d="M813.518 997.705L802.578 1037.23C802.578 1037.23 768.967 1039.69 768 1042.46L816.33 1058.49L828.939 1002.71L813.518 997.705Z" fill="#393762"/>
<path d="M1068.79 1062H1096.51L1116.63 1043.25L1091.68 993.884L1077.92 1003.99L1094.36 1040.83L1089.26 1055.54L1068.79 1062Z" fill="#393762"/>
<path d="M969.051 411.586C969.051 411.586 934.912 420.852 926.169 437.409C917.426 453.966 1000.86 814.395 1000.86 814.395L1056.04 818.084L1015.71 628.625L1013.03 583.609C1013.03 583.609 1020.63 480.843 1015.71 469.425C1009.52 455.327 969.051 411.586 969.051 411.586Z" fill="#DE6879"/>
<path d="M1085.44 728.932C1095.01 721.246 1118.52 724.54 1121.95 727.746C1125.37 730.952 1137.46 777.592 1140.22 789.23L1136.71 790.108C1137.06 788.791 1123.88 729.81 1115.58 727.921C1107.27 726.033 1088.51 730.425 1086.14 732.313C1083.77 734.202 1084.87 795.466 1084.87 795.466L1079.55 796.257C1079.55 796.257 1080.25 733.06 1085.44 728.932Z" fill="#B77053"/>
<path d="M1155.78 781.94L1065.4 794.807L1076.83 929.458L1183.85 916.678L1155.78 781.94Z" fill="#393762"/>
<path d="M1085.48 733.455C1092.6 723.398 1116.02 720.016 1120.23 722.256C1124.45 724.496 1140.09 751.373 1145.94 761.782L1142.82 763.582C1142.82 762.221 1122.65 723.705 1114.13 724.057C1105.6 724.408 1088.82 733.938 1087.02 736.222C1085.22 738.506 1094.4 782.73 1094.4 782.73L1089.48 784.97C1089.48 784.97 1081.66 738.813 1085.48 733.455Z" fill="#ECE0D3"/>
<path d="M1105.16 691.119C1105.16 691.119 1115.44 718.216 1118.61 724.013C1121.77 729.81 1120.41 733.455 1114.21 731.654C1108.02 729.854 1110.61 737.276 1105.43 734.992C1100.24 732.709 1101.56 740.921 1097.34 739.384C1091.06 737.144 1091.54 740.218 1088.82 740.174C1086.1 740.131 1086.62 718.216 1086.62 718.216C1085.47 717.042 1084.83 715.466 1084.83 713.824C1084.83 712.182 1085.47 710.606 1086.62 709.432C1090.18 704.074 1066.46 679.086 1066.46 679.086L1105.16 691.119Z" fill="#E48868"/>
<path d="M1015.53 469.425C1030.96 484.488 1105.16 691.119 1105.16 691.119L1074.67 704.294C1074.67 704.294 1056.79 660.948 1045.1 649.046C1033.42 637.145 1029.68 632.182 1031.66 612.946C1033.64 593.71 980.606 536.003 974.323 513.122C968.04 490.241 982.407 436.926 1015.53 469.425Z" fill="#DE6879"/>
<path d="M1012.85 573.421C1013.16 573.418 1013.45 573.309 1013.69 573.113C1013.82 572.99 1013.92 572.844 1013.98 572.681C1014.05 572.519 1014.09 572.345 1014.09 572.169C1014.09 571.993 1014.05 571.819 1013.98 571.657C1013.92 571.494 1013.82 571.348 1013.69 571.225C1003.58 558.733 994.529 545.425 986.625 531.436C978.892 518.261 974.718 507.852 976.212 494.37C976.834 487.29 979.182 480.47 983.05 474.506C986.918 468.542 992.188 463.616 998.399 460.158C998.717 459.998 998.959 459.719 999.074 459.383C999.189 459.047 999.167 458.678 999.014 458.357C998.936 458.2 998.826 458.06 998.692 457.946C998.558 457.831 998.402 457.745 998.234 457.692C998.066 457.639 997.89 457.619 997.714 457.636C997.539 457.652 997.368 457.703 997.213 457.787C990.596 461.432 984.975 466.647 980.846 472.972C976.717 479.297 974.205 486.539 973.532 494.062C971.95 508.291 976.3 519.051 984.296 532.797C992.279 546.91 1001.42 560.336 1011.62 572.938C1011.77 573.113 1011.96 573.248 1012.18 573.333C1012.39 573.417 1012.63 573.447 1012.85 573.421Z" fill="#C55469"/>
<path d="M875.335 573.113C875.645 573.101 875.943 572.987 876.181 572.789C876.42 572.59 876.586 572.318 876.653 572.015L878.147 563.627C878.148 563.308 878.036 562.999 877.832 562.754C877.628 562.509 877.345 562.343 877.031 562.286C876.717 562.228 876.393 562.283 876.115 562.44C875.838 562.596 875.624 562.846 875.511 563.144L873.973 571.532C873.942 571.706 873.946 571.883 873.984 572.055C874.023 572.227 874.095 572.389 874.198 572.533C874.3 572.676 874.43 572.797 874.58 572.889C874.73 572.982 874.898 573.043 875.072 573.069L875.335 573.113Z" fill="#C55469"/>
<path d="M1158.94 750.451L1075.6 784.926L1132.49 915.272L1223 875.879L1158.94 750.451Z" fill="#EFC33B"/>
<path d="M1075.59 784.926L1110.52 922.87L1120.23 915.273H1132.49L1102 827.043L1075.59 784.926Z" fill="#EFC33B"/>
<path d="M1130.16 909.914H1130.73C1131.05 909.762 1131.3 909.497 1131.43 909.172C1131.56 908.847 1131.56 908.486 1131.44 908.158L1081.79 792.392L1079.24 793.314L1109.69 889.932C1109.8 890.276 1110.04 890.561 1110.36 890.726C1110.69 890.891 1111.06 890.921 1111.4 890.811C1111.75 890.7 1112.03 890.457 1112.2 890.136C1112.36 889.815 1112.39 889.441 1112.28 889.098L1089.96 818.391L1128.93 909.344C1129.07 909.535 1129.26 909.687 1129.47 909.787C1129.69 909.887 1129.93 909.931 1130.16 909.914Z" fill="#E8A12B"/>
</g>
<defs>
<filter id="filter0_i" x="278.299" y="-360.176" width="1643.75" height="1698.05" filterUnits="userSpaceOnUse" color-interpolation-filters="sRGB">
<feFlood flood-opacity="0" result="BackgroundImageFix"/>
<feBlend mode="normal" in="SourceGraphic" in2="BackgroundImageFix" result="shape"/>
<feColorMatrix in="SourceAlpha" type="matrix" values="0 0 0 0 0 0 0 0 0 0 0 0 0 0 0 0 0 0 127 0" result="hardAlpha"/>
<feOffset dy="4"/>
<feGaussianBlur stdDeviation="50"/>
<feComposite in2="hardAlpha" operator="arithmetic" k2="-1" k3="1"/>
<feColorMatrix type="matrix" values="0 0 0 0 0 0 0 0 0 0 0 0 0 0 0 0 0 0 0.25 0"/>
<feBlend mode="normal" in2="shape" result="effect1_innerShadow"/>
</filter>
<filter id="filter1_i" x="572.206" y="148.134" width="1107.06" height="1091.95" filterUnits="userSpaceOnUse" color-interpolation-filters="sRGB">
<feFlood flood-opacity="0" result="BackgroundImageFix"/>
<feBlend mode="normal" in="SourceGraphic" in2="BackgroundImageFix" result="shape"/>
<feColorMatrix in="SourceAlpha" type="matrix" values="0 0 0 0 0 0 0 0 0 0 0 0 0 0 0 0 0 0 127 0" result="hardAlpha"/>
<feOffset dy="4"/>
<feGaussianBlur stdDeviation="50"/>
<feComposite in2="hardAlpha" operator="arithmetic" k2="-1" k3="1"/>
<feColorMatrix type="matrix" values="0 0 0 0 0 0 0 0 0 0 0 0 0 0 0 0 0 0 0.17 0"/>
<feBlend mode="normal" in2="shape" result="effect1_innerShadow"/>
</filter>
<linearGradient id="paint0_linear" x1="798.34" y1="1073.67" x2="1531.44" y2="51.8709" gradientUnits="userSpaceOnUse">
<stop stop-color="#5237F7"/>
<stop offset="1" stop-color="#F167C2"/>
</linearGradient>
<linearGradient id="paint1_linear" x1="1349.95" y1="1026.35" x2="759.174" y2="175.886" gradientUnits="userSpaceOnUse">
<stop stop-color="#ED3E68"/>
<stop offset="1" stop-color="#4E25F2"/>
</linearGradient>
<linearGradient id="paint2_linear" x1="983.397" y1="992.827" x2="1860.04" y2="595.071" gradientUnits="userSpaceOnUse">
<stop stop-color="#5237F7"/>
<stop offset="1" stop-color="#F167C2"/>
</linearGradient>
<clipPath id="clip0">
<rect width="455" height="796" fill="white" transform="matrix(-1 0 0 1 1223 266)"/>
</clipPath>
</defs>
</svg>
