<svg width="592" height="652" viewBox="0 0 592 652" fill="none" xmlns="http://www.w3.org/2000/svg">
<rect y="158" width="434" height="446" fill="#4B2DA0"/>
<g clip-path="url(#clip0)">
<path d="M102.135 448.481C102.623 443.862 103.619 440.006 104.255 435.387H165.717C166.904 439.328 162.729 443.078 163.11 445.981C164.488 456.025 156.032 479.883 156.032 479.883L153.849 492.723L150.839 542.284C150.839 542.284 153.446 566.524 154.972 585.721C155.205 588.666 155.311 591.569 155.311 594.408C155.35 595.114 155.35 595.821 155.311 596.527C154.866 611.359 150.012 625.004 149.758 640.472L142.255 642.294C142.255 642.294 139.373 616.868 136.406 594.302C135.918 590.488 135.41 586.78 134.922 583.284L135.113 585.615C135.346 588.56 135.452 591.463 135.452 594.302C135.452 595.065 135.452 595.806 135.346 596.421C134.901 611.253 130.048 624.899 129.793 640.366L122.291 642.188C122.291 642.188 119.408 616.762 116.441 594.196C114.322 578.093 112.202 563.494 110.973 560.824C109.108 556.586 105.781 520.692 102.283 495.372C100.694 485.943 101.118 457.847 102.135 448.481Z" fill="#B77053"/>
<path d="M129.687 638.205L132.082 651.3H105.42L120.065 644.752L121.612 638.205H129.687Z" fill="#393762"/>
<path d="M170.38 411.38C170.38 411.38 170.507 434.688 168.388 437.018L163.089 445.833L102.135 448.481L101.309 439.858L98.299 437.739C97.0663 436.917 96.1072 435.746 95.5445 434.375C94.9819 433.005 94.8414 431.498 95.141 430.047L110.761 390.043C111.297 383.771 111.368 377.468 110.973 371.185C110.168 365.019 125.025 331.244 127.928 327.473C130.832 323.701 142.107 323.023 147.003 327.473C151.899 331.922 164.848 351.48 165.95 355.59C167.052 359.701 170.38 411.38 170.38 411.38Z" fill="#ECE0D3"/>
<path d="M142.192 323.743C148.55 325.29 176.102 341.224 178.603 346.352C181.104 351.479 202.044 407.163 194.668 413.372C187.293 419.58 164.445 410.511 164.445 410.511L161.415 377.52L142.192 323.743Z" fill="#ECE0D3"/>
<path d="M128.098 473.738C128.19 473.742 128.281 473.724 128.366 473.688C128.45 473.651 128.525 473.596 128.585 473.526C131.836 469.726 133.873 465.04 134.435 460.072C134.447 459.989 134.442 459.905 134.42 459.825C134.398 459.744 134.361 459.669 134.309 459.604C134.258 459.538 134.193 459.484 134.12 459.444C134.047 459.405 133.967 459.38 133.884 459.372C133.8 459.36 133.715 459.365 133.633 459.387C133.552 459.408 133.475 459.445 133.408 459.497C133.341 459.548 133.285 459.612 133.243 459.685C133.201 459.759 133.173 459.839 133.163 459.923C132.625 464.621 130.691 469.049 127.61 472.636C127.492 472.759 127.427 472.922 127.427 473.092C127.427 473.262 127.492 473.425 127.61 473.548C127.669 473.617 127.745 473.671 127.83 473.704C127.915 473.738 128.007 473.749 128.098 473.738Z" fill="#734E4F"/>
<path d="M149.652 638.205L152.047 651.3H125.385L140.03 644.752L141.577 638.205H149.652Z" fill="#393762"/>
<path d="M133.375 579.555H133.523C133.687 579.51 133.828 579.403 133.915 579.257C134.002 579.111 134.028 578.936 133.989 578.771C133.862 578.22 120.277 523.087 117.924 512.683C115.572 502.28 116.886 458.928 116.886 458.504C116.894 458.418 116.884 458.332 116.854 458.251C116.825 458.171 116.778 458.098 116.716 458.038L110.189 451.109C110.071 450.985 109.908 450.914 109.737 450.91C109.566 450.906 109.401 450.97 109.277 451.088C109.154 451.206 109.082 451.368 109.078 451.539C109.074 451.71 109.138 451.875 109.256 451.999L115.614 458.737C115.508 462.741 114.427 502.788 116.695 512.959C118.963 523.129 132.654 578.517 132.654 579.067C132.69 579.225 132.784 579.363 132.918 579.454C133.052 579.544 133.215 579.58 133.375 579.555Z" fill="#734E4F"/>
<path d="M161.436 441.129C161.52 441.129 161.602 441.112 161.679 441.08C161.756 441.049 161.827 441.002 161.886 440.943C161.945 440.884 161.991 440.814 162.023 440.736C162.055 440.659 162.072 440.577 162.072 440.493C162.072 440.41 162.055 440.327 162.023 440.25C161.991 440.173 161.945 440.103 161.886 440.044C161.827 439.985 161.756 439.938 161.679 439.906C161.602 439.874 161.52 439.858 161.436 439.858L104.572 439.519C104.421 439.546 104.284 439.626 104.186 439.744C104.087 439.862 104.033 440.011 104.033 440.165C104.033 440.319 104.087 440.468 104.186 440.586C104.284 440.704 104.421 440.784 104.572 440.811L161.436 441.129Z" fill="#CFB199"/>
<path d="M52.5833 287.574L51.3328 280.964C51.3328 280.964 46.2674 276.238 45.2077 275.476C44.148 274.713 40.9689 266.598 40.651 265.814C40.3331 265.03 46.6489 264.648 46.6489 264.648C46.7189 262.931 46.8888 261.219 47.1576 259.521C47.3271 258.843 48.7683 255.813 49.4042 257.868L50.803 263.843L52.774 265.814C53.766 268.202 54.4772 270.698 54.8934 273.251L58.9839 281.832C56.9068 283.718 54.7451 285.646 52.5833 287.574Z" fill="#E48868"/>
<path d="M34.7593 226L44.8265 257.783L48.7686 272.34L45.102 272.7L33.0426 227.038L34.7593 226Z" fill="#ECE0D3"/>
<path d="M40.651 265.814C39.9305 264.161 41.5412 259.055 42.177 259.457C42.8128 259.86 43.0672 262.593 43.0672 262.593L42.4526 264.161C42.4526 264.161 43.5123 263.78 43.5758 264.161C43.6394 264.542 43.9997 266.28 43.9997 266.28L44.1693 269.67L40.651 265.814Z" fill="#E48868"/>
<path d="M102.093 362.095C95.565 355.484 77.55 339.571 71.7429 331.435C66.2536 323.743 49.7646 285.773 49.7646 285.773L58.8357 277.001L85.1587 313.996C85.1587 313.996 103.809 325.502 113.834 329.676C107.752 340.715 108.832 351.437 102.093 362.095Z" fill="#ECE0D3"/>
<path d="M136.893 324.4C85.6036 327.854 82.8907 332.389 96.9636 348.683L104.572 410.511L122.63 383.962L136.893 324.4Z" fill="#ECE0D3"/>
<path d="M139.627 380.339L130.959 373.029L139.627 395.446L148.253 397.268L139.627 380.339Z" fill="#DC5955"/>
<path d="M156.879 389.174L153.785 375.529L139.627 380.338L149.737 400.171L156.879 389.174Z" fill="#DC5955"/>
<path d="M169.956 397.078L164.212 391.823C164.212 391.823 159.635 385.466 157.706 384.937L156.858 389.174C156.858 389.174 142.912 387.288 142.573 387.861C142.234 388.433 140.645 391.081 140.645 391.081L144.883 392.543C144.883 392.543 143.336 394.154 143.506 394.853C143.709 395.412 144.003 395.935 144.375 396.4C143.997 397.558 143.783 398.763 143.739 399.981C143.739 401.803 147.109 400.15 147.787 401.76C148.465 403.371 158.511 404.473 159.931 404.473C161.351 404.473 174.258 407.651 174.258 407.651L169.956 397.078Z" fill="#E48868"/>
<path d="M171.206 395.383L179.875 394.747C179.958 394.742 180.04 394.72 180.115 394.683C180.19 394.646 180.257 394.594 180.312 394.531C180.367 394.468 180.409 394.395 180.436 394.316C180.463 394.236 180.474 394.152 180.468 394.069C180.477 393.981 180.467 393.893 180.439 393.809C180.411 393.725 180.365 393.649 180.305 393.585C180.245 393.52 180.171 393.47 180.09 393.436C180.008 393.403 179.92 393.387 179.832 393.391L171.164 394.005C171.079 394.008 170.996 394.028 170.92 394.064C170.843 394.1 170.775 394.151 170.719 394.215C170.663 394.279 170.621 394.353 170.596 394.434C170.57 394.514 170.562 394.599 170.57 394.683C170.565 394.771 170.577 394.86 170.606 394.943C170.635 395.026 170.68 395.103 170.74 395.168C170.799 395.233 170.871 395.286 170.951 395.323C171.031 395.36 171.118 395.38 171.206 395.383Z" fill="#CFB199"/>
<path d="M174.237 394.938C174.328 394.959 174.422 394.959 174.513 394.938C174.589 394.903 174.659 394.854 174.716 394.793C174.774 394.731 174.819 394.659 174.849 394.58C174.878 394.501 174.892 394.417 174.889 394.333C174.886 394.249 174.866 394.166 174.83 394.09C169.865 382.746 166.203 370.875 163.915 358.705C163.402 356.505 163.231 354.24 163.407 351.988C163.495 350.923 163.802 349.888 164.309 348.947C164.816 348.006 165.512 347.18 166.353 346.521C166.425 346.477 166.488 346.417 166.536 346.347C166.584 346.277 166.617 346.197 166.633 346.114C166.649 346.03 166.648 345.944 166.629 345.861C166.609 345.778 166.573 345.7 166.522 345.631C166.475 345.561 166.415 345.501 166.345 345.455C166.274 345.408 166.196 345.376 166.113 345.36C166.03 345.345 165.945 345.345 165.862 345.363C165.78 345.38 165.702 345.414 165.632 345.462C164.64 346.221 163.817 347.178 163.215 348.273C162.613 349.367 162.245 350.574 162.135 351.819C161.943 354.198 162.122 356.592 162.665 358.917C164.965 371.19 168.655 383.161 173.665 394.599C173.72 394.702 173.802 394.789 173.903 394.849C174.004 394.909 174.12 394.939 174.237 394.938Z" fill="#CFB199"/>
<path d="M107.222 401.442C107.332 401.439 107.441 401.408 107.537 401.352C107.633 401.297 107.714 401.219 107.773 401.125L134.159 355.251C134.201 355.179 134.228 355.099 134.239 355.016C134.25 354.933 134.244 354.849 134.223 354.768C134.201 354.688 134.164 354.612 134.113 354.546C134.062 354.48 133.998 354.424 133.926 354.382C133.779 354.303 133.607 354.284 133.445 354.327C133.284 354.37 133.145 354.473 133.057 354.615L106.755 400.489C106.714 400.563 106.688 400.644 106.679 400.727C106.67 400.811 106.677 400.896 106.701 400.977C106.724 401.057 106.764 401.133 106.817 401.198C106.87 401.264 106.935 401.318 107.01 401.358C107.074 401.4 107.146 401.429 107.222 401.442Z" fill="#CFB199"/>
<path d="M122.057 327.43L120.235 318.489C120.235 318.489 114.512 318.15 112.965 315.162C112.308 313.912 112.774 309.547 114.555 303C114.745 302.301 111.715 302.83 111.927 302.11C112.351 300.733 119.048 296.029 119.493 293.359C121.146 283.57 122.757 281.324 126.317 279.607C134.286 275.751 158.108 281.917 157.579 293.062C157.049 304.208 151.877 308.848 141.853 321.582L142.192 323.701C142.452 325.303 142.327 326.945 141.828 328.489C141.328 330.034 140.468 331.437 139.319 332.584C138.17 333.731 136.765 334.588 135.219 335.084C133.673 335.581 132.031 335.703 130.429 335.44C128.389 335.104 126.498 334.159 125.004 332.73C123.51 331.301 122.483 329.453 122.057 327.43Z" fill="#E48868"/>
<path d="M141.853 321.582L139.352 309.759C139.352 309.759 149.228 304.165 144.989 298.635C140.751 293.105 128.034 311.581 128.034 311.581L126.911 308.848L132.654 296.855C131.518 295.775 130.641 294.451 130.09 292.983C129.539 291.515 129.329 289.941 129.475 288.38C129.475 288.38 118.348 283.972 119.26 276.154C120.171 268.335 153.742 280.18 159.528 286.748C165.314 293.317 156.519 306.517 141.853 321.582Z" fill="#393762"/>
</g>
<circle cx="171.667" cy="195.667" r="19.667" fill="url(#paint0_linear)" fill-opacity="0.8"/>
<circle cx="126.063" cy="215.063" r="11.0627" fill="url(#paint1_linear)" fill-opacity="0.8"/>
<g filter="url(#filter0_i)">
<path d="M321.679 34.7536C294.244 29.2675 267.38 52.8259 277.747 82.7419C294.529 112.499 308.845 175.2 284.837 217.919C260.83 260.638 251.639 367.896 356.015 273.073C460.392 178.249 439.472 234.337 511.156 239.723C568.503 244.031 572.884 192.727 566.837 169.126C556.699 129.555 513.076 101.554 453.855 139.676C394.634 177.797 374.256 117.449 364.125 76.8336C358.656 54.905 349.115 40.2396 321.679 34.7536Z" fill="url(#paint2_linear)" fill-opacity="0.9"/>
</g>
<g filter="url(#filter1_i)">
<path d="M215.42 155.606C188.419 92.8966 259.697 60.8105 275.595 81.5048C408.978 255.136 436.042 127.996 467.555 218.635C499.067 309.274 594.057 204.278 505.57 337.292C434.781 443.702 392.309 383.467 398.661 343.716C399.052 298.583 363.292 239.4 320.188 254.241C170.709 305.706 249.171 233.993 215.42 155.606Z" fill="url(#paint3_linear)" fill-opacity="0.7"/>
</g>
<defs>
<filter id="filter0_i" x="269.273" y="33.9561" width="299.602" height="281.13" filterUnits="userSpaceOnUse" color-interpolation-filters="sRGB">
<feFlood flood-opacity="0" result="BackgroundImageFix"/>
<feBlend mode="normal" in="SourceGraphic" in2="BackgroundImageFix" result="shape"/>
<feColorMatrix in="SourceAlpha" type="matrix" values="0 0 0 0 0 0 0 0 0 0 0 0 0 0 0 0 0 0 127 0" result="hardAlpha"/>
<feOffset dy="4"/>
<feGaussianBlur stdDeviation="50"/>
<feComposite in2="hardAlpha" operator="arithmetic" k2="-1" k3="1"/>
<feColorMatrix type="matrix" values="0 0 0 0 0 0 0 0 0 0 0 0 0 0 0 0 0 0 0.17 0"/>
<feBlend mode="normal" in2="shape" result="effect1_innerShadow"/>
</filter>
<filter id="filter1_i" x="209.375" y="75.2412" width="332.965" height="325.806" filterUnits="userSpaceOnUse" color-interpolation-filters="sRGB">
<feFlood flood-opacity="0" result="BackgroundImageFix"/>
<feBlend mode="normal" in="SourceGraphic" in2="BackgroundImageFix" result="shape"/>
<feColorMatrix in="SourceAlpha" type="matrix" values="0 0 0 0 0 0 0 0 0 0 0 0 0 0 0 0 0 0 127 0" result="hardAlpha"/>
<feOffset dy="4"/>
<feGaussianBlur stdDeviation="50"/>
<feComposite in2="hardAlpha" operator="arithmetic" k2="-1" k3="1"/>
<feColorMatrix type="matrix" values="0 0 0 0 0 0 0 0 0 0 0 0 0 0 0 0 0 0 0.25 0"/>
<feBlend mode="normal" in2="shape" result="effect1_innerShadow"/>
</filter>
<linearGradient id="paint0_linear" x1="171.667" y1="176" x2="171.667" y2="215.334" gradientUnits="userSpaceOnUse">
<stop stop-color="#BE49A0"/>
<stop offset="1" stop-color="#713DE8"/>
</linearGradient>
<linearGradient id="paint1_linear" x1="126.063" y1="204" x2="126.063" y2="226.125" gradientUnits="userSpaceOnUse">
<stop stop-color="#BE49A0"/>
<stop offset="1" stop-color="#713DE8"/>
</linearGradient>
<linearGradient id="paint2_linear" x1="545.128" y1="173.936" x2="290.055" y2="249.02" gradientUnits="userSpaceOnUse">
<stop stop-color="#A56EE9"/>
<stop offset="1" stop-color="#7558F2"/>
</linearGradient>
<linearGradient id="paint3_linear" x1="222.085" y1="149.488" x2="516.058" y2="221.852" gradientUnits="userSpaceOnUse">
<stop stop-color="#4D40E8"/>
<stop offset="1" stop-color="#BD48A3"/>
</linearGradient>
<clipPath id="clip0">
<rect width="163.236" height="425.3" fill="white" transform="matrix(-1 0 0 1 196.236 226)"/>
</clipPath>
</defs>
</svg>
