<svg width="930" height="1725" viewBox="0 0 930 1725" fill="none" xmlns="http://www.w3.org/2000/svg">
<rect x="199" width="468" height="1639" fill="#4B2DA0"/>
<g clip-path="url(#clip0)">
<path d="M554.389 1312.5C553.397 1303.1 551.372 1295.26 550.078 1285.86H425.072C422.658 1293.88 431.15 1301.51 430.374 1307.41C427.572 1327.84 444.771 1376.36 444.771 1376.36L449.211 1402.48L455.332 1503.28C455.332 1503.28 450.03 1552.58 446.926 1591.62C446.452 1597.61 446.237 1603.52 446.237 1609.29C446.157 1610.73 446.157 1612.16 446.237 1613.6C447.142 1643.77 457.013 1671.52 457.53 1702.98L472.79 1706.68C472.79 1706.68 478.652 1654.97 484.687 1609.07C485.678 1601.32 486.713 1593.78 487.704 1586.67L487.316 1591.41C486.842 1597.4 486.627 1603.3 486.627 1609.07C486.627 1610.63 486.627 1612.13 486.842 1613.38C487.748 1643.55 497.619 1671.3 498.136 1702.76L513.395 1706.47C513.395 1706.47 519.258 1654.76 525.293 1608.86C529.603 1576.11 533.914 1546.41 536.414 1540.98C540.207 1532.37 546.975 1459.36 554.087 1407.86C557.32 1388.69 556.458 1331.54 554.389 1312.5Z" fill="#B77053"/>
<path d="M498.352 1698.37L493.481 1725H547.708L517.922 1711.68L514.775 1698.37H498.352Z" fill="#393762"/>
<path d="M415.589 1237.04C415.589 1237.04 415.33 1284.44 419.641 1289.18L430.417 1307.11L554.389 1312.5L556.07 1294.96L562.191 1290.65C564.698 1288.98 566.649 1286.59 567.793 1283.81C568.938 1281.02 569.223 1277.95 568.614 1275L536.845 1193.64C535.755 1180.88 535.611 1168.06 536.414 1155.29C538.052 1142.75 507.835 1074.05 501.929 1066.38C496.024 1058.71 473.092 1057.33 463.134 1066.38C453.177 1075.43 426.839 1115.21 424.598 1123.57C422.356 1131.93 415.589 1237.04 415.589 1237.04Z" fill="#ECE0D3"/>
<path d="M472.919 1058.8C459.988 1061.94 403.95 1094.35 398.864 1104.78C393.777 1115.21 351.189 1228.46 366.19 1241.09C381.19 1253.71 427.658 1235.27 427.658 1235.27L433.823 1168.17L472.919 1058.8Z" fill="#ECE0D3"/>
<path d="M501.585 1363.87C501.398 1363.87 501.212 1363.84 501.04 1363.76C500.868 1363.69 500.716 1363.58 500.593 1363.43C493.982 1355.71 489.838 1346.17 488.696 1336.07C488.672 1335.9 488.682 1335.73 488.726 1335.57C488.77 1335.4 488.847 1335.25 488.952 1335.12C489.056 1334.98 489.187 1334.87 489.336 1334.79C489.485 1334.71 489.648 1334.66 489.817 1334.65C489.987 1334.62 490.16 1334.63 490.326 1334.68C490.492 1334.72 490.648 1334.8 490.785 1334.9C490.921 1335 491.035 1335.13 491.121 1335.28C491.206 1335.43 491.261 1335.6 491.282 1335.77C492.377 1345.32 496.311 1354.33 502.576 1361.62C502.816 1361.87 502.95 1362.21 502.95 1362.55C502.95 1362.9 502.816 1363.23 502.576 1363.48C502.456 1363.62 502.302 1363.73 502.129 1363.8C501.956 1363.86 501.769 1363.89 501.585 1363.87Z" fill="#734E4F"/>
<path d="M457.746 1698.37L452.875 1725H507.102L477.316 1711.68L474.169 1698.37H457.746Z" fill="#393762"/>
<path d="M490.852 1579.08H490.55C490.216 1578.99 489.931 1578.77 489.754 1578.47C489.577 1578.18 489.522 1577.82 489.602 1577.49C489.86 1576.37 517.491 1464.23 522.276 1443.07C527.061 1421.91 524.388 1333.74 524.388 1332.88C524.371 1332.71 524.393 1332.53 524.452 1332.37C524.512 1332.2 524.608 1332.05 524.733 1331.93L538.009 1317.84C538.249 1317.59 538.58 1317.44 538.927 1317.43C539.275 1317.43 539.611 1317.56 539.863 1317.8C540.114 1318.04 540.26 1318.37 540.268 1318.71C540.276 1319.06 540.146 1319.4 539.906 1319.65L526.974 1333.35C527.19 1341.5 529.388 1422.95 524.776 1443.63C520.164 1464.32 492.317 1576.97 492.317 1578.09C492.245 1578.41 492.053 1578.69 491.781 1578.88C491.508 1579.06 491.176 1579.13 490.852 1579.08Z" fill="#734E4F"/>
<path d="M433.779 1297.54C433.609 1297.54 433.441 1297.51 433.284 1297.44C433.127 1297.38 432.985 1297.28 432.865 1297.16C432.745 1297.04 432.65 1296.9 432.585 1296.74C432.52 1296.59 432.486 1296.42 432.486 1296.25C432.486 1296.08 432.52 1295.91 432.585 1295.75C432.65 1295.6 432.745 1295.46 432.865 1295.34C432.985 1295.22 433.127 1295.12 433.284 1295.06C433.441 1294.99 433.609 1294.96 433.779 1294.96L549.432 1294.27C549.74 1294.32 550.018 1294.49 550.219 1294.73C550.419 1294.97 550.529 1295.27 550.529 1295.58C550.529 1295.89 550.419 1296.2 550.219 1296.44C550.018 1296.68 549.74 1296.84 549.432 1296.9L433.779 1297.54Z" fill="#CFB199"/>
<path d="M655.171 985.234L657.714 971.788C657.714 971.788 668.016 962.178 670.171 960.627C672.327 959.075 678.792 942.57 679.439 940.975C680.086 939.381 667.24 938.605 667.24 938.605C667.098 935.112 666.752 931.63 666.206 928.176C665.861 926.797 662.93 920.635 661.636 924.815L658.791 936.968L654.783 940.975C652.765 945.834 651.318 950.91 650.472 956.102L642.153 973.555C646.377 977.391 650.774 981.312 655.171 985.234Z" fill="#E48868"/>
<path d="M691.422 860L670.947 924.642L662.929 954.248L670.386 954.981L694.913 862.112L691.422 860Z" fill="#ECE0D3"/>
<path d="M679.439 940.975C680.904 937.614 677.628 927.228 676.335 928.047C675.042 928.866 674.525 934.425 674.525 934.425L675.775 937.614C675.775 937.614 673.619 936.838 673.49 937.614C673.361 938.39 672.628 941.923 672.628 941.923L672.283 948.819L679.439 940.975Z" fill="#E48868"/>
<path d="M554.475 1136.8C567.752 1123.35 604.392 1090.99 616.203 1074.44C627.367 1058.8 660.903 981.57 660.903 981.57L642.454 963.729L588.917 1038.97C588.917 1038.97 550.984 1062.37 530.595 1070.86C542.966 1093.32 540.768 1115.12 554.475 1136.8Z" fill="#ECE0D3"/>
<path d="M483.696 1060.13C588.012 1067.16 593.529 1076.38 564.907 1109.52L549.432 1235.27L512.706 1181.27L483.696 1060.13Z" fill="#ECE0D3"/>
<path d="M478.135 1173.9L495.765 1159.04L478.135 1204.63L460.591 1208.34L478.135 1173.9Z" fill="#DC5955"/>
<path d="M443.048 1191.87L449.341 1164.12L478.136 1173.9L457.574 1214.24L443.048 1191.87Z" fill="#DC5955"/>
<path d="M416.451 1207.95L428.132 1197.26C428.132 1197.26 437.443 1184.33 441.366 1183.25L443.09 1191.87C443.09 1191.87 471.454 1188.04 472.143 1189.2C472.833 1190.37 476.066 1195.75 476.066 1195.75L467.445 1198.73C467.445 1198.73 470.591 1202 470.247 1203.42C469.833 1204.56 469.236 1205.62 468.479 1206.57C469.248 1208.92 469.683 1211.38 469.772 1213.85C469.772 1217.56 462.919 1214.2 461.539 1217.47C460.16 1220.75 439.728 1222.99 436.84 1222.99C433.952 1222.99 407.7 1229.45 407.7 1229.45L416.451 1207.95Z" fill="#E48868"/>
<path d="M413.908 1204.5L396.278 1203.21C396.108 1203.2 395.942 1203.15 395.789 1203.08C395.636 1203 395.5 1202.9 395.388 1202.77C395.276 1202.64 395.19 1202.49 395.135 1202.33C395.081 1202.17 395.059 1202 395.071 1201.83C395.052 1201.65 395.072 1201.47 395.129 1201.3C395.186 1201.13 395.279 1200.97 395.402 1200.84C395.525 1200.71 395.674 1200.61 395.84 1200.54C396.006 1200.47 396.185 1200.44 396.364 1200.45L413.994 1201.7C414.166 1201.7 414.335 1201.74 414.491 1201.82C414.646 1201.89 414.785 1202 414.899 1202.13C415.012 1202.25 415.097 1202.41 415.149 1202.57C415.201 1202.73 415.219 1202.91 415.201 1203.08C415.213 1203.26 415.188 1203.44 415.129 1203.61C415.07 1203.78 414.977 1203.93 414.856 1204.06C414.736 1204.2 414.59 1204.3 414.427 1204.38C414.264 1204.45 414.087 1204.49 413.908 1204.5Z" fill="#CFB199"/>
<path d="M407.744 1203.6C407.56 1203.64 407.368 1203.64 407.183 1203.6C407.027 1203.53 406.886 1203.43 406.769 1203.3C406.651 1203.18 406.56 1203.03 406.5 1202.87C406.439 1202.71 406.412 1202.54 406.418 1202.37C406.425 1202.2 406.465 1202.03 406.537 1201.87C416.635 1178.8 424.083 1154.65 428.736 1129.9C429.78 1125.43 430.129 1120.82 429.771 1116.24C429.592 1114.08 428.968 1111.97 427.937 1110.06C426.906 1108.14 425.49 1106.46 423.779 1105.12C423.632 1105.03 423.505 1104.91 423.407 1104.77C423.308 1104.63 423.241 1104.46 423.209 1104.29C423.176 1104.12 423.179 1103.95 423.218 1103.78C423.257 1103.61 423.331 1103.45 423.434 1103.31C423.53 1103.17 423.652 1103.05 423.795 1102.95C423.938 1102.86 424.099 1102.79 424.267 1102.76C424.436 1102.73 424.609 1102.73 424.777 1102.77C424.945 1102.8 425.104 1102.87 425.245 1102.97C427.262 1104.51 428.936 1106.46 430.161 1108.69C431.385 1110.91 432.133 1113.37 432.357 1115.9C432.748 1120.74 432.385 1125.61 431.28 1130.33C426.602 1155.3 419.097 1179.64 408.908 1202.91C408.796 1203.12 408.629 1203.29 408.423 1203.41C408.218 1203.54 407.983 1203.6 407.744 1203.6Z" fill="#CFB199"/>
<path d="M544.044 1216.83C543.819 1216.82 543.598 1216.75 543.403 1216.64C543.208 1216.53 543.043 1216.37 542.923 1216.18L489.257 1122.88C489.172 1122.73 489.116 1122.57 489.094 1122.4C489.072 1122.23 489.083 1122.06 489.127 1121.9C489.171 1121.73 489.247 1121.58 489.351 1121.44C489.454 1121.31 489.584 1121.2 489.731 1121.11C490.03 1120.95 490.38 1120.91 490.708 1121C491.037 1121.09 491.319 1121.3 491.498 1121.59L544.992 1214.89C545.076 1215.04 545.128 1215.2 545.147 1215.37C545.166 1215.54 545.151 1215.71 545.103 1215.88C545.055 1216.04 544.975 1216.2 544.867 1216.33C544.759 1216.46 544.626 1216.57 544.475 1216.65C544.345 1216.74 544.198 1216.8 544.044 1216.83Z" fill="#CFB199"/>
<path d="M513.87 1066.3L517.577 1048.11C517.577 1048.11 529.215 1047.42 532.362 1041.34C533.698 1038.8 532.75 1029.92 529.129 1016.61C528.741 1015.18 534.905 1016.26 534.474 1014.8C533.612 1012 519.991 1002.43 519.086 996.999C515.723 977.089 512.447 972.521 505.206 969.03C488.998 961.187 440.547 973.727 441.625 996.395C442.702 1019.06 453.22 1028.5 473.609 1054.4L472.919 1058.71C472.39 1061.97 472.644 1065.31 473.66 1068.45C474.676 1071.59 476.425 1074.44 478.762 1076.78C481.099 1079.11 483.957 1080.85 487.101 1081.86C490.245 1082.87 493.584 1083.12 496.843 1082.58C500.993 1081.9 504.839 1079.98 507.877 1077.07C510.916 1074.17 513.005 1070.41 513.87 1066.3Z" fill="#E48868"/>
<path d="M473.609 1054.4L478.696 1030.35C478.696 1030.35 458.608 1018.98 467.229 1007.73C475.851 996.482 501.714 1034.06 501.714 1034.06L503.999 1028.5L492.317 1004.11C494.629 1001.91 496.412 999.22 497.532 996.234C498.652 993.248 499.08 990.047 498.783 986.871C498.783 986.871 521.413 977.908 519.56 962.006C517.706 946.104 449.427 970.194 437.659 983.553C425.891 996.913 443.78 1023.76 473.609 1054.4Z" fill="#393762"/>
</g>
<circle cx="320" cy="864" r="40" fill="url(#paint0_linear)" fill-opacity="0.8"/>
<g filter="url(#filter0_i)">
<path d="M366.393 112.071C309.498 100.694 253.788 149.549 275.288 211.588C310.09 273.297 339.778 403.325 289.991 491.915C240.205 580.506 221.145 802.934 437.599 606.292C654.052 409.649 610.669 525.964 759.326 537.132C878.251 546.067 887.335 439.674 874.795 390.729C853.771 308.668 763.308 250.601 640.496 329.657C517.684 408.712 475.426 283.564 454.417 199.336C443.075 153.861 423.288 123.448 366.393 112.071Z" fill="url(#paint1_linear)" fill-opacity="0.9"/>
</g>
<g filter="url(#filter1_i)">
<path d="M146.035 362.692C90.0411 232.647 237.857 166.107 270.824 209.023C547.432 569.095 603.557 305.435 668.906 493.4C734.256 681.365 931.243 463.627 747.742 739.467C600.94 960.14 512.864 835.226 526.036 752.791C526.846 659.194 452.689 536.462 363.301 567.238C53.3147 673.966 216.028 525.25 146.035 362.692Z" fill="url(#paint2_linear)" fill-opacity="0.7"/>
</g>
<circle cx="392.5" cy="934.5" r="22.5" fill="url(#paint3_linear)" fill-opacity="0.8"/>
<defs>
<filter id="filter0_i" x="257.714" y="110.418" width="621.307" height="578.707" filterUnits="userSpaceOnUse" color-interpolation-filters="sRGB">
<feFlood flood-opacity="0" result="BackgroundImageFix"/>
<feBlend mode="normal" in="SourceGraphic" in2="BackgroundImageFix" result="shape"/>
<feColorMatrix in="SourceAlpha" type="matrix" values="0 0 0 0 0 0 0 0 0 0 0 0 0 0 0 0 0 0 127 0" result="hardAlpha"/>
<feOffset dy="4"/>
<feGaussianBlur stdDeviation="50"/>
<feComposite in2="hardAlpha" operator="arithmetic" k2="-1" k3="1"/>
<feColorMatrix type="matrix" values="0 0 0 0 0 0 0 0 0 0 0 0 0 0 0 0 0 0 0.17 0"/>
<feBlend mode="normal" in2="shape" result="effect1_innerShadow"/>
</filter>
<filter id="filter1_i" x="133.5" y="196.033" width="690.494" height="671.353" filterUnits="userSpaceOnUse" color-interpolation-filters="sRGB">
<feFlood flood-opacity="0" result="BackgroundImageFix"/>
<feBlend mode="normal" in="SourceGraphic" in2="BackgroundImageFix" result="shape"/>
<feColorMatrix in="SourceAlpha" type="matrix" values="0 0 0 0 0 0 0 0 0 0 0 0 0 0 0 0 0 0 127 0" result="hardAlpha"/>
<feOffset dy="4"/>
<feGaussianBlur stdDeviation="50"/>
<feComposite in2="hardAlpha" operator="arithmetic" k2="-1" k3="1"/>
<feColorMatrix type="matrix" values="0 0 0 0 0 0 0 0 0 0 0 0 0 0 0 0 0 0 0.25 0"/>
<feBlend mode="normal" in2="shape" result="effect1_innerShadow"/>
</filter>
<linearGradient id="paint0_linear" x1="320" y1="824" x2="320" y2="904" gradientUnits="userSpaceOnUse">
<stop stop-color="#BE49A0"/>
<stop offset="1" stop-color="#713DE8"/>
</linearGradient>
<linearGradient id="paint1_linear" x1="829.776" y1="400.705" x2="300.812" y2="556.413" gradientUnits="userSpaceOnUse">
<stop stop-color="#A56EE9"/>
<stop offset="1" stop-color="#7558F2"/>
</linearGradient>
<linearGradient id="paint2_linear" x1="159.857" y1="350.005" x2="769.492" y2="500.071" gradientUnits="userSpaceOnUse">
<stop stop-color="#4D40E8"/>
<stop offset="1" stop-color="#BD48A3"/>
</linearGradient>
<linearGradient id="paint3_linear" x1="392.5" y1="912" x2="392.5" y2="957" gradientUnits="userSpaceOnUse">
<stop stop-color="#BE49A0"/>
<stop offset="1" stop-color="#713DE8"/>
</linearGradient>
<clipPath id="clip0">
<rect width="332" height="865" fill="white" transform="translate(363 860)"/>
</clipPath>
</defs>
</svg>
