<svg width="876" height="841" viewBox="0 0 876 841" fill="none" xmlns="http://www.w3.org/2000/svg">
<g filter="url(#filter0_i)">
<path d="M312.393 70.0712C255.498 58.6944 199.788 107.549 221.288 169.588C256.09 231.297 285.778 361.325 235.991 449.915C186.205 538.506 167.145 760.934 383.599 564.292C600.052 367.649 556.669 483.964 705.326 495.132C824.251 504.067 833.335 397.674 820.795 348.729C799.771 266.668 709.308 208.601 586.496 287.657C463.684 366.712 421.426 241.564 400.417 157.336C389.075 111.861 369.288 81.4481 312.393 70.0712Z" fill="url(#paint0_linear)" fill-opacity="0.9"/>
</g>
<defs>
<filter id="filter0_i" x="0" y="0" width="875.691" height="844.633" filterUnits="userSpaceOnUse" color-interpolation-filters="sRGB">
<feFlood flood-opacity="0" result="BackgroundImageFix"/>
<feBlend mode="normal" in="SourceGraphic" in2="BackgroundImageFix" result="shape"/>
<feColorMatrix in="SourceAlpha" type="matrix" values="0 0 0 0 0 0 0 0 0 0 0 0 0 0 0 0 0 0 127 0" result="hardAlpha"/>
<feOffset dy="4"/>
<feGaussianBlur stdDeviation="50"/>
<feComposite in2="hardAlpha" operator="arithmetic" k2="-1" k3="1"/>
<feColorMatrix type="matrix" values="0 0 0 0 0 0 0 0 0 0 0 0 0 0 0 0 0 0 0.17 0"/>
<feBlend mode="normal" in2="shape" result="effect1_innerShadow"/>
</filter>
<linearGradient id="paint0_linear" x1="775.776" y1="358.705" x2="246.812" y2="514.413" gradientUnits="userSpaceOnUse">
<stop stop-color="#A56EE9"/>
<stop offset="1" stop-color="#7558F2"/>
</linearGradient>
</defs>
</svg>
