<svg width="164" height="426" viewBox="0 0 164 426" fill="none" xmlns="http://www.w3.org/2000/svg">
<path d="M69.1351 222.481C69.6226 217.862 70.6187 214.006 71.2545 209.387H132.717C133.904 213.328 129.729 217.078 130.11 219.981C131.488 230.025 123.032 253.883 123.032 253.883L120.849 266.723L117.839 316.284C117.839 316.284 120.446 340.524 121.972 359.721C122.205 362.666 122.311 365.569 122.311 368.408C122.35 369.114 122.35 369.821 122.311 370.527C121.866 385.359 117.012 399.004 116.758 414.472L109.255 416.294C109.255 416.294 106.373 390.868 103.406 368.302C102.918 364.488 102.41 360.78 101.922 357.284L102.113 359.615C102.346 362.56 102.452 365.463 102.452 368.302C102.452 369.065 102.452 369.806 102.346 370.421C101.901 385.253 97.0477 398.899 96.7933 414.366L89.2907 416.188C89.2907 416.188 86.4083 390.762 83.4411 368.196C81.3217 352.093 79.2023 337.494 77.973 334.824C76.108 330.586 72.7805 294.692 69.2835 269.372C67.6939 259.943 68.1178 231.847 69.1351 222.481Z" fill="#B77053"/>
<path d="M96.6871 412.205L99.0821 425.3H72.42L87.0651 418.752L88.6122 412.205H96.6871Z" fill="#393762"/>
<path d="M137.38 185.38C137.38 185.38 137.507 208.688 135.388 211.018L130.089 219.833L69.1351 222.481L68.3085 213.858L65.299 211.739C64.0663 210.917 63.1072 209.746 62.5445 208.375C61.9819 207.005 61.8414 205.498 62.141 204.047L77.761 164.043C78.297 157.771 78.3679 151.468 77.973 145.185C77.1676 139.019 92.0246 105.244 94.9282 101.473C97.8318 97.7011 109.107 97.0231 114.003 101.473C118.899 105.922 131.848 125.48 132.95 129.59C134.052 133.701 137.38 185.38 137.38 185.38Z" fill="#ECE0D3"/>
<path d="M109.192 97.7434C115.55 99.2902 143.102 115.224 145.603 120.352C148.104 125.479 169.044 181.163 161.668 187.372C154.293 193.58 131.445 184.511 131.445 184.511L128.415 151.52L109.192 97.7434Z" fill="#ECE0D3"/>
<path d="M95.0977 247.738C95.1896 247.742 95.2812 247.724 95.3655 247.688C95.4499 247.651 95.525 247.596 95.5852 247.526C98.8358 243.726 100.873 239.04 101.435 234.072C101.447 233.989 101.442 233.905 101.42 233.825C101.398 233.744 101.361 233.669 101.309 233.604C101.258 233.538 101.193 233.484 101.12 233.444C101.047 233.405 100.967 233.38 100.884 233.372C100.8 233.36 100.715 233.365 100.633 233.387C100.552 233.408 100.475 233.445 100.408 233.497C100.341 233.548 100.285 233.612 100.243 233.685C100.201 233.759 100.173 233.839 100.163 233.923C99.6251 238.621 97.6909 243.049 94.6102 246.636C94.4924 246.759 94.4266 246.922 94.4266 247.092C94.4266 247.262 94.4924 247.425 94.6102 247.548C94.6693 247.617 94.7448 247.671 94.8299 247.704C94.915 247.738 95.007 247.749 95.0977 247.738Z" fill="#734E4F"/>
<path d="M116.652 412.205L119.047 425.3H92.385L107.03 418.752L108.577 412.205H116.652Z" fill="#393762"/>
<path d="M100.375 353.555H100.523C100.687 353.51 100.828 353.403 100.915 353.257C101.002 353.111 101.028 352.936 100.989 352.771C100.862 352.22 87.2769 297.087 84.9244 286.683C82.5719 276.28 83.8859 232.928 83.8859 232.504C83.8944 232.418 83.8836 232.332 83.8543 232.251C83.8249 232.171 83.7778 232.098 83.7163 232.038L77.1886 225.109C77.0705 224.985 76.9082 224.914 76.7373 224.91C76.5664 224.906 76.4009 224.97 76.2772 225.088C76.1536 225.206 76.0819 225.368 76.0779 225.539C76.0739 225.71 76.138 225.875 76.256 225.999L82.6142 232.737C82.5083 236.741 81.4274 276.788 83.6951 286.959C85.9629 297.129 99.6543 352.517 99.6543 353.067C99.6899 353.225 99.7843 353.363 99.9181 353.454C100.052 353.544 100.215 353.58 100.375 353.555Z" fill="#734E4F"/>
<path d="M128.436 215.129C128.52 215.129 128.602 215.112 128.679 215.08C128.756 215.049 128.827 215.002 128.886 214.943C128.945 214.884 128.991 214.814 129.023 214.736C129.055 214.659 129.072 214.577 129.072 214.493C129.072 214.41 129.055 214.327 129.023 214.25C128.991 214.173 128.945 214.103 128.886 214.044C128.827 213.985 128.756 213.938 128.679 213.906C128.602 213.874 128.52 213.858 128.436 213.858L71.5725 213.519C71.4211 213.546 71.2842 213.626 71.1856 213.744C71.087 213.862 71.033 214.011 71.033 214.165C71.033 214.319 71.087 214.468 71.1856 214.586C71.2842 214.704 71.4211 214.784 71.5725 214.811L128.436 215.129Z" fill="#CFB199"/>
<path d="M19.5833 61.5744L18.3328 54.9636C18.3328 54.9636 13.2674 50.2385 12.2077 49.4757C11.148 48.7129 7.96891 40.5976 7.651 39.8137C7.33309 39.0297 13.6489 38.6483 13.6489 38.6483C13.7189 36.9306 13.8888 35.2185 14.1576 33.5206C14.3271 32.8426 15.7683 29.8126 16.4042 31.8679L17.803 37.8431L19.774 39.8137C20.766 42.2024 21.4772 44.6982 21.8934 47.2509L25.9839 55.8323C23.9068 57.7181 21.7451 59.6463 19.5833 61.5744Z" fill="#E48868"/>
<path d="M1.75934 0L11.8265 31.7831L15.7686 46.3397L12.102 46.6999L0.0426331 1.03825L1.75934 0Z" fill="#ECE0D3"/>
<path d="M7.65105 39.8137C6.93045 38.161 8.5412 33.0545 9.17702 33.4571C9.81284 33.8597 10.0672 36.593 10.0672 36.593L9.45255 38.161C9.45255 38.161 10.5123 37.7796 10.5758 38.161C10.6394 38.5424 10.9997 40.2799 10.9997 40.2799L11.1693 43.6701L7.65105 39.8137Z" fill="#E48868"/>
<path d="M69.0927 136.095C62.565 129.484 44.55 113.571 38.7429 105.435C33.2536 97.7433 16.7646 59.7731 16.7646 59.7731L25.8357 51.001L52.1587 87.9964C52.1587 87.9964 70.8094 99.5019 80.8342 103.676C74.7515 114.715 75.8324 125.437 69.0927 136.095Z" fill="#ECE0D3"/>
<path d="M103.893 98.4004C52.6036 101.854 49.8907 106.389 63.9636 122.683L71.5722 184.511L89.6295 157.962L103.893 98.4004Z" fill="#ECE0D3"/>
<path d="M106.627 154.339L97.959 147.029L106.627 169.446L115.253 171.268L106.627 154.339Z" fill="#DC5955"/>
<path d="M123.879 163.174L120.785 149.529L106.627 154.338L116.737 174.171L123.879 163.174Z" fill="#DC5955"/>
<path d="M136.956 171.078L131.212 165.823C131.212 165.823 126.635 159.466 124.706 158.937L123.858 163.174C123.858 163.174 109.912 161.288 109.573 161.861C109.234 162.433 107.645 165.081 107.645 165.081L111.883 166.543C111.883 166.543 110.336 168.154 110.506 168.853C110.709 169.412 111.003 169.935 111.375 170.4C110.997 171.558 110.783 172.763 110.739 173.981C110.739 175.803 114.109 174.15 114.787 175.76C115.465 177.371 125.511 178.473 126.931 178.473C128.351 178.473 141.258 181.651 141.258 181.651L136.956 171.078Z" fill="#E48868"/>
<path d="M138.206 169.383L146.875 168.747C146.958 168.742 147.04 168.72 147.115 168.683C147.19 168.646 147.257 168.594 147.312 168.531C147.367 168.468 147.409 168.395 147.436 168.316C147.463 168.236 147.474 168.152 147.468 168.069C147.477 167.981 147.467 167.893 147.439 167.809C147.411 167.725 147.365 167.649 147.305 167.585C147.245 167.52 147.171 167.47 147.09 167.436C147.008 167.403 146.92 167.387 146.832 167.391L138.164 168.005C138.079 168.008 137.996 168.028 137.92 168.064C137.843 168.1 137.775 168.151 137.719 168.215C137.663 168.279 137.621 168.353 137.596 168.434C137.57 168.514 137.562 168.599 137.57 168.683C137.565 168.771 137.577 168.86 137.606 168.943C137.635 169.026 137.68 169.103 137.74 169.168C137.799 169.233 137.871 169.286 137.951 169.323C138.031 169.36 138.118 169.38 138.206 169.383Z" fill="#CFB199"/>
<path d="M141.237 168.938C141.328 168.959 141.422 168.959 141.513 168.938C141.589 168.903 141.659 168.854 141.716 168.793C141.774 168.731 141.819 168.659 141.849 168.58C141.878 168.501 141.892 168.417 141.889 168.333C141.886 168.249 141.866 168.166 141.83 168.09C136.865 156.746 133.203 144.875 130.915 132.705C130.402 130.505 130.231 128.24 130.407 125.988C130.495 124.923 130.802 123.888 131.309 122.947C131.816 122.006 132.512 121.18 133.353 120.521C133.425 120.477 133.488 120.417 133.536 120.347C133.584 120.277 133.617 120.197 133.633 120.114C133.649 120.03 133.648 119.944 133.629 119.861C133.609 119.778 133.573 119.7 133.522 119.631C133.475 119.561 133.415 119.501 133.345 119.455C133.274 119.408 133.196 119.376 133.113 119.36C133.03 119.345 132.945 119.345 132.862 119.363C132.78 119.38 132.702 119.414 132.632 119.462C131.64 120.221 130.817 121.178 130.215 122.273C129.613 123.367 129.245 124.574 129.135 125.819C128.943 128.198 129.122 130.592 129.665 132.917C131.965 145.19 135.655 157.161 140.665 168.599C140.72 168.702 140.802 168.789 140.903 168.849C141.004 168.909 141.12 168.939 141.237 168.938Z" fill="#CFB199"/>
<path d="M74.2215 175.442C74.3324 175.439 74.4406 175.408 74.5366 175.352C74.6327 175.297 74.7137 175.219 74.7726 175.125L101.159 129.251C101.201 129.179 101.228 129.099 101.239 129.016C101.25 128.933 101.244 128.849 101.223 128.768C101.201 128.688 101.164 128.612 101.113 128.546C101.062 128.48 100.998 128.424 100.926 128.382C100.779 128.303 100.607 128.284 100.445 128.327C100.284 128.37 100.145 128.473 100.057 128.615L73.7552 174.489C73.7143 174.563 73.6884 174.644 73.679 174.727C73.6697 174.811 73.677 174.896 73.7007 174.977C73.7243 175.057 73.7638 175.133 73.8169 175.198C73.8699 175.264 73.9354 175.318 74.0096 175.358C74.0735 175.4 74.1457 175.429 74.2215 175.442Z" fill="#CFB199"/>
<path d="M89.0574 101.43L87.2347 92.4888C87.2347 92.4888 81.5123 92.1497 79.9652 89.1621C79.3081 87.912 79.7744 83.5471 81.5547 76.9998C81.7454 76.3006 78.7147 76.8303 78.9266 76.1099C79.3505 74.7326 86.0478 70.0287 86.4929 67.359C88.146 57.5698 89.7568 55.3238 93.3174 53.6075C101.286 49.7511 125.108 55.9171 124.579 67.0623C124.049 78.2076 118.877 82.8479 108.853 95.5823L109.192 97.7012C109.452 99.3034 109.327 100.945 108.828 102.489C108.328 104.034 107.468 105.437 106.319 106.584C105.17 107.731 103.765 108.588 102.219 109.084C100.673 109.581 99.0312 109.703 97.429 109.44C95.3887 109.104 93.4976 108.159 92.0037 106.73C90.5098 105.301 89.4828 103.453 89.0574 101.43Z" fill="#E48868"/>
<path d="M108.853 95.5822L106.352 83.7589C106.352 83.7589 116.228 78.1651 111.989 72.6349C107.751 67.1046 95.0341 85.5812 95.0341 85.5812L93.9108 82.8478L99.6544 70.855C98.5176 69.7748 97.6408 68.4508 97.0901 66.9827C96.5394 65.5146 96.3292 63.9407 96.4753 62.3795C96.4753 62.3795 85.3484 57.9723 86.2598 50.1537C87.1711 42.335 120.742 54.1795 126.528 60.748C132.314 67.3165 123.519 80.5171 108.853 95.5822Z" fill="#393762"/>
</svg>
