<svg width="332" height="865" viewBox="0 0 332 865" fill="none" xmlns="http://www.w3.org/2000/svg">
<path d="M191.389 452.496C190.397 443.101 188.372 435.258 187.078 425.863H62.0718C59.6579 433.879 68.1497 441.507 67.3738 447.411C64.572 467.838 81.7711 516.362 81.7711 516.362L86.211 542.478L92.332 643.277C92.332 643.277 87.03 692.577 83.9264 731.621C83.4523 737.612 83.2367 743.515 83.2367 749.29C83.1568 750.726 83.1568 752.164 83.2367 753.6C84.142 783.766 94.0132 811.519 94.5304 842.978L109.79 846.685C109.79 846.685 115.652 794.971 121.687 749.075C122.678 741.318 123.713 733.776 124.704 726.665L124.316 731.406C123.842 737.396 123.627 743.3 123.627 749.075C123.627 750.626 123.627 752.134 123.842 753.384C124.748 783.551 134.619 811.304 135.136 842.763L150.395 846.469C150.395 846.469 156.258 794.755 162.293 748.859C166.603 716.107 170.914 686.415 173.414 680.985C177.207 672.366 183.975 599.363 191.087 547.865C194.32 528.688 193.458 471.544 191.389 452.496Z" fill="#B77053"/>
<path d="M135.352 838.367L130.481 865H184.708L154.922 851.684L151.775 838.367H135.352Z" fill="#393762"/>
<path d="M52.5887 377.037C52.5887 377.037 52.33 424.441 56.6406 429.182L67.417 447.109L191.389 452.496L193.07 434.956L199.191 430.647C201.698 428.975 203.649 426.593 204.793 423.806C205.938 421.019 206.223 417.954 205.614 415.003L173.845 333.64C172.755 320.884 172.611 308.064 173.414 295.286C175.052 282.745 144.835 214.052 138.929 206.381C133.024 198.71 110.092 197.331 100.134 206.381C90.1768 215.431 63.8392 255.208 61.5978 263.568C59.3563 271.928 52.5887 377.037 52.5887 377.037Z" fill="#ECE0D3"/>
<path d="M109.919 198.797C96.9877 201.943 40.9503 234.35 35.8638 244.779C30.7773 255.208 -11.8111 368.461 3.18971 381.088C18.1905 393.715 64.6584 375.27 64.6584 375.27L70.8225 308.171L109.919 198.797Z" fill="#ECE0D3"/>
<path d="M138.585 503.865C138.398 503.872 138.212 503.837 138.04 503.762C137.868 503.688 137.716 503.575 137.593 503.434C130.982 495.705 126.838 486.174 125.696 476.069C125.672 475.901 125.682 475.73 125.726 475.567C125.77 475.403 125.847 475.251 125.952 475.118C126.056 474.985 126.187 474.874 126.336 474.793C126.485 474.712 126.648 474.662 126.817 474.647C126.987 474.622 127.16 474.632 127.326 474.676C127.492 474.719 127.648 474.795 127.785 474.9C127.921 475.004 128.035 475.134 128.121 475.283C128.206 475.432 128.261 475.597 128.282 475.767C129.377 485.321 133.311 494.328 139.576 501.624C139.816 501.873 139.95 502.205 139.95 502.551C139.95 502.896 139.816 503.228 139.576 503.477C139.456 503.619 139.302 503.729 139.129 503.796C138.956 503.864 138.769 503.888 138.585 503.865Z" fill="#734E4F"/>
<path d="M94.7459 838.367L89.875 865H144.102L114.316 851.684L111.169 838.367H94.7459Z" fill="#393762"/>
<path d="M127.852 719.081H127.55C127.216 718.99 126.931 718.772 126.754 718.475C126.577 718.178 126.522 717.823 126.602 717.486C126.86 716.366 154.491 604.233 159.276 583.073C164.061 561.914 161.388 473.742 161.388 472.88C161.371 472.706 161.393 472.531 161.452 472.367C161.512 472.202 161.608 472.054 161.733 471.932L175.009 457.84C175.249 457.588 175.58 457.443 175.927 457.434C176.275 457.426 176.611 457.557 176.863 457.797C177.114 458.037 177.26 458.367 177.268 458.714C177.276 459.062 177.146 459.398 176.906 459.65L163.974 473.354C164.19 481.499 166.388 562.948 161.776 583.634C157.164 604.319 129.317 716.969 129.317 718.09C129.245 718.41 129.053 718.691 128.781 718.875C128.508 719.059 128.176 719.133 127.852 719.081Z" fill="#734E4F"/>
<path d="M70.7793 437.542C70.6094 437.542 70.4413 437.509 70.2844 437.444C70.1275 437.379 69.9849 437.284 69.8648 437.164C69.7448 437.044 69.6495 436.901 69.5845 436.744C69.5195 436.587 69.4861 436.419 69.4861 436.249C69.4861 436.08 69.5195 435.912 69.5845 435.755C69.6495 435.598 69.7448 435.455 69.8648 435.335C69.9849 435.215 70.1275 435.12 70.2844 435.055C70.4413 434.99 70.6094 434.957 70.7793 434.957L186.432 434.267C186.74 434.323 187.018 434.485 187.219 434.725C187.419 434.966 187.529 435.269 187.529 435.581C187.529 435.894 187.419 436.197 187.219 436.438C187.018 436.678 186.74 436.84 186.432 436.896L70.7793 437.542Z" fill="#CFB199"/>
<path d="M292.171 125.234L294.714 111.788C294.714 111.788 305.016 102.178 307.171 100.627C309.327 99.0752 315.792 82.5699 316.439 80.9754C317.086 79.3809 304.24 78.6051 304.24 78.6051C304.098 75.1117 303.752 71.6295 303.206 68.1762C302.861 66.7972 299.93 60.6346 298.636 64.8148L295.791 76.9675L291.783 80.9754C289.765 85.8337 288.318 90.9098 287.472 96.1017L279.153 113.555C283.377 117.391 287.774 121.312 292.171 125.234Z" fill="#E48868"/>
<path d="M328.422 0L307.947 64.6423L299.929 94.2485L307.386 94.9811L331.913 2.11165L328.422 0Z" fill="#ECE0D3"/>
<path d="M316.439 80.9754C317.904 77.614 314.628 67.2281 313.335 68.0469C312.042 68.8657 311.525 74.4249 311.525 74.4249L312.775 77.614C312.775 77.614 310.619 76.8383 310.49 77.614C310.361 78.3897 309.628 81.9235 309.628 81.9235L309.283 88.8186L316.439 80.9754Z" fill="#E48868"/>
<path d="M191.475 276.798C204.752 263.352 241.392 230.988 253.203 214.44C264.367 198.796 297.903 121.57 297.903 121.57L279.454 103.729L225.917 178.973C225.917 178.973 187.984 202.373 167.595 210.863C179.966 233.315 177.768 255.121 191.475 276.798Z" fill="#ECE0D3"/>
<path d="M120.696 200.132C225.012 207.157 230.529 216.379 201.907 249.519L186.432 375.27L149.706 321.272L120.696 200.132Z" fill="#ECE0D3"/>
<path d="M115.135 313.903L132.765 299.035L115.135 344.63L97.5911 348.336L115.135 313.903Z" fill="#DC5955"/>
<path d="M80.0476 331.873L86.341 304.12L115.136 313.903L94.5742 354.239L80.0476 331.873Z" fill="#DC5955"/>
<path d="M53.4506 347.948L65.1323 337.26C65.1323 337.26 74.4431 324.332 78.3657 323.255L80.09 331.874C80.09 331.874 108.454 328.038 109.143 329.202C109.833 330.365 113.066 335.752 113.066 335.752L104.445 338.726C104.445 338.726 107.591 342.001 107.247 343.423C106.833 344.561 106.236 345.624 105.479 346.569C106.248 348.924 106.683 351.376 106.772 353.852C106.772 357.558 99.9186 354.197 98.5392 357.472C97.1598 360.747 76.7277 362.988 73.8396 362.988C70.9516 362.988 44.7002 369.452 44.7002 369.452L53.4506 347.948Z" fill="#E48868"/>
<path d="M50.908 344.5L33.2777 343.207C33.1078 343.196 32.9417 343.152 32.7889 343.077C32.6362 343.001 32.4998 342.897 32.3877 342.768C32.2755 342.64 32.1898 342.491 32.1354 342.33C32.081 342.169 32.0591 341.998 32.0708 341.828C32.0521 341.65 32.072 341.47 32.1291 341.3C32.1863 341.13 32.2794 340.974 32.4021 340.843C32.5247 340.712 32.6741 340.61 32.8401 340.542C33.0061 340.474 33.1847 340.442 33.3639 340.449L50.9942 341.699C51.1662 341.704 51.3352 341.744 51.4909 341.818C51.6465 341.891 51.7853 341.996 51.8986 342.125C52.0119 342.255 52.0972 342.406 52.1493 342.57C52.2014 342.734 52.219 342.907 52.2011 343.078C52.2128 343.257 52.1883 343.437 52.1291 343.606C52.0698 343.775 51.9771 343.931 51.8564 344.063C51.7358 344.196 51.5896 344.303 51.4266 344.378C51.2637 344.453 51.0873 344.495 50.908 344.5Z" fill="#CFB199"/>
<path d="M44.7439 343.595C44.5596 343.639 44.3677 343.639 44.1835 343.595C44.027 343.526 43.886 343.425 43.7686 343.301C43.6512 343.176 43.5597 343.029 43.4996 342.869C43.4394 342.708 43.4117 342.538 43.4181 342.366C43.4245 342.195 43.4649 342.027 43.5369 341.872C53.6355 318.799 61.0829 294.655 65.7363 269.903C66.7801 265.43 67.129 260.822 66.7709 256.242C66.5922 254.076 65.9678 251.97 64.9367 250.057C63.9057 248.144 62.4902 246.464 60.7792 245.124C60.6318 245.033 60.5049 244.912 60.4067 244.769C60.3084 244.626 60.241 244.465 60.2085 244.295C60.1761 244.124 60.1794 243.949 60.2183 243.78C60.2572 243.612 60.3307 243.453 60.4343 243.314C60.5297 243.171 60.6524 243.049 60.7954 242.954C60.9384 242.86 61.0989 242.794 61.2673 242.762C61.4358 242.73 61.609 242.732 61.7768 242.767C61.9446 242.803 62.1037 242.871 62.2448 242.969C64.2622 244.513 65.9364 246.46 67.1608 248.685C68.3853 250.911 69.1332 253.367 69.3572 255.897C69.7484 260.736 69.3849 265.607 68.2796 270.334C63.6023 295.295 56.0967 319.643 45.9077 342.906C45.7963 343.117 45.6286 343.293 45.4232 343.415C45.2177 343.537 44.9826 343.599 44.7439 343.595Z" fill="#CFB199"/>
<path d="M181.044 356.825C180.819 356.817 180.598 356.754 180.403 356.642C180.208 356.529 180.043 356.37 179.923 356.179L126.257 262.879C126.172 262.731 126.116 262.569 126.094 262.401C126.072 262.232 126.083 262.061 126.127 261.897C126.171 261.733 126.247 261.579 126.351 261.444C126.454 261.309 126.584 261.196 126.731 261.112C127.03 260.951 127.38 260.911 127.708 260.999C128.037 261.087 128.319 261.297 128.498 261.586L181.992 354.886C182.076 355.036 182.128 355.2 182.147 355.371C182.166 355.541 182.151 355.713 182.103 355.878C182.055 356.042 181.975 356.195 181.867 356.328C181.759 356.461 181.626 356.572 181.475 356.653C181.345 356.74 181.198 356.799 181.044 356.825Z" fill="#CFB199"/>
<path d="M150.87 206.295L154.577 188.109C154.577 188.109 166.215 187.42 169.362 181.343C170.698 178.801 169.75 169.923 166.129 156.607C165.741 155.185 171.905 156.262 171.474 154.797C170.612 151.996 156.991 142.429 156.086 136.999C152.723 117.089 149.447 112.521 142.206 109.03C125.998 101.187 77.547 113.727 78.6246 136.395C79.7023 159.063 90.2201 168.501 110.609 194.401L109.919 198.71C109.39 201.969 109.644 205.307 110.66 208.448C111.676 211.59 113.425 214.444 115.762 216.777C118.099 219.109 120.957 220.852 124.101 221.862C127.245 222.872 130.584 223.12 133.843 222.585C137.993 221.902 141.839 219.981 144.877 217.074C147.916 214.167 150.005 210.41 150.87 206.295Z" fill="#E48868"/>
<path d="M110.609 194.401L115.696 170.354C115.696 170.354 95.6083 158.977 104.229 147.729C112.851 136.482 138.714 174.06 138.714 174.06L140.999 168.501L129.317 144.109C131.629 141.912 133.412 139.22 134.532 136.234C135.652 133.248 136.08 130.047 135.783 126.871C135.783 126.871 158.413 117.908 156.56 102.006C154.706 86.1037 86.4267 110.194 74.6589 123.553C62.891 136.913 80.7799 163.761 110.609 194.401Z" fill="#393762"/>
</svg>
