<svg width="455" height="796" viewBox="0 0 455 796" fill="none" xmlns="http://www.w3.org/2000/svg">
<g clip-path="url(#clip0)">
<path d="M109.18 294.553L61.0267 536.844L287.868 552.084L196.481 346.727L109.18 294.553Z" fill="#DE6879"/>
<path d="M116.43 365.611L32.4684 759.549L60.5874 768.332L127.853 558.891L180.664 465.303L228.071 612.558L316.47 766.356L337.164 748.525L265.197 547.955L241.955 365.611H116.43Z" fill="#393762"/>
<path d="M167.352 158.102L154.171 128.238C154.171 128.238 142.967 131.269 138.003 126.526C136.157 124.725 134.268 115.151 133.345 103.249C133.345 101.8 133.126 100.351 133.038 98.8578C132.95 97.3646 126.799 101.449 126.755 99.8679C126.755 96.6619 132.686 87.6589 132.774 84.409C133.038 69.3454 135.191 54.7649 140.859 49.2752C153.688 36.8905 198.722 35.1338 204.829 57.0925C208.038 68.2616 208.094 80.1001 204.993 91.2994C201.892 102.499 195.753 112.623 187.255 120.553L199.469 151.558L167.352 158.102Z" fill="#E48868"/>
<path d="M163.31 112.34C163.31 113.417 163.63 114.47 164.228 115.366C164.827 116.261 165.678 116.959 166.673 117.371C167.669 117.784 168.764 117.892 169.821 117.681C170.878 117.471 171.848 116.953 172.61 116.191C173.372 115.429 173.891 114.459 174.101 113.403C174.312 112.346 174.204 111.251 173.791 110.256C173.379 109.261 172.681 108.411 171.785 107.812C170.889 107.214 169.836 106.895 168.758 106.895C167.313 106.895 165.927 107.468 164.906 108.49C163.884 109.511 163.31 110.896 163.31 112.34Z" fill="#ECE0D3"/>
<path d="M75.3064 250.328L54.4808 269.52C54.4808 269.52 14.6749 183.267 12.8296 181.115C10.9843 178.963 7.86491 160.21 7.68916 158.453C7.51341 156.697 20.8699 158.761 20.8699 158.761C21.8323 155.075 23.0208 151.453 24.4287 147.913C25.1317 146.552 29.5692 140.799 29.9646 145.454V158.629L33.2598 163.767C34.2894 169.311 34.6874 174.954 34.4461 180.588L75.3064 250.328Z" fill="#E48868"/>
<path d="M21.792 176.064L20.2982 143.302L18.8044 117.083L9.22635 118.445L13.8835 175.142L21.792 176.064Z" fill="#393762"/>
<path d="M7.68845 158.102C6.89761 154.237 12.741 144.136 13.8834 145.454C15.0257 146.771 14.3227 152.525 14.3227 152.525L12.2578 155.555C12.2578 155.555 14.6742 155.247 14.6303 156.082C14.5863 156.916 14.6303 160.825 14.6303 160.825L13.4001 168.115L7.68845 158.102Z" fill="#E48868"/>
<path d="M45.5615 181.115L87.1248 262.669C88.9262 250.021 92.5289 257.311 92.5289 257.311C92.5289 257.311 117.177 183.398 142.704 169.477C171.57 153.886 126.755 299.691 126.755 299.691C126.755 299.691 87.8278 321.255 74.0319 315.326C60.2361 309.397 24.4283 236.846 10.9839 202.019C19.5954 196.617 36.5985 185.814 45.5615 181.115Z" fill="#DE6879"/>
<path d="M241.955 365.611L112.695 383.178L125.217 318.312C125.217 318.312 113.135 294.465 106.369 280.543C101.975 271.76 100.569 255.686 117.133 225.208C126.906 207.274 135.449 188.699 142.703 169.608L137.475 154.589L194.943 123.847L201.05 145.805C201.05 145.805 236.77 190.82 242.877 202.019C248.984 213.218 239.011 312.647 238.132 322.221L241.955 365.611Z" fill="#EFC33B"/>
<path d="M252.104 71.6729C251.823 81.2631 249.58 90.694 245.514 99.3847C238.22 115.371 224.996 133.772 205.971 132.63C196.218 132.015 189.979 126.13 182.773 120.553C174.006 114.121 165.857 106.888 158.433 98.9455C154.347 94.5538 151.227 89.2398 147.493 84.4968C138.442 73.0344 118.934 76.1086 111.861 62.5381C104.436 48.1772 115.112 33.2014 125.041 22.5735C150.92 -4.87482 190.638 -6.54367 219.987 13.79C235.173 24.1349 246.098 39.6264 250.742 57.3998C251.801 62.0804 252.259 66.8767 252.104 71.6729Z" fill="#393762"/>
<path d="M45.518 731.705L34.5779 771.231C34.5779 771.231 0.966984 773.69 0.000396729 776.457L48.3299 792.487L60.9395 736.712L45.518 731.705Z" fill="#393762"/>
<path d="M300.785 796H328.509L348.631 777.247L323.676 727.884L309.924 737.985L326.356 774.832L321.259 789.544L300.785 796Z" fill="#393762"/>
<path d="M201.051 145.586C201.051 145.586 166.912 154.852 158.169 171.409C149.426 187.966 232.86 548.395 232.86 548.395L288.044 552.084L247.711 362.625L245.03 317.609C245.03 317.609 252.631 214.843 247.711 203.425C241.516 189.327 201.051 145.586 201.051 145.586Z" fill="#DE6879"/>
<path d="M317.436 462.932C327.014 455.246 350.52 458.54 353.947 461.746C357.374 464.952 369.456 511.592 372.224 523.23L368.709 524.108C369.061 522.791 355.88 463.81 347.576 461.921C339.272 460.033 320.512 464.425 318.139 466.313C315.767 468.202 316.865 529.466 316.865 529.466L311.549 530.257C311.549 530.257 312.252 467.06 317.436 462.932Z" fill="#B77053"/>
<path d="M387.778 515.94L297.402 528.807L308.826 663.458L415.854 650.678L387.778 515.94Z" fill="#393762"/>
<path d="M317.481 467.455C324.598 457.398 348.016 454.016 352.234 456.256C356.452 458.496 372.093 485.373 377.936 495.782L374.817 497.582C374.817 496.221 354.65 457.705 346.127 458.057C337.603 458.408 320.82 467.938 319.018 470.222C317.217 472.506 326.399 516.73 326.399 516.73L321.479 518.97C321.479 518.97 313.658 472.813 317.481 467.455Z" fill="#ECE0D3"/>
<path d="M337.164 425.119C337.164 425.119 347.445 452.216 350.608 458.013C353.771 463.81 352.409 467.455 346.215 465.654C340.02 463.854 342.612 471.276 337.427 468.992C332.243 466.709 333.561 474.921 329.343 473.384C323.06 471.144 323.544 474.218 320.82 474.174C318.096 474.131 318.623 452.216 318.623 452.216C317.474 451.042 316.831 449.466 316.831 447.824C316.831 446.182 317.474 444.606 318.623 443.432C322.182 438.074 298.456 413.086 298.456 413.086L337.164 425.119Z" fill="#E48868"/>
<path d="M247.535 203.425C262.956 218.488 337.164 425.119 337.164 425.119L306.672 438.294C306.672 438.294 288.79 394.948 277.103 383.046C265.416 371.145 261.682 366.182 263.659 346.946C265.636 327.71 212.606 270.003 206.323 247.122C200.04 224.241 214.407 170.926 247.535 203.425Z" fill="#DE6879"/>
<path d="M244.854 307.421C245.16 307.418 245.455 307.309 245.689 307.113C245.815 306.99 245.916 306.844 245.984 306.681C246.053 306.519 246.088 306.345 246.088 306.169C246.088 305.993 246.053 305.819 245.984 305.657C245.916 305.494 245.815 305.348 245.689 305.225C235.581 292.733 226.529 279.425 218.625 265.436C210.892 252.261 206.718 241.852 208.212 228.37C208.834 221.29 211.182 214.47 215.05 208.506C218.918 202.542 224.188 197.616 230.399 194.158C230.717 193.998 230.959 193.719 231.074 193.383C231.189 193.047 231.167 192.678 231.014 192.357C230.936 192.2 230.826 192.06 230.692 191.946C230.558 191.831 230.402 191.745 230.234 191.692C230.066 191.639 229.89 191.619 229.714 191.636C229.539 191.652 229.368 191.703 229.213 191.787C222.596 195.432 216.975 200.647 212.846 206.972C208.717 213.297 206.205 220.539 205.532 228.062C203.95 242.291 208.3 253.051 216.296 266.797C224.279 280.91 233.42 294.336 243.624 306.938C243.774 307.113 243.964 307.248 244.179 307.333C244.393 307.417 244.625 307.447 244.854 307.421Z" fill="#C55469"/>
<path d="M107.335 307.113C107.645 307.101 107.943 306.987 108.181 306.789C108.42 306.59 108.586 306.318 108.653 306.015L110.147 297.627C110.148 297.308 110.036 296.999 109.832 296.754C109.628 296.509 109.345 296.343 109.031 296.286C108.717 296.228 108.393 296.283 108.115 296.44C107.838 296.596 107.624 296.846 107.511 297.144L105.973 305.532C105.942 305.706 105.946 305.883 105.984 306.055C106.023 306.227 106.095 306.389 106.198 306.533C106.3 306.676 106.43 306.797 106.58 306.889C106.73 306.982 106.898 307.043 107.072 307.069L107.335 307.113Z" fill="#C55469"/>
<path d="M390.941 484.451L307.595 518.926L364.492 649.272L455 609.879L390.941 484.451Z" fill="#EFC33B"/>
<path d="M307.595 518.926L342.524 656.87L352.234 649.273H364.492L334 561.043L307.595 518.926Z" fill="#EFC33B"/>
<path d="M362.163 643.914H362.734C363.049 643.762 363.296 643.497 363.426 643.172C363.556 642.847 363.56 642.486 363.437 642.158L313.79 526.392L311.241 527.314L341.689 623.932C341.8 624.276 342.043 624.561 342.364 624.726C342.685 624.891 343.059 624.921 343.402 624.811C343.746 624.7 344.032 624.457 344.197 624.136C344.361 623.815 344.392 623.441 344.281 623.098L321.962 552.391L360.933 643.344C361.073 643.535 361.259 643.687 361.475 643.787C361.69 643.887 361.927 643.931 362.163 643.914Z" fill="#E8A12B"/>
</g>
<defs>
<clipPath id="clip0">
<rect width="455" height="796" fill="white" transform="matrix(-1 0 0 1 455 0)"/>
</clipPath>
</defs>
</svg>
