<svg width="425" height="542" viewBox="0 0 425 542" fill="none" xmlns="http://www.w3.org/2000/svg">
<path opacity="0.7" d="M31.5001 169.5C36.4893 83.4354 95.5248 31.8239 148.5 53.9972C180.039 67.1986 212.378 -33.2864 329.5 17.0001C425 58.0032 435.113 183.07 417.5 229C408.898 260.852 322.856 315.682 343.5 376.5C364.144 437.318 336.092 535 261 489C201.594 452.609 98.6863 593.066 51.5001 520C-7.48269 428.667 88.7584 374.352 74.5 310.5C63 259 27.5001 238.5 31.5001 169.5Z" fill="url(#paint0_linear)"/>
<path opacity="0.2" d="M393.11 166.697C388.121 80.6327 329.086 29.0212 276.11 51.1945C244.571 64.3958 212.232 -36.0892 95.1104 14.1974C-0.389618 55.2005 -10.5025 180.267 7.11038 226.197C15.712 258.049 101.754 312.879 81.1104 373.697C60.4664 434.515 88.5185 532.197 163.61 486.197C223.016 449.806 325.924 590.263 373.11 517.197C432.093 425.865 335.852 371.55 350.11 307.697C361.61 256.197 397.11 235.697 393.11 166.697Z" fill="url(#paint1_linear)"/>
<defs>
<linearGradient id="paint0_linear" x1="8.00001" y1="148.5" x2="399" y2="452.5" gradientUnits="userSpaceOnUse">
<stop stop-color="#37CAD4"/>
<stop offset="1" stop-color="#9E34DF"/>
</linearGradient>
<linearGradient id="paint1_linear" x1="416.61" y1="145.697" x2="25.6104" y2="449.697" gradientUnits="userSpaceOnUse">
<stop stop-color="#37CAD4"/>
<stop offset="1" stop-color="#9E34DF"/>
</linearGradient>
</defs>
</svg>
