<svg width="614" height="683" viewBox="0 0 614 683" fill="none" xmlns="http://www.w3.org/2000/svg">
<path opacity="0.7" d="M368.15 74.3587C278.01 -62.2261 130.513 144.74 169.802 234.233C235.409 361.481 143.482 373.6 158.74 482.205C170.421 565.355 245.326 487.331 382.263 566.103C519.199 644.876 438.758 486.692 468.086 474.746C532.168 448.644 449.269 396.439 444.437 365.676C441.259 344.546 496.771 304.71 545.9 241.692C595.029 178.674 557.982 141.262 532.168 130.29C444.437 93.0014 444.437 189.954 368.15 74.3587Z" fill="url(#paint0_linear)"/>
<path opacity="0.2" d="M403.894 128.089C544.184 43.8313 587.826 294.202 513.739 357.95C399.608 444.381 477.285 495.015 416.617 586.378C370.17 656.328 336.309 553.605 178.781 565.509C21.2536 577.414 162.125 469.487 140.832 446.045C94.3091 394.826 191.625 383.546 209.269 357.886C221.262 340.201 188.399 280.297 171.306 202.241C154.213 124.184 203.785 106.443 231.805 107.696C327.037 111.955 285.163 199.398 403.894 128.089Z" fill="url(#paint1_linear)"/>
<defs>
<linearGradient id="paint0_linear" x1="363.5" y1="29" x2="363.5" y2="588" gradientUnits="userSpaceOnUse">
<stop stop-color="#8630DC"/>
<stop offset="1" stop-color="#4489D9"/>
</linearGradient>
<linearGradient id="paint1_linear" x1="427.678" y1="89.1871" x2="186.247" y2="593.362" gradientUnits="userSpaceOnUse">
<stop stop-color="#8630DC"/>
<stop offset="1" stop-color="#4489D9"/>
</linearGradient>
</defs>
</svg>
