<svg width="546" height="681" viewBox="0 0 546 681" fill="none" xmlns="http://www.w3.org/2000/svg">
<path opacity="0.7" d="M78.2871 460.856C7.87433 423.065 55.7635 324.139 88.5097 279.4C116.483 241.181 133.791 149.088 132.761 98.2089C131.474 34.6105 255.736 13.4729 287.503 41.6108C319.27 69.7487 330.38 94.9873 364.699 103.369C399.019 111.751 392.867 58.7628 447.495 123.59C502.122 188.416 463.753 245.011 442.303 303.057C420.854 361.102 428.94 428.507 430.823 469.189C432.706 509.872 364.141 613.796 337.856 572.516C311.571 531.237 256.464 587.499 207.515 598.069C168.357 606.525 159.483 578.83 159.941 563.925C162.062 545.315 148.7 498.647 78.2871 460.856Z" fill="url(#paint0_linear)"/>
<path opacity="0.2" d="M467.936 492.856C538.348 455.065 490.459 356.139 457.713 311.4C429.74 273.181 412.432 181.088 413.462 130.209C414.749 66.6105 290.487 45.4729 258.72 73.6108C226.953 101.749 215.843 126.987 181.523 135.369C147.204 143.751 153.355 90.7628 98.728 155.59C44.1007 220.416 82.4698 277.011 103.919 335.057C125.369 393.102 117.283 460.507 115.4 501.189C113.516 541.872 182.082 645.796 208.367 604.516C234.652 563.237 289.759 619.499 338.707 630.069C377.866 638.525 386.74 610.83 386.282 595.925C384.161 577.315 397.523 530.647 467.936 492.856Z" fill="url(#paint1_linear)"/>
<defs>
<linearGradient id="paint0_linear" x1="329.933" y1="47.4503" x2="194.709" y2="601.139" gradientUnits="userSpaceOnUse">
<stop stop-color="#2F69C2"/>
<stop offset="1" stop-color="#CB44B5"/>
</linearGradient>
<linearGradient id="paint1_linear" x1="216.29" y1="79.4503" x2="351.514" y2="633.139" gradientUnits="userSpaceOnUse">
<stop stop-color="#2F69C2"/>
<stop offset="1" stop-color="#CB44B5"/>
</linearGradient>
</defs>
</svg>
