<svg width="455" height="797" viewBox="0 0 455 797" fill="none" xmlns="http://www.w3.org/2000/svg">
<g clip-path="url(#clip0)">
<path d="M109.18 295.263L61.0264 537.555L287.867 552.794L196.481 347.437L109.18 295.263Z" fill="#DE6879"/>
<path d="M116.43 366.321L32.4682 760.259L60.5872 769.042L127.853 559.601L180.664 466.014L228.071 613.268L316.47 767.066L337.164 749.236L265.197 548.666L241.954 366.321H116.43Z" fill="#393762"/>
<path d="M167.352 158.812L154.171 128.949C154.171 128.949 142.967 131.979 138.002 127.236C136.157 125.435 134.268 115.861 133.345 103.96C133.345 102.511 133.126 101.061 133.038 99.5681C132.95 98.0749 126.799 102.159 126.755 100.578C126.755 97.3722 132.686 88.3692 132.774 85.1193C133.038 70.0557 135.191 55.4752 140.858 49.9855C153.688 37.6009 198.722 35.8442 204.829 57.8028C208.038 68.9719 208.094 80.8104 204.993 92.0097C201.891 103.209 195.752 113.333 187.255 121.263L199.469 152.269L167.352 158.812Z" fill="#E48868"/>
<path d="M163.31 113.051C163.31 114.128 163.629 115.181 164.228 116.076C164.827 116.972 165.677 117.67 166.673 118.082C167.668 118.494 168.764 118.602 169.821 118.392C170.877 118.182 171.848 117.663 172.61 116.901C173.372 116.14 173.891 115.169 174.101 114.113C174.311 113.057 174.203 111.962 173.791 110.967C173.379 109.972 172.68 109.121 171.785 108.523C170.889 107.924 169.835 107.605 168.758 107.605C167.313 107.605 165.927 108.179 164.905 109.2C163.884 110.221 163.31 111.606 163.31 113.051Z" fill="#ECE0D3"/>
<path d="M75.3062 251.039L54.4805 270.23C54.4805 270.23 14.6747 183.977 12.8294 181.825C10.9841 179.673 7.86466 160.92 7.68892 159.164C7.51317 157.407 20.8697 159.471 20.8697 159.471C21.8321 155.786 23.0206 152.163 24.4285 148.624C25.1314 147.262 29.569 141.509 29.9644 146.164V159.339L33.2596 164.478C34.2892 170.022 34.6871 175.664 34.4458 181.298L75.3062 251.039Z" fill="#E48868"/>
<path d="M21.7915 176.775L20.2977 144.012L18.8039 117.794L9.22586 119.155L13.883 175.852L21.7915 176.775Z" fill="#393762"/>
<path d="M7.68821 158.812C6.89737 154.948 12.7408 144.847 13.8831 146.164C15.0255 147.482 14.3225 153.235 14.3225 153.235L12.2575 156.265C12.2575 156.265 14.674 155.958 14.63 156.792C14.5861 157.627 14.63 161.535 14.63 161.535L13.3998 168.825L7.68821 158.812Z" fill="#E48868"/>
<path d="M45.561 181.825L87.1243 263.379C88.9257 250.731 92.5285 258.021 92.5285 258.021C92.5285 258.021 117.176 184.109 142.703 170.187C171.569 154.596 126.755 300.402 126.755 300.402C126.755 300.402 87.8273 321.965 74.0314 316.036C60.2356 310.107 24.4278 237.556 10.9834 202.73C19.5949 197.328 36.598 186.524 45.561 181.825Z" fill="#DE6879"/>
<path d="M241.954 366.321L112.695 383.888L125.217 319.023C125.217 319.023 113.134 295.176 106.368 281.254C101.975 272.47 100.569 256.397 117.133 225.918C126.905 207.985 135.448 189.409 142.703 170.319L137.475 155.299L194.943 124.557L201.05 146.516C201.05 146.516 236.77 191.531 242.877 202.73C248.984 213.929 239.011 313.357 238.132 322.931L241.954 366.321Z" fill="#EFC33B"/>
<path d="M252.104 72.3833C251.823 81.9734 249.58 91.4044 245.513 100.095C238.22 116.081 224.995 134.482 205.971 133.34C196.217 132.726 189.978 126.841 182.773 121.263C174.006 114.832 165.857 107.598 158.432 99.6559C154.346 95.2641 151.227 89.9502 147.492 85.2071C138.442 73.7447 118.934 76.8189 111.86 63.2485C104.435 48.8875 115.112 33.9118 125.041 23.2838C150.919 -4.16449 190.637 -5.83335 219.987 14.5003C235.173 24.8453 246.098 40.3367 250.742 58.1102C251.801 62.7907 252.258 67.587 252.104 72.3833Z" fill="#393762"/>
<path d="M45.5175 732.415L34.5774 771.941C34.5774 771.941 0.966496 774.4 -9.15527e-05 777.167L48.3294 793.197L60.939 737.422L45.5175 732.415Z" fill="#393762"/>
<path d="M300.785 796.71H328.508L348.631 777.958L323.676 728.595L309.924 738.696L326.356 775.542L321.259 790.254L300.785 796.71Z" fill="#393762"/>
<path d="M201.05 146.296C201.05 146.296 166.912 155.562 158.169 172.119C149.426 188.676 232.86 549.105 232.86 549.105L288.043 552.794L247.71 363.335L245.03 318.32C245.03 318.32 252.631 215.553 247.71 204.135C241.515 190.038 201.05 146.296 201.05 146.296Z" fill="#DE6879"/>
<path d="M317.436 463.642C327.014 455.956 350.52 459.25 353.947 462.456C357.374 465.662 369.456 512.302 372.224 523.94L368.709 524.819C369.061 523.501 355.88 464.52 347.576 462.632C339.272 460.743 320.512 465.135 318.139 467.024C315.767 468.912 316.865 530.177 316.865 530.177L311.549 530.967C311.549 530.967 312.252 467.77 317.436 463.642Z" fill="#B77053"/>
<path d="M387.778 516.65L297.402 529.518L308.825 664.168L415.853 651.388L387.778 516.65Z" fill="#393762"/>
<path d="M317.48 468.165C324.598 458.108 348.016 454.727 352.234 456.966C356.451 459.206 372.093 486.084 377.936 496.492L374.817 498.293C374.817 496.931 354.65 458.416 346.126 458.767C337.603 459.118 320.819 468.648 319.018 470.932C317.217 473.216 326.399 517.441 326.399 517.441L321.478 519.68C321.478 519.68 313.658 473.523 317.48 468.165Z" fill="#ECE0D3"/>
<path d="M337.163 425.829C337.163 425.829 347.444 452.926 350.608 458.723C353.771 464.52 352.409 468.165 346.214 466.365C340.019 464.564 342.612 471.986 337.427 469.703C332.243 467.419 333.561 475.631 329.343 474.094C323.06 471.854 323.543 474.929 320.819 474.885C318.095 474.841 318.623 452.926 318.623 452.926C317.474 451.753 316.831 450.176 316.831 448.534C316.831 446.893 317.474 445.316 318.623 444.143C322.181 438.785 298.456 413.796 298.456 413.796L337.163 425.829Z" fill="#E48868"/>
<path d="M247.534 204.135C262.956 219.199 337.164 425.829 337.164 425.829L306.672 439.004C306.672 439.004 288.79 395.658 277.103 383.757C265.416 371.855 261.682 366.892 263.659 347.657C265.636 328.421 212.605 270.714 206.322 247.833C200.04 224.952 214.407 171.636 247.534 204.135Z" fill="#DE6879"/>
<path d="M244.854 308.131C245.16 308.128 245.455 308.02 245.689 307.824C245.815 307.701 245.915 307.554 245.984 307.392C246.052 307.23 246.088 307.055 246.088 306.879C246.088 306.703 246.052 306.529 245.984 306.367C245.915 306.205 245.815 306.058 245.689 305.935C235.581 293.444 226.529 280.135 218.624 266.146C210.892 252.971 206.718 242.563 208.211 229.08C208.834 222 211.182 215.18 215.05 209.216C218.917 203.253 224.187 198.327 230.399 194.868C230.717 194.708 230.959 194.43 231.074 194.093C231.189 193.757 231.167 193.389 231.014 193.068C230.935 192.91 230.826 192.77 230.692 192.656C230.558 192.542 230.402 192.455 230.234 192.402C230.066 192.349 229.889 192.33 229.714 192.346C229.538 192.362 229.368 192.414 229.213 192.497C222.595 196.143 216.975 201.357 212.846 207.682C208.717 214.008 206.205 221.25 205.531 228.773C203.95 243.002 208.299 253.761 216.296 267.508C224.279 281.62 233.42 295.046 243.624 307.648C243.774 307.823 243.964 307.959 244.179 308.043C244.393 308.127 244.625 308.157 244.854 308.131Z" fill="#C55469"/>
<path d="M107.335 307.824C107.645 307.812 107.943 307.697 108.181 307.499C108.419 307.3 108.585 307.028 108.653 306.726L110.147 298.337C110.147 298.019 110.036 297.71 109.832 297.465C109.628 297.22 109.344 297.054 109.031 296.996C108.717 296.939 108.393 296.993 108.115 297.15C107.837 297.307 107.624 297.556 107.511 297.854L105.973 306.243C105.942 306.416 105.945 306.594 105.984 306.765C106.022 306.937 106.095 307.1 106.197 307.243C106.3 307.386 106.43 307.508 106.58 307.6C106.73 307.692 106.897 307.753 107.071 307.78L107.335 307.824Z" fill="#C55469"/>
<path d="M390.941 485.161L307.595 519.636L364.492 649.983L455 610.589L390.941 485.161Z" fill="#EFC33B"/>
<path d="M307.594 519.637L342.524 657.581L352.233 649.983H364.491L334 561.753L307.594 519.637Z" fill="#EFC33B"/>
<path d="M362.163 644.625H362.734C363.049 644.472 363.296 644.207 363.426 643.882C363.556 643.558 363.56 643.196 363.437 642.868L313.789 527.102L311.241 528.025L341.689 624.643C341.8 624.986 342.042 625.272 342.364 625.436C342.685 625.601 343.059 625.631 343.402 625.521C343.746 625.41 344.032 625.167 344.196 624.846C344.361 624.525 344.392 624.152 344.281 623.808L321.962 553.101L360.933 644.054C361.073 644.245 361.259 644.398 361.474 644.497C361.689 644.597 361.926 644.641 362.163 644.625Z" fill="#E8A12B"/>
</g>
<defs>
<clipPath id="clip0">
<rect width="455" height="796" fill="white" transform="matrix(-1 0 0 1 455 0.710327)"/>
</clipPath>
</defs>
</svg>
