<?xml version="1.0" encoding="iso-8859-1"?>
<!-- Generator: Adobe Illustrator 21.0.0, SVG Export Plug-In . SVG Version: 6.00 Build 0)  -->
<svg version="1.1" id="&#x421;&#x43B;&#x43E;&#x439;_1"
	 xmlns="http://www.w3.org/2000/svg" xmlns:xlink="http://www.w3.org/1999/xlink" x="0px" y="0px" viewBox="0 0 289 796"
	 style="enable-background:new 0 0 289 796;" xml:space="preserve">
<path style="fill:#DE6879;" d="M109.18,294.553L61.027,536.844l226.841,15.24l-91.387-205.357L109.18,294.553z"/>
<path style="fill:#393762;" d="M116.43,365.611L32.468,759.549l28.119,8.783l67.266-209.441l52.811-93.588l47.407,147.255
	l88.399,153.798l20.694-17.831l-71.967-200.57l-23.242-182.344H116.43z"/>
<path style="fill:#E48868;" d="M167.352,158.102l-13.181-29.864c0,0-11.204,3.031-16.168-1.712
	c-1.846-1.801-3.735-11.375-4.657-23.277c0-1.449-0.22-2.898-0.308-4.391c-0.088-1.493-6.239,2.591-6.283,1.01
	c0-3.206,5.931-12.209,6.019-15.459c0.264-15.064,2.417-29.644,8.085-35.134c12.829-12.385,57.863-14.141,63.97,7.817
	c3.209,11.169,3.265,23.008,0.164,34.207c-3.101,11.2-9.24,21.324-17.738,29.254l12.214,31.005L167.352,158.102z"/>
<path style="fill:#ECE0D3;" d="M163.31,112.34c0,1.077,0.319,2.13,0.918,3.026c0.599,0.895,1.45,1.593,2.445,2.006
	c0.996,0.412,2.091,0.52,3.148,0.309c1.057-0.21,2.027-0.728,2.789-1.49s1.281-1.732,1.491-2.788
	c0.211-1.057,0.103-2.152-0.31-3.147c-0.412-0.995-1.11-1.845-2.006-2.444c-0.896-0.598-1.949-0.917-3.027-0.917
	c-1.445,0-2.831,0.573-3.852,1.595C163.884,109.511,163.31,110.896,163.31,112.34z"/>
<path style="fill:#E48868;" d="M75.306,250.328L54.481,269.52c0,0-39.806-86.253-41.651-88.405
	c-1.845-2.152-4.965-20.905-5.14-22.662c-0.176-1.756,13.181,0.308,13.181,0.308c0.962-3.686,2.151-7.308,3.559-10.848
	c0.703-1.361,5.141-7.114,5.536-2.459v13.175l3.295,5.138c1.03,5.544,1.427,11.187,1.186,16.821L75.306,250.328z"/>
<path style="fill:#393762;" d="M21.792,176.064l-1.494-32.762l-1.494-26.219l-9.578,1.362l4.657,56.697L21.792,176.064z"/>
<path style="fill:#E48868;" d="M7.688,158.102c-0.791-3.865,5.053-13.966,6.195-12.648c1.142,1.317,0.439,7.071,0.439,7.071
	l-2.065,3.03c0,0,2.417-0.308,2.373,0.527c-0.044,0.834,0,4.743,0,4.743l-1.23,7.29L7.688,158.102z"/>
<path style="fill:#DE6879;" d="M45.561,181.115l41.563,81.554c1.801-12.648,5.404-5.358,5.404-5.358s24.648-73.913,50.175-87.834
	c28.865-15.591-15.949,130.214-15.949,130.214s-38.927,21.564-52.723,15.635c-13.796-5.929-49.604-78.48-63.048-113.307
	C19.595,196.617,36.598,185.814,45.561,181.115z"/>
<path style="fill:#EFC33B;" d="M241.955,365.611l-129.26,17.567l12.522-64.866c0,0-12.082-23.847-18.848-37.769
	c-4.394-8.783-5.8-24.857,10.764-55.335c9.773-17.934,18.316-36.509,25.571-55.6l-5.229-15.019l57.468-30.742l6.107,21.958
	c0,0,35.72,45.015,41.827,56.214c6.108,11.199-3.866,110.628-4.745,120.202L241.955,365.611z"/>
<path style="fill:#393762;" d="M252.104,71.673c-0.281,9.59-2.524,19.021-6.59,27.712c-7.294,15.986-20.518,34.387-39.543,33.245
	c-9.753-0.615-15.992-6.5-23.198-12.077c-8.767-6.432-16.916-13.665-24.34-21.607c-4.086-4.392-7.206-9.706-10.94-14.449
	c-9.051-11.462-28.559-8.388-35.632-21.959c-7.425-14.361,3.251-29.337,13.18-39.965c25.879-27.448,65.597-29.117,94.946-8.784
	c15.186,10.345,26.111,25.836,30.755,43.61C251.801,62.08,252.259,66.877,252.104,71.673z"/>
<path style="fill:#393762;" d="M45.518,731.705l-10.94,39.526c0,0-33.611,2.459-34.577,5.226l48.329,16.03l12.61-55.775
	L45.518,731.705z"/>
<path style="fill:#DE6879;" d="M201.051,145.586c0,0-34.139,9.266-42.882,25.823c-8.743,16.557,74.691,376.986,74.691,376.986
	l55.184,3.689L247.71,362.625l-2.68-45.016c0,0,7.601-102.766,2.68-114.184C241.515,189.327,201.051,145.586,201.051,145.586z"/>
<path style="fill:#DE6879;" d="M247.534,203.425c15.422,15.063,89.63,221.694,89.63,221.694l-30.492,13.175
	c0,0-17.882-43.346-29.569-55.248c-11.687-11.901-15.421-16.864-13.444-36.1c1.977-19.236-51.054-76.943-57.336-99.824
	C200.04,224.241,214.407,170.926,247.534,203.425z"/>
<path style="fill:#C55469;" d="M244.854,307.421c0.306-0.003,0.601-0.112,0.835-0.308c0.126-0.123,0.227-0.269,0.295-0.432
	c0.069-0.162,0.104-0.336,0.104-0.512s-0.035-0.35-0.104-0.512c-0.068-0.163-0.169-0.309-0.295-0.432
	c-10.108-12.492-19.16-25.8-27.064-39.789c-7.733-13.175-11.907-23.584-10.413-37.066c0.622-7.08,2.97-13.9,6.838-19.864
	c3.868-5.964,9.138-10.89,15.349-14.348c0.318-0.16,0.56-0.439,0.675-0.775c0.115-0.336,0.093-0.705-0.06-1.026
	c-0.078-0.157-0.188-0.297-0.322-0.411c-0.134-0.115-0.29-0.201-0.458-0.254s-0.344-0.073-0.52-0.056
	c-0.175,0.016-0.346,0.067-0.501,0.151c-6.617,3.645-12.238,8.86-16.367,15.185c-4.129,6.325-6.641,13.567-7.314,21.09
	c-1.582,14.229,2.768,24.989,10.764,38.735c7.983,14.113,17.124,27.539,27.328,40.141c0.15,0.175,0.34,0.31,0.555,0.395
	C244.393,307.417,244.625,307.447,244.854,307.421z"/>
<path style="fill:#C55469;" d="M107.335,307.113c0.31-0.012,0.608-0.126,0.846-0.324c0.239-0.199,0.405-0.471,0.472-0.774
	l1.494-8.388c0.001-0.319-0.111-0.628-0.315-0.873s-0.487-0.411-0.801-0.468c-0.314-0.058-0.638-0.003-0.916,0.154
	c-0.277,0.156-0.491,0.406-0.604,0.704l-1.538,8.388c-0.031,0.174-0.027,0.351,0.011,0.523c0.039,0.172,0.111,0.334,0.214,0.478
	c0.102,0.143,0.232,0.264,0.382,0.356c0.15,0.093,0.318,0.154,0.492,0.18L107.335,307.113z"/>
</svg>
